<svg xmlns="http://www.w3.org/2000/svg" xmlns:xlink="http://www.w3.org/1999/xlink" width="186.383" height="338.685" viewBox="0 0 186.383 338.685">
  <defs>
    <linearGradient id="linear-gradient" x1="0.484" y1="0.755" x2="0.329" y2="0.126" gradientUnits="objectBoundingBox">
      <stop offset="0" stop-color="#f47b54"/>
      <stop offset="0.165" stop-color="#f68a63"/>
      <stop offset="0.445" stop-color="#f99e77"/>
      <stop offset="0.724" stop-color="#fbaa83"/>
      <stop offset="1" stop-color="#fcae88"/>
    </linearGradient>
    <linearGradient id="linear-gradient-2" x1="-1.025" y1="-0.271" x2="-0.155" y2="-0.963" gradientUnits="objectBoundingBox">
      <stop offset="0" stop-color="#fcac86"/>
      <stop offset="1" stop-color="#fdbd9e"/>
    </linearGradient>
    <linearGradient id="linear-gradient-3" x1="-137.416" y1="-0.211" x2="-137.369" y2="0.868" gradientUnits="objectBoundingBox">
      <stop offset="0" stop-color="#f47b54"/>
      <stop offset="1" stop-color="#fcae88"/>
    </linearGradient>
  </defs>
  <g id="man_sorethroat" data-name="man sorethroat" transform="translate(-2642.15 18.51)">
    <path id="Trazado_57917" data-name="Trazado 57917" d="M2652.1,468.209l-8.909,26.194h18.868V468.209Z" transform="translate(-0.591 -275.975)" fill="#bd8366"/>
    <path id="Trazado_57918" data-name="Trazado 57918" d="M2677.85,338.922l-22.083,60.431h30.309Z" transform="translate(-7.721 -202.667)" fill="#007884"/>
    <path id="Trazado_57919" data-name="Trazado 57919" d="M2828.245,298.159v.019l-1.026,46.967-.188,8.664v.02l-2.305,111.878s-46.666,9.182-78.569,6.952c-10.782-.753-28.387-6.952-28.387-6.952l-11-160.065,33.588-25.415L2763.2,285.3l21.2-5.072Z" transform="translate(-36.639 -169.386)" fill="#00a0b0"/>
    <path id="Trazado_57920" data-name="Trazado 57920" d="M2794.112,252.9l36.222.233-5.777-29.955h-25.315Z" transform="translate(-86.164 -137.04)" fill="url(#linear-gradient)"/>
    <g id="Grupo_31529" data-name="Grupo 31529" transform="translate(2703.01 101.465)">
      <path id="Trazado_57921" data-name="Trazado 57921" d="M2835.588,273.094s13.891,0,19.091,20.271c2.768-9.168,6.351-27.2-1.766-34.789C2849.456,267.273,2842.168,273.094,2835.588,273.094Z" transform="translate(-2812.691 -258.576)" fill="#33b3c0"/>
      <path id="Trazado_57922" data-name="Trazado 57922" d="M2804.513,273.094s-13.9,0-19.095,20.271c-2.768-9.168-5.376-27.2,2.742-34.789C2791.619,267.273,2797.928,273.094,2804.513,273.094Z" transform="translate(-2782.707 -258.576)" fill="#33b3c0"/>
    </g>
    <path id="Trazado_57923" data-name="Trazado 57923" d="M2718.864,343.113a22.466,22.466,0,0,0-9.966-4.733s-102.2,93.857-53.675,96.556C2683.325,436.5,2712.684,366.809,2718.864,343.113Z" transform="translate(0 -202.36)" fill="#fcac86"/>
    <g id="Grupo_31530" data-name="Grupo 31530" transform="translate(2721.947 153.57)">
      <path id="Trazado_57924" data-name="Trazado 57924" d="M2831.427,381.4a2.491,2.491,0,1,1-2.492-2.492A2.491,2.491,0,0,1,2831.427,381.4Z" transform="translate(-2826.444 -378.912)" fill="#33b3c0"/>
      <path id="Trazado_57925" data-name="Trazado 57925" d="M2831.427,453.423a2.491,2.491,0,1,1-2.492-2.491A2.492,2.492,0,0,1,2831.427,453.423Z" transform="translate(-2826.444 -419.748)" fill="#33b3c0"/>
      <circle id="Elipse_664" data-name="Elipse 664" cx="2.491" cy="2.491" r="2.491" transform="translate(0 62.367)" fill="#33b3c0"/>
      <path id="Trazado_57926" data-name="Trazado 57926" d="M2831.427,597.461a2.491,2.491,0,1,1-2.492-2.492A2.492,2.492,0,0,1,2831.427,597.461Z" transform="translate(-2826.444 -501.418)" fill="#33b3c0"/>
      <path id="Trazado_57927" data-name="Trazado 57927" d="M2831.427,669.48a2.491,2.491,0,1,1-2.492-2.492A2.492,2.492,0,0,1,2831.427,669.48Z" transform="translate(-2826.444 -542.254)" fill="#33b3c0"/>
    </g>
    <g id="Grupo_31532" data-name="Grupo 31532" transform="translate(2746.916 172.662)">
      <path id="Trazado_57928" data-name="Trazado 57928" d="M2884.11,423.006V444.2l9.877,2.831,9.879-2.831V423.006Z" transform="translate(-2884.11 -423.006)" fill="#33b3c0"/>
      <g id="Grupo_31531" data-name="Grupo 31531" transform="translate(0.981 1.882)">
        <rect id="Rectángulo_6291" data-name="Rectángulo 6291" width="2.43" height="0.313" fill="#00a0b0"/>
        <rect id="Rectángulo_6292" data-name="Rectángulo 6292" width="2.431" height="0.313" transform="translate(3.841)" fill="#00a0b0"/>
        <rect id="Rectángulo_6293" data-name="Rectángulo 6293" width="2.43" height="0.313" transform="translate(7.683)" fill="#00a0b0"/>
        <rect id="Rectángulo_6294" data-name="Rectángulo 6294" width="2.431" height="0.313" transform="translate(11.524)" fill="#00a0b0"/>
        <rect id="Rectángulo_6295" data-name="Rectángulo 6295" width="2.43" height="0.313" transform="translate(15.366)" fill="#00a0b0"/>
      </g>
    </g>
    <path id="Trazado_57929" data-name="Trazado 57929" d="M2885.413,441.063h-2.766l-4.036-12.24L2876.306,540.7s-46.666,9.182-78.569,6.952c75.964-7.32,78.643-135.163,78.643-135.163l.011.028,2.409,7.621Z" transform="translate(-88.219 -244.381)" fill="#007884" opacity="0.26"/>
    <g id="Grupo_31533" data-name="Grupo 31533" transform="translate(2794.001 180.78)">
      <path id="Trazado_57930" data-name="Trazado 57930" d="M3021.984,546.936a25.507,25.507,0,0,0-10.635.783c-2.58-11.4-11.946-61.285-15.792-83.692-.368-2.139-.71-4.118-1.013-5.9-.281-1.649-.537-3.13-.753-4.416-.593-3.477-.939-5.521-.939-5.521s8.21-9.106,20.013-5.651a25.317,25.317,0,0,1,8.063,4.183,135.19,135.19,0,0,1,2.9,17.944c.078.754.152,1.515.217,2.277C3026.777,498.043,3021.984,546.936,3021.984,546.936Z" transform="translate(-2992.852 -441.755)" fill="#fcae88"/>
      <path id="Trazado_57931" data-name="Trazado 57931" d="M3015.549,672.463c-7.241,2.469-13.45,17.86-15.95,18.342.42.975,3.42,6.371,9.014-1.5.6,5.653.789,21.8.789,21.8s5.962,3.529,5.4-11.754a55.125,55.125,0,0,1,.606,11.715s5.987,3.207,4.039-11.686c.6,2.4,1.285,10.647,1.285,10.647s5.286,2.1,2.948-11.913c.671,1.223,1.423,9.791,1.423,9.791s3.974,5.137,4.175-11.718C3029.351,690.1,3032.228,666.777,3015.549,672.463Z" transform="translate(-2996.677 -572.066)" fill="#fcae88"/>
      <path id="Trazado_57932" data-name="Trazado 57932" d="M3023.824,464.664l-29.279-6.539c-.281-1.649-.537-3.13-.753-4.416-.593-3.477-.939-5.521-.939-5.521s8.21-9.106,20.013-5.651a25.317,25.317,0,0,1,8.063,4.183A135.19,135.19,0,0,1,3023.824,464.664Z" transform="translate(-2992.852 -441.755)" fill="#b06c4c" opacity="0.49"/>
    </g>
    <path id="Trazado_57933" data-name="Trazado 57933" d="M2792.924,282.169c-3.056-5.561.564-25.376.564-25.376s17.552-20.361,19.118-19.811c.739.26.472,2.325.015,2.959-8.5,11.8-9.943,19.6-9.943,19.6s8.821-15.1,10.657-14.458c.787.276.046,2.52-.137,3.334-.84,3.734-5.983,14.092-5.983,14.092s6.528-10.477,7.9-10c1.284.451-.249,4.086-.506,5.424-.718,3.729-4.3,14.569-4.3,14.569l-7.669,15.527S2794.292,284.655,2792.924,282.169Z" transform="translate(-84.795 -144.86)" fill="url(#linear-gradient-2)"/>
    <g id="Grupo_31538" data-name="Grupo 31538" transform="translate(2680.357 -18.51)">
      <path id="Trazado_57934" data-name="Trazado 57934" d="M2834.111.5s-.561-14.087-13.089-14.047c2.455,1.028,10.646,4.518,8.082,14.114C2832.175.567,2834.111.5,2834.111.5Z" transform="translate(-2781.779 15.696)" fill="#482b0e"/>
      <path id="Trazado_57935" data-name="Trazado 57935" d="M2736.905,49.972c-5.54,11.237,2.074,28.311,2.074,28.311l15.144-16.074-3.176-15.176S2738.489,46.754,2736.905,49.972Z" transform="translate(-2732.938 -18.65)" fill="#482b0e"/>
      <path id="Trazado_57936" data-name="Trazado 57936" d="M2737.712,78.193s.01.06.029.2c.269,2.178.631,4.4,1.1,6.624a79.884,79.884,0,0,0,4.026,13.336c.491,1.22,1,2.407,1.537,3.577v.019a68.43,68.43,0,0,0,3.837,7.143c8.332,13.466,20.149,21.208,31.308,18.871,11.369-2.379,19.15-14.564,21.228-30.638.23-1.78.4-3.609.48-5.476.03-.609.051-1.219.059-1.829h.01c.031-1.277.02-2.567-.026-3.886a80.932,80.932,0,0,0-1.662-13.835c-.468-2.218-1.02-4.374-1.639-6.473-7.013-23.737-23.653-39.689-39.066-36.463C2743.556,32.57,2734.734,53.737,2737.712,78.193Z" transform="translate(-2734.216 -8.399)" fill="#fcae88"/>
      <path id="Trazado_57937" data-name="Trazado 57937" d="M2753.918,183.1v.019a68.382,68.382,0,0,0,3.837,7.143c8.332,13.466,20.15,21.208,31.308,18.871,11.37-2.379,19.15-14.564,21.229-30.638.229-1.78.4-3.609.479-5.476,0,0-8.383-1.459-11.041-.688C2788.431,175.606,2770.684,193.351,2753.918,183.1Z" transform="translate(-2743.73 -89.573)" fill="#482b0e"/>
      <path id="Trazado_57938" data-name="Trazado 57938" d="M2850.316,19.827l2.306,44.162-13.427-2.667L2820,29.477s5.571-15.519,9.642-15.542C2832.308,13.915,2850.316,19.827,2850.316,19.827Z" transform="translate(-2781.197 0.113)" fill="#482b0e"/>
      <g id="Grupo_31534" data-name="Grupo 31534" transform="translate(2.924 54.377)">
        <path id="Trazado_57939" data-name="Trazado 57939" d="M2798.856,107.423l.479,2.3-1.289.27-.527-2.534-4.189.112s-.029,5.62,1.367,6.53c3.839,2.509,17.953-3.756,17.953-3.756l-.683-3.267Z" transform="translate(-2769.001 -107.076)" fill="#482b0e"/>
        <path id="Trazado_57940" data-name="Trazado 57940" d="M2749.29,109.822l.482,2.3,1.291-.27-.529-2.533,3.879-1.577s2.278,5.135,1.365,6.53c-2.51,3.838-17.955,3.754-17.955,3.754l-.682-3.263Z" transform="translate(-2737.141 -107.452)" fill="#482b0e"/>
      </g>
      <path id="Trazado_57941" data-name="Trazado 57941" d="M2806.439,212.215s-11.141-.145-18.892,2.96C2789.644,210.988,2796.694,202.635,2806.439,212.215Z" transform="translate(-2762.798 -109.806)" fill="#fff"/>
      <g id="Grupo_31535" data-name="Grupo 31535" transform="translate(56.299 52.901)">
        <path id="Trazado_57942" data-name="Trazado 57942" d="M2876.356,118.837c-1.785,7.268-6.651,12.319-10.873,11.282s-6.2-7.766-4.414-15.034,6.648-12.323,10.873-11.285S2878.141,111.568,2876.356,118.837Z" transform="translate(-2860.413 -103.666)" fill="#fcae88"/>
        <path id="Trazado_57943" data-name="Trazado 57943" d="M2873.979,120.46s13.91-4.844,2.359,11.259C2875.847,129.333,2881.316,125.839,2873.979,120.46Z" transform="translate(-2868.105 -112.801)" fill="url(#linear-gradient-3)"/>
      </g>
      <g id="Grupo_31536" data-name="Grupo 31536" transform="translate(0 0)">
        <path id="Trazado_57944" data-name="Trazado 57944" d="M2730.389,13.182c1.6-.788,24.6,2.738,38.621-.708a22.055,22.055,0,0,0,6.234-2.416c.237-.151.469-.3.688-.472a9,9,0,0,0,3.785-5.683c.029-.178.059-.349.079-.53.382-2.427-.02-5.434-1.428-9.129,0,0-18.309-23.617-34.822-6.573a32.558,32.558,0,0,0-2.8,3.3A53.83,53.83,0,0,0,2735.366.2q-.378.811-.739,1.649C2733.555,4.281,2731.4,10.194,2730.389,13.182Z" transform="translate(-2730.389 18.51)" fill="#482b0e"/>
        <path id="Trazado_57945" data-name="Trazado 57945" d="M2754.313-1.586c8.012-1.547,20.9-1.178,36.512,10.949.81.629,1.628,1.288,2.457,1.988.029-.178.059-.349.079-.53-.7-.67-1.466-1.387-2.317-2.145-7.6-6.814-20.928-16.323-33.933-13.557A32.589,32.589,0,0,0,2754.313-1.586Z" transform="translate(-2743.954 11.061)" fill="#36200b"/>
        <path id="Trazado_57946" data-name="Trazado 57946" d="M2740.176,21.461c6.1-2.229,20.319-5.8,38.747,6.883.62.42,1.241.868,1.871,1.33.237-.151.469-.3.688-.472-.61-.527-1.259-1.068-1.928-1.616-9.6-7.831-25.015-16.674-38.638-7.773Q2740.537,20.622,2740.176,21.461Z" transform="translate(-2735.938 -1.106)" fill="#36200b"/>
      </g>
      <path id="Trazado_57947" data-name="Trazado 57947" d="M2819.584,29.174a22.056,22.056,0,0,0,6.235-2.416c.237-.151.469-.3.688-.472a9,9,0,0,0,3.785-5.683c.03-.178.059-.349.079-.53.382-2.427-.02-5.434-1.428-9.129a20.737,20.737,0,0,1-.889,6.984c-.068.228-.14.459-.219.688a20,20,0,0,1-3.256,6.055c-.2.259-.41.51-.631.759A20.147,20.147,0,0,1,2819.584,29.174Z" transform="translate(-2780.963 1.81)" fill="#36200b"/>
      <path id="Trazado_57948" data-name="Trazado 57948" d="M2817.367,130.372s-10.383-7.362-12.621,2.074C2805.939,131.539,2807.583,127.272,2817.367,130.372Z" transform="translate(-2772.55 -64.357)" fill="#482b0e"/>
      <path id="Trazado_57949" data-name="Trazado 57949" d="M2749.272,143.635s7.093-10.569,12.534-2.544C2760.369,140.667,2757.317,137.261,2749.272,143.635Z" transform="translate(-2741.096 -70.279)" fill="#482b0e"/>
      <g id="Grupo_31537" data-name="Grupo 31537" transform="translate(22.076 67.803)">
        <path id="Trazado_57950" data-name="Trazado 57950" d="M2787.191,138.082s2.656,12.686,4.537,21.68c-20.052,6.089-4.862-21.1-4.545-21.67Z" transform="translate(-2781.373 -138.082)" fill="#fcae88"/>
        <path id="Trazado_57951" data-name="Trazado 57951" d="M2791.728,159.775c-20.052,6.089-4.862-21.1-4.545-21.67C2786.962,138.636,2777.358,162.025,2791.728,159.775Z" transform="translate(-2781.373 -138.095)" fill="#b06d4d"/>
      </g>
    </g>
    <path id="Trazado_57952" data-name="Trazado 57952" d="M3017.646,389.523l-31.339.029h-2.766l-4.035-12.24v-.02c-.075-.413-1.205-7.394-2.221-16.285-1.883-16.428-3.349-39.364,3.077-39.364.113,0,.235.01.358.019C2996.661,326.119,3017.646,389.523,3017.646,389.523Z" transform="translate(-189.113 -192.87)" fill="#00a0b0"/>
    <path id="Trazado_57953" data-name="Trazado 57953" d="M2724.008,236.371l9.375,3.7,2.659-5.07,4.506,5.566,2.994-9.2,6.71,7.495-6.211-4.654-3.193,8.073-4.311-4.461-3.387,4.341Z" transform="translate(-46.414 -141.683)" fill="#be1e2d"/>
    <path id="Trazado_57954" data-name="Trazado 57954" d="M2756.374,267.466l-7.029,1.728.55,4.075-4.952-1.387,2.073,6.635-7.046-1.6,5.572.144L2744.055,271l4.38.82.179-3.951Z" transform="translate(-55.464 -162.151)" fill="#be1e2d"/>
    <path id="Trazado_57955" data-name="Trazado 57955" d="M2874.031,233.506l6.012.591.7-3.358,3.514,2.466.209-5.8,5.1,3.214-4.348-1.66-.51,5.178-3.219-1.861-1.238,3.059Z" transform="translate(-131.479 -139.438)" fill="#be1e2d"/>
  </g>
</svg>
