<svg xmlns="http://www.w3.org/2000/svg" width="840" height="160" viewBox="0 0 840 160">
  <g id="Grupo_31422" data-name="Grupo 31422" transform="translate(-450.5 -956)">
    <g id="Grupo_31420" data-name="Grupo 31420" transform="translate(450 956)">
      <g id="Elipse_600" data-name="Elipse 600" transform="translate(0.5 0)" fill="#fce832" stroke="rgba(112,112,112,0.42)" stroke-width="4">
        <circle cx="80" cy="80" r="80" stroke="none"/>
        <circle cx="80" cy="80" r="78" fill="none"/>
      </g>
      <g id="Elipse_601" data-name="Elipse 601" transform="translate(170.5 0)" fill="#94edd9" stroke="rgba(112,112,112,0.42)" stroke-width="4">
        <circle cx="80" cy="80" r="80" stroke="none"/>
        <circle cx="80" cy="80" r="78" fill="none"/>
      </g>
      <g id="Elipse_602" data-name="Elipse 602" transform="translate(339.5 0)" fill="#94dbed" stroke="rgba(112,112,112,0.42)" stroke-width="4">
        <circle cx="80" cy="80" r="80" stroke="none"/>
        <circle cx="80" cy="80" r="78" fill="none"/>
      </g>
      <g id="Elipse_603" data-name="Elipse 603" transform="translate(509.5 0)" fill="#ac94ed" stroke="rgba(112,112,112,0.42)" stroke-width="4">
        <circle cx="80" cy="80" r="80" stroke="none"/>
        <circle cx="80" cy="80" r="78" fill="none"/>
      </g>
      <g id="Elipse_604" data-name="Elipse 604" transform="translate(680.5 0)" fill="#ed949a" stroke="rgba(112,112,112,0.42)" stroke-width="4">
        <circle cx="80" cy="80" r="80" stroke="none"/>
        <circle cx="80" cy="80" r="78" fill="none"/>
      </g>
    </g>
    <g id="Grupo_31410" data-name="Grupo 31410" transform="translate(475.699 968.435)">
      <path id="Trazado_57483" data-name="Trazado 57483" d="M5820.916,1856.113A19.083,19.083,0,1,1,5840,1837.029,19.1,19.1,0,0,1,5820.916,1856.113Zm0-35.23a16.147,16.147,0,1,0,16.147,16.147A16.165,16.165,0,0,0,5820.916,1820.882Z" transform="translate(-5764.735 -1817.946)" fill="#fff"/>
      <path id="Trazado_57484" data-name="Trazado 57484" d="M5740.206,2147.929a2.2,2.2,0,0,1-.567-.071c-2.119-.538-3.625-3.018-4.594-7.579a51.464,51.464,0,0,1-1-9.235l-.016-1.094a85.512,85.512,0,0,1,.484-13.382c1.515-10.083,7.259-15.2,17.073-15.2h17.346a1.468,1.468,0,1,1,0,2.936h-17.346c-8.366,0-12.869,4.034-14.17,12.7a83.553,83.553,0,0,0-.452,12.9l.016,1.1a49.233,49.233,0,0,0,.936,8.664c.921,4.337,2.043,5.163,2.372,5.315.941-.119,4.456-1.671,8.745-4.342,4.618-2.875,8.045-5.74,9.188-7.679.812-1.709,1.765-9.984,2.179-14.835a1.468,1.468,0,0,1,2.926.249c-.188,2.2-1.191,13.331-2.5,15.937l-.041.076c-2.012,3.488-8.125,7.474-10.66,9.027a60.161,60.161,0,0,1-6.074,3.291A10.228,10.228,0,0,1,5740.206,2147.929Z" transform="translate(-5706.847 -2059.767)" fill="#fff"/>
      <path id="Trazado_57485" data-name="Trazado 57485" d="M5911.82,2147.93a10.247,10.247,0,0,1-3.846-1.222,60.213,60.213,0,0,1-6.074-3.291c-2.536-1.552-8.648-5.539-10.661-9.027l-.04-.076c-1.319-2.632-2.9-14.524-3.077-15.872a1.468,1.468,0,1,1,2.911-.38c.636,4.865,1.945,13.168,2.772,14.9,1.143,1.938,4.571,4.8,9.188,7.679,4.286,2.669,7.8,4.219,8.741,4.341.341-.159,1.458-1,2.375-5.315a49.1,49.1,0,0,0,.937-8.664l.016-1.1a83.676,83.676,0,0,0-.452-12.9c-1.3-8.662-5.8-12.7-14.169-12.7h-17.346a1.468,1.468,0,1,1,0-2.936h17.346c9.813,0,15.558,5.112,17.072,15.2a85.512,85.512,0,0,1,.484,13.382l-.016,1.094a51.459,51.459,0,0,1-1,9.235c-.969,4.561-2.474,7.041-4.6,7.581A2.157,2.157,0,0,1,5911.82,2147.93Z" transform="translate(-5832.814 -2059.767)" fill="#fff"/>
      <path id="Trazado_57486" data-name="Trazado 57486" d="M5560.751,2409.079c-7.07,0-9.843-2.527-10.924-4.669a7.543,7.543,0,0,1,.768-7.67c3.415-4.5,14.468-5.906,25.5-6.955a48.181,48.181,0,0,0,4.891-.586c.3-.109.666-.224,1.083-.357,3.047-.968,8.717-2.769,9.6-7.625.676-3.721.4-7.133-.957-11.775a1.468,1.468,0,1,1,2.818-.823,27.134,27.134,0,0,1,1.028,13.124c-1.2,6.594-8.225,8.826-11.6,9.9-.391.124-.729.232-.983.323a32.5,32.5,0,0,1-5.6.744c-6.658.634-20.514,1.953-23.437,5.807a4.659,4.659,0,0,0-.485,4.574c1.022,2.026,4.1,3.11,8.643,3.053,6.53-.081,15.813-1.568,24.791-3.006,13.207-2.115,24.612-3.942,28.744-1.823a1.468,1.468,0,0,1-1.341,2.613c-3.275-1.68-15.848.334-26.938,2.11-9.082,1.455-18.473,2.959-25.218,3.043Z" transform="translate(-5549.107 -2286.883)" fill="#fff"/>
      <path id="Trazado_57487" data-name="Trazado 57487" d="M5887.293,2399.5l-.377,0c-7.73-.1-18.97-3.38-29.839-6.555-5.714-1.669-11.111-3.246-15.5-4.2-5.618-1.217-7.759-.979-8.565-.566a1.468,1.468,0,1,1-1.34-2.612c3.673-1.883,12.361.5,26.231,4.557,10.183,2.975,21.725,6.347,29.053,6.438,4.552.059,7.622-1.028,8.643-3.053a4.656,4.656,0,0,0-.485-4.573c-2.922-3.854-16.777-5.173-23.437-5.807a32.54,32.54,0,0,1-5.6-.744c-.254-.091-.592-.2-.982-.323-3.376-1.072-10.4-3.3-11.6-9.9-.965-5.307-.08-9.758,1.546-14.809a1.468,1.468,0,0,1,2.795.9c-1.49,4.631-2.308,8.679-1.452,13.384.883,4.856,6.553,6.658,9.6,7.625.418.133.78.248,1.084.357a48.142,48.142,0,0,0,4.891.586c11.028,1.05,22.082,2.452,25.5,6.955a7.544,7.544,0,0,1,.767,7.67C5897.137,2396.977,5894.363,2399.5,5887.293,2399.5Z" transform="translate(-5789.511 -2277.308)" fill="#fff"/>
      <path id="Trazado_57488" data-name="Trazado 57488" d="M5811.54,2201.752a1.467,1.467,0,0,1-1.415-1.082c-1.376-5.047-.1-18.245-.045-18.8a1.468,1.468,0,0,1,2.921.287c-.359,3.662-1.069,13.988-.044,17.746a1.471,1.471,0,0,1-1.417,1.854Z" transform="translate(-5771.266 -2127.314)" fill="#fff"/>
      <path id="Trazado_57489" data-name="Trazado 57489" d="M6031.664,2201.753a1.471,1.471,0,0,1-1.417-1.855c1.025-3.758.315-14.083-.044-17.745a1.468,1.468,0,1,1,2.921-.287c.056.559,1.332,13.758-.044,18.8A1.469,1.469,0,0,1,6031.664,2201.753Z" transform="translate(-5959.574 -2127.315)" fill="#fff"/>
    </g>
    <g id="Grupo_31421" data-name="Grupo 31421" transform="translate(636.734 993.741)">
      <path id="Trazado_57490" data-name="Trazado 57490" d="M6611.344,2112.15a10.223,10.223,0,0,1-7.048-3.2,11.474,11.474,0,0,1-2.114-2.891c-4.238.829-8.519,1.526-12.748,2.076l-.5-3.816c4.657-.6,9.378-1.393,14.034-2.342a1.924,1.924,0,0,1,2.223,1.317,7.226,7.226,0,0,0,1.821,2.934c2.011,2.01,4.881,2.668,6.14,1.408s.6-4.129-1.408-6.14a7.228,7.228,0,0,0-2.935-1.822,1.924,1.924,0,0,1-1.355-1.838v-56.033a1.924,1.924,0,0,1,1.355-1.838,7.233,7.233,0,0,0,2.936-1.822c2.009-2.01,2.668-4.88,1.407-6.14s-4.129-.6-6.14,1.408a7.224,7.224,0,0,0-1.821,2.934,1.923,1.923,0,0,1-2.164,1.328,228.082,228.082,0,0,0-77.477,0,1.923,1.923,0,0,1-2.164-1.328,7.247,7.247,0,0,0-1.821-2.934c-2.011-2.01-4.88-2.668-6.14-1.408s-.6,4.13,1.408,6.14a7.23,7.23,0,0,0,2.934,1.822,1.923,1.923,0,0,1,1.356,1.838v10.955h-3.848v-9.646a11.4,11.4,0,0,1-3.163-2.248c-3.643-3.642-4.261-8.73-1.409-11.582s7.941-2.234,11.583,1.407a11.476,11.476,0,0,1,2.136,2.935,231.873,231.873,0,0,1,75.735,0,11.44,11.44,0,0,1,2.136-2.934c3.642-3.642,8.73-4.26,11.582-1.408s2.234,7.94-1.408,11.583a11.417,11.417,0,0,1-3.163,2.248v53.415a11.416,11.416,0,0,1,3.163,2.247c3.643,3.642,4.261,8.73,1.408,11.583A6.284,6.284,0,0,1,6611.344,2112.15Z" transform="translate(-6495.511 -2027.495)" fill="#fff"/>
      <path id="Trazado_57491" data-name="Trazado 57491" d="M6517.246,2323.42a6.324,6.324,0,0,1-4.54-1.772c-2.853-2.853-2.234-7.94,1.408-11.582a11.4,11.4,0,0,1,3.163-2.248v-30.165h3.848v31.474a1.924,1.924,0,0,1-1.356,1.838,7.225,7.225,0,0,0-2.934,1.822c-2.011,2.01-2.668,4.88-1.409,6.14a2.888,2.888,0,0,0,2.477.592,6.947,6.947,0,0,0,3.664-2,7.229,7.229,0,0,0,1.822-2.934,1.923,1.923,0,0,1,2.222-1.317c4.883,1,9.832,1.812,14.708,2.429l-.482,3.818c-4.453-.563-8.965-1.29-13.435-2.164a11.438,11.438,0,0,1-2.113,2.891,10.715,10.715,0,0,1-5.781,3.079A8.053,8.053,0,0,1,6517.246,2323.42Z" transform="translate(-6495.509 -2238.782)" fill="#fff"/>
      <rect id="Rectángulo_6218" data-name="Rectángulo 6218" width="3.848" height="20.964" transform="translate(101.329 41.664)" fill="#fff"/>
      <rect id="Rectángulo_6219" data-name="Rectángulo 6219" width="3.848" height="4.685" transform="translate(101.329 32.763)" fill="#fff"/>
      <rect id="Rectángulo_6220" data-name="Rectángulo 6220" width="3.848" height="5.465" transform="translate(101.329 22.964)" fill="#fff"/>
      <path id="Trazado_57492" data-name="Trazado 57492" d="M6733.621,2221.637a22.225,22.225,0,1,1,22.224-22.225A22.25,22.25,0,0,1,6733.621,2221.637Zm0-40.6A18.376,18.376,0,1,0,6752,2199.413,18.4,18.4,0,0,0,6733.621,2181.036Z" transform="translate(-6664.84 -2153.928)" fill="#fff"/>
      <rect id="Rectángulo_6221" data-name="Rectángulo 6221" width="3.848" height="16.96" transform="matrix(0.15, -0.989, 0.989, 0.15, 40.777, 72.384)" fill="#fff"/>
      <rect id="Rectángulo_6222" data-name="Rectángulo 6222" width="3.848" height="4.731" transform="translate(32.575 71.137) rotate(-81.351)" fill="#fff"/>
      <g id="Grupo_31411" data-name="Grupo 31411" transform="translate(30.7 32.763)">
        <path id="Trazado_57493" data-name="Trazado 57493" d="M6621.632,2249.923h-10.223a2.061,2.061,0,0,1-1.963-1.431h0a2.061,2.061,0,0,1,.761-2.307l6.52-4.68h-6.821v-3.156h10.223a2.062,2.062,0,0,1,1.963,1.43h0a2.061,2.061,0,0,1-.76,2.307l-6.52,4.681h6.82Z" transform="translate(-6609.347 -2238.348)" fill="#fff"/>
      </g>
      <g id="Grupo_31412" data-name="Grupo 31412" transform="translate(15.029 23.531)">
        <path id="Trazado_57494" data-name="Trazado 57494" d="M6520.782,2190.508H6510.56a2.063,2.063,0,0,1-1.963-1.43h0a2.062,2.062,0,0,1,.76-2.307l6.521-4.681h-6.82v-3.156h10.223a2.062,2.062,0,0,1,1.963,1.43h0a2.061,2.061,0,0,1-.761,2.306l-6.521,4.681h6.821Z" transform="translate(-6508.498 -2178.934)" fill="#fff"/>
      </g>
      <g id="Grupo_31413" data-name="Grupo 31413" transform="translate(0 12.968)">
        <path id="Trazado_57495" data-name="Trazado 57495" d="M6424.059,2122.53h-10.223a2.062,2.062,0,0,1-1.962-1.43h0a2.062,2.062,0,0,1,.761-2.307l6.521-4.68h-6.821v-3.156h10.223a2.061,2.061,0,0,1,1.962,1.43h0a2.06,2.06,0,0,1-.76,2.307l-6.521,4.681h6.821Z" transform="translate(-6411.774 -2110.955)" fill="#fff"/>
      </g>
      <path id="Trazado_57496" data-name="Trazado 57496" d="M6764.378,2293.753a15.568,15.568,0,0,1-6.362-1.407l1.564-3.517a11.232,11.232,0,0,0,9.6,0l1.563,3.517A15.561,15.561,0,0,1,6764.378,2293.753Z" transform="translate(-6704.216 -2248.222)" fill="#fff"/>
      <path id="Trazado_57497" data-name="Trazado 57497" d="M6875.309,2293.753a15.57,15.57,0,0,1-6.362-1.407l1.563-3.517a11.236,11.236,0,0,0,9.6,0l1.563,3.517A15.571,15.571,0,0,1,6875.309,2293.753Z" transform="translate(-6797.909 -2248.222)" fill="#fff"/>
      <path id="Trazado_57498" data-name="Trazado 57498" d="M6703.857,2453.436l-28.076-11.669a1.925,1.925,0,0,1-1.187-1.777v-3.8a21.96,21.96,0,0,1-8.943,0v3.8a1.925,1.925,0,0,1-1.154,1.764l-26.741,11.669-1.539-3.527,25.586-11.165v-5.046a1.924,1.924,0,0,1,2.53-1.826,18.268,18.268,0,0,0,11.579,0,1.924,1.924,0,0,1,2.531,1.826v5.021l26.89,11.177Z" transform="translate(-6601.343 -2368.944)" fill="#fff"/>
    </g>
    <g id="Grupo_31414" data-name="Grupo 31414" transform="translate(823.425 985.572)">
      <path id="Trazado_57500" data-name="Trazado 57500" d="M7474.045,1882.536a19.694,19.694,0,0,0-11.994-.4c.229-.247.487-.458.705-.723a21.175,21.175,0,0,0,3.624-19.4,1.329,1.329,0,0,0-.166-.289,1.089,1.089,0,0,0-1.229-1.071,25.262,25.262,0,0,0-21.729,17.41,37.063,37.063,0,0,0-12.64-17.031,1.015,1.015,0,0,0-1.095-.135,1.45,1.45,0,0,0-.326.222,1.172,1.172,0,0,0-.157.117c-2.031,2.278-3.088,5.678-3.862,8.561a1.17,1.17,0,0,0,.272,1.144,1.223,1.223,0,0,0,.638.459,21.792,21.792,0,0,1,14.654,15.1c-8.045-1.341-14.9-6.42-23.6-5.338-8.4,1.043-14.933,6.839-18.421,14.377-9,19.44,1.379,42.767,14.067,58.072,6.645,8.015,12.82,7.143,21.921,4.122,6.6-2.19,11.073-.926,17.488.684,3.559.893,7.555,1.824,11.241,1.242,8.836-1.4,14.538-12.138,17.719-19.477,4.684-10.808,8.3-21.907,7.953-33.818C7488.823,1896.49,7483.74,1886.218,7474.045,1882.536Zm-10.006-19.154c1.625,5.7.232,12.858-3.969,17.147-3.877,3.958-9.844,5.293-15.228,6.071a1.2,1.2,0,0,0,.045-.344C7444.065,1875.086,7452.941,1864.8,7464.039,1863.383ZM7428,1869.35a18.852,18.852,0,0,1,2.225-5.337c4.9,3.97,9.43,10.293,11.04,16.731A24.485,24.485,0,0,0,7428,1869.35Zm41.273,84.276c-8.665,8.094-18.314-.512-28.014-.11-4.64.192-8.725,2.621-13.146,3.722-7.91,1.969-12.572-3.745-16.509-9.71-6.649-10.077-12.8-21-13.581-33.3-.787-12.326,4.581-27.774,18.237-30.3,9.785-1.81,17.273,4.727,26.574,5.429a1.2,1.2,0,0,0,.56.05,28.437,28.437,0,0,0,7.874-1.431,32.545,32.545,0,0,0,3.634-1.193c5.512-1.9,10.979-3.881,16.708-2.316,15.571,4.252,16.5,23.618,13.547,36.553C7482.634,1932.115,7477.758,1945.706,7469.278,1953.626Z" transform="translate(-7395.331 -1860.645)" fill="#fff"/>
      <path id="Trazado_57501" data-name="Trazado 57501" d="M7496.432,2093.327c-8.8,3.623-13.242,14.71-11.761,23.653.273,1.651,2.785.951,2.513-.692-1.223-7.374,2.57-17.412,9.941-20.448C7498.656,2095.21,7497.985,2092.688,7496.432,2093.327Z" transform="translate(-7472.587 -2062.4)" fill="#fff"/>
      <path id="Trazado_57502" data-name="Trazado 57502" d="M7491.332,2313.11a1.3,1.3,0,0,0,0,2.606A1.3,1.3,0,0,0,7491.332,2313.11Z" transform="translate(-7477.515 -2253.144)" fill="#fff"/>
    </g>
    <g id="Grupo_31417" data-name="Grupo 31417" transform="translate(994.764 974.755)">
      <g id="Grupo_31415" data-name="Grupo 31415" transform="translate(32.466)">
        <path id="Trazado_57503" data-name="Trazado 57503" d="M9330.283,1985.88a12.848,12.848,0,1,1,12.847-12.848A12.863,12.863,0,0,1,9330.283,1985.88Zm0-22.093a9.245,9.245,0,1,0,9.244,9.245A9.256,9.256,0,0,0,9330.283,1963.787Z" transform="translate(-9317.435 -1960.184)" fill="#fff"/>
      </g>
      <g id="Grupo_31416" data-name="Grupo 31416" transform="translate(0 25.527)">
        <path id="Trazado_57504" data-name="Trazado 57504" d="M9192,2184.826a6.355,6.355,0,0,1-4.91-2.314l-14.679-16.586a1.647,1.647,0,0,1-.177-.234,10.941,10.941,0,0,1,1.65-15.318l19.488-16.355-5.342-25.726-8.242,7.433a3.889,3.889,0,0,1-4.345.534l-18.917-10.065a5.954,5.954,0,0,1-2.945-3.741,6.485,6.485,0,0,1,.571-4.777c.017-.027.077-.131.095-.158a6.322,6.322,0,0,1,5.556-3.355,5.968,5.968,0,0,1,2.795.7l13.261,7.115,9.469-8.43a6.3,6.3,0,0,1,3.619-1.561l31.861-2.776a5.65,5.65,0,0,1,5.089,2.364l11.649,16.557a6.262,6.262,0,0,1-1.662,8.672c-.041.028-.083.056-.125.081a6.493,6.493,0,0,1-3.746,1.186,6.042,6.042,0,0,1-4.947-2.514l-8.982-12.628-5.015.582,3.728,28.007,8.748,18.393,16.179,12.811c2.228,1.921,2.344,5.338,1.132,7.984a1.807,1.807,0,0,1-.437,1.14,8.835,8.835,0,0,1-6.388,2.729,5.723,5.723,0,0,1-3.789-1.262l-17.077-13.748a1.8,1.8,0,0,1-.387-.431l-9.587-14.954-20.567,15.091,12.724,14.684a6.412,6.412,0,0,1-.862,9.032l-.365.325A6.415,6.415,0,0,1,9192,2184.826Zm-16.79-21.171,14.618,16.515a2.809,2.809,0,0,0,3.94.41l.37-.331a2.865,2.865,0,0,0,1.061-1.942,2.732,2.732,0,0,0-.605-2.028l-13.973-16.128a1.8,1.8,0,0,1,.3-2.632l23.688-17.381a1.8,1.8,0,0,1,2.582.479l10.465,16.322,16.891,13.6c.9.766,3.237.381,4.557-.532.975-1.276,1.321-3.656.329-4.512l-16.448-13.022a1.792,1.792,0,0,1-.508-.638l-9.051-19.027a1.851,1.851,0,0,1-.159-.536l-4.006-30.1a1.8,1.8,0,0,1,1.578-2.028l7.892-.917a1.8,1.8,0,0,1,1.676.746l9.6,13.5a2.71,2.71,0,0,0,3.718.438c.041-.028.082-.056.126-.081a2.643,2.643,0,0,0,.755-3.621l-11.652-16.56a2.04,2.04,0,0,0-1.828-.849l-31.863,2.776a2.679,2.679,0,0,0-1.535.663l-10.409,9.267a1.8,1.8,0,0,1-2.051.242l-14.364-7.708a2.7,2.7,0,0,0-3.522,1.262c-.017.031-.079.137-.1.168a2.862,2.862,0,0,0-.22,2.048,2.382,2.382,0,0,0,1.167,1.5l18.908,10.062c.129.026.189.018.242-.029l10.573-9.537a1.8,1.8,0,0,1,2.97.973l6.2,29.855a1.8,1.8,0,0,1-.606,1.747l-20.332,17.063a7.338,7.338,0,0,0-1.075,10.364A1.576,1.576,0,0,1,9175.212,2163.655Z" transform="translate(-9153.363 -2089.189)" fill="#fff"/>
      </g>
    </g>
    <path id="Trazado_57499" data-name="Trazado 57499" d="M8374.346,2007.593c-12.711-1.923-26.448,4.82-30.869,16.826a27.185,27.185,0,0,0-12.162-13.518c-8.974-5.018-17.789-5.089-27.393-1.044-7.418,3.126-13.234,11.337-16.318,18.479-3.9,9.024-1.925,20.074.5,29.224a1.369,1.369,0,0,0,2.639-.727c-4.039-15.265-3.371-32.115,10.539-42.337,6.531-4.8,17.78-6.489,25.048-3.17,7.615,3.478,15.188,10.284,15.772,19.176a1.368,1.368,0,0,0,2.734,0c1.436-16.284,21.416-24.982,35.42-18.345,14.877,7.052,21.158,27.023,16.26,42.159-3.09,9.552-15.353,7.174-23.421,7.225-4.581.029-9.164.075-13.745.036-.617-.006-3.15,0-3.078.045-.721-.445-2.577-5.916-3.01-7.029a1.375,1.375,0,0,0-2.687.364c-.9,7.088-2.757,13.982-4.22,20.958-1.422-11.728-2.007-23.553-3.963-35.221-.225-1.349-2.346-1.259-2.636,0q-2.824,12.217-5.646,24.434l-2.522-11.344c-.281-1.259-2.427-1.35-2.638,0-.293,1.879-.763,6.987-2.031,7.878-.867.609-4.133-.026-5.265-.032l-14.9-.1c-5.426-.036-13.946-1.117-13.705,7.018.126,4.263,4.073,8.582,6.6,11.735a75.426,75.426,0,0,0,12.616,12.105c9.455,7.4,20,13.128,30.216,19.376a1.382,1.382,0,0,0,1.38,0c18.5-10.1,33.434-23.2,46.577-39.674,1.087-1.363-.836-3.311-1.934-1.934-8.7,10.9-18.3,21.224-29.8,29.184-3.666,2.539-11.689,9.833-16.251,9.2-2.144-.3-5.1-3.034-6.973-4.145-2.871-1.7-5.736-3.412-8.565-5.185a129.021,129.021,0,0,1-17.8-12.986c-3.288-2.95-19.7-18.661-8.885-22.006,4.081-1.262,10.75.071,15.029.1q6.368.041,12.733.08a1.4,1.4,0,0,0,1.319-1c.327-1.041.619-2.068.918-3.1q1.263,5.687,2.527,11.373a1.378,1.378,0,0,0,2.638,0q2.685-11.61,5.366-23.22c1.544,12.155,2.095,24.425,4.121,36.525.279,1.661,2.513,1.018,2.687-.364,1.038-8.25,3.382-16.238,4.89-24.4.932,2.043,2.2,3.664,4.7,4.07,6.194,1.006,13.447.006,19.708-.037,5.76-.039,13.405,1.242,18.213-2.644,4.166-3.37,5-9.338,5.438-14.332C8402,2030.373,8392.722,2010.373,8374.346,2007.593Z" transform="translate(-7130.685 -1018.006)" fill="#fff"/>
  </g>
</svg>
