<svg xmlns="http://www.w3.org/2000/svg" width="1076" height="357.688" viewBox="0 0 1076 357.688">
  <g id="Grupo_51734" data-name="Grupo 51734" transform="translate(-422 -4797.312)">
    <rect id="Rectángulo_2655" data-name="Rectángulo 2655" width="1076" height="6" transform="translate(422 5149)" fill="#0f3384"/>
    <g id="Grupo_51571" data-name="Grupo 51571" transform="translate(502.123 4149.102)">
      <rect id="Rectángulo_11699" data-name="Rectángulo 11699" width="101.389" height="120.804" rx="5" transform="translate(201.737 648.21)" fill="#d6edf4" opacity="0.68"/>
      <rect id="Rectángulo_11700" data-name="Rectángulo 11700" width="101.389" height="120.804" rx="5" transform="translate(318.453 648.21)" fill="#d6edf4" opacity="0.68"/>
      <ellipse id="Elipse_1548" data-name="Elipse 1548" cx="26.847" cy="3.675" rx="26.847" ry="3.675" transform="translate(224.147 758.809)" fill="#bfd4da"/>
      <ellipse id="Elipse_1549" data-name="Elipse 1549" cx="26.847" cy="3.675" rx="26.847" ry="3.675" transform="translate(337.987 758.809)" fill="#bfd4da"/>
      <rect id="Rectángulo_11701" data-name="Rectángulo 11701" width="101.389" height="120.804" rx="4" transform="translate(437.48 648.21)" fill="#d6edf4" opacity="0.68"/>
      <ellipse id="Elipse_1550" data-name="Elipse 1550" cx="26.847" cy="3.675" rx="26.847" ry="3.675" transform="translate(460.369 758.809)" fill="#bfd4da"/>
      <rect id="Rectángulo_11702" data-name="Rectángulo 11702" width="101.389" height="120.804" rx="3" transform="translate(555.409 648.21)" fill="#d6edf4" opacity="0.68"/>
      <ellipse id="Elipse_1551" data-name="Elipse 1551" cx="26.847" cy="3.675" rx="26.847" ry="3.675" transform="translate(580.216 758.809)" fill="#bfd4da"/>
      <rect id="Rectángulo_11703" data-name="Rectángulo 11703" width="101.389" height="120.804" rx="8" transform="translate(86.095 648.21)" fill="#d6edf4" opacity="0.68"/>
      <g id="Grupo_51446" data-name="Grupo 51446" transform="translate(103.222 795.909)">
        <rect id="Rectángulo_11704" data-name="Rectángulo 11704" width="206.841" height="11.633" rx="5.817" fill="#d6edf4"/>
        <path id="Trazado_88434" data-name="Trazado 88434" d="M184.74,1157.476h0c0,2.527,2.722,4.6,6.049,4.6h75.6v-9.191h-75.6C187.462,1152.881,184.74,1154.949,184.74,1157.476Z" transform="translate(-183.46 -1151.543)" fill="#006d84"/>
      </g>
      <g id="Grupo_51447" data-name="Grupo 51447" transform="translate(335.807 795.909)">
        <rect id="Rectángulo_11705" data-name="Rectángulo 11705" width="206.841" height="11.633" rx="5.817" transform="translate(0 0)" fill="#262e4c"/>
        <path id="Trazado_88435" data-name="Trazado 88435" d="M1563.58,1153.472h-36.926v8.492h36.926c1.625,0,2.955-1.911,2.955-4.246h0C1566.535,1155.383,1565.206,1153.472,1563.58,1153.472Z" transform="translate(-1361.672 -1151.96)" fill="#006d84"/>
      </g>
      <g id="Grupo_51448" data-name="Grupo 51448" transform="translate(580.197 789.254)">
        <rect id="Rectángulo_11706" data-name="Rectángulo 11706" width="53.733" height="140.993" fill="#efb0ac"/>
      </g>
      <g id="Grupo_51449" data-name="Grupo 51449" transform="translate(459.55 844.865)">
        <rect id="Rectángulo_11707" data-name="Rectángulo 11707" width="53.733" height="83.464" fill="#efb0ac"/>
      </g>
      <g id="Grupo_51450" data-name="Grupo 51450" transform="translate(337.967 882.259)">
        <rect id="Rectángulo_11708" data-name="Rectángulo 11708" width="53.733" height="46.07" transform="translate(0 0)" fill="#efb0ac"/>
      </g>
      <g id="Grupo_51451" data-name="Grupo 51451" transform="translate(224.127 906.229)">
        <rect id="Rectángulo_11709" data-name="Rectángulo 11709" width="53.733" height="23.059" transform="translate(0 0)" fill="#efb0ac"/>
      </g>
      <g id="Grupo_51452" data-name="Grupo 51452" transform="translate(112.8 919.653)">
        <rect id="Rectángulo_11710" data-name="Rectángulo 11710" width="53.733" height="10.594" fill="#efb0ac"/>
      </g>
      <path id="Trazado_88436" data-name="Trazado 88436" d="M701.375,1597.552H89.281v3.207H701.375a1.647,1.647,0,1,0,0-3.207Z" transform="translate(-12.97 -668.987)" fill="#262e4c"/>
      <path id="Trazado_88437" data-name="Trazado 88437" d="M92.181,1119.622c0-.544-.717-.986-1.6-.986s-1.6.442-1.6.986v142.666c0,.545.717.986,1.6.986h1.61V1261.3h-.006Z" transform="translate(-12.753 -331.502)" fill="#262e4c"/>
      <g id="Grupo_51453" data-name="Grupo 51453" transform="translate(70.876 829.945)">
        <path id="Trazado_88438" data-name="Trazado 88438" d="M82.635,1263.6H72.48a1.6,1.6,0,1,0,0,3.207H82.635a1.6,1.6,0,0,0,0-3.207Z" transform="translate(-70.876 -1263.605)" fill="#262e4c"/>
      </g>
      <g id="Grupo_51454" data-name="Grupo 51454" transform="translate(189.322 915.957)">
        <path id="Trazado_88439" data-name="Trazado 88439" d="M473.563,1554.86a1.6,1.6,0,0,0-1.6,1.6v10.155a1.6,1.6,0,1,0,3.207,0v-10.155A1.6,1.6,0,0,0,473.563,1554.86Z" transform="translate(-471.959 -1554.86)" fill="#262e4c"/>
      </g>
      <g id="Grupo_51455" data-name="Grupo 51455" transform="translate(307.052 915.957)">
        <path id="Trazado_88440" data-name="Trazado 88440" d="M872.223,1554.86a1.6,1.6,0,0,0-1.6,1.6v10.155a1.6,1.6,0,1,0,3.207,0v-10.155A1.6,1.6,0,0,0,872.223,1554.86Z" transform="translate(-870.619 -1554.86)" fill="#262e4c"/>
      </g>
      <g id="Grupo_51456" data-name="Grupo 51456" transform="translate(425.53 915.957)">
        <path id="Trazado_88441" data-name="Trazado 88441" d="M1273.413,1554.86a1.6,1.6,0,0,0-1.6,1.6v10.155a1.6,1.6,0,1,0,3.207,0v-10.155A1.6,1.6,0,0,0,1273.413,1554.86Z" transform="translate(-1271.809 -1554.86)" fill="#262e4c"/>
      </g>
      <g id="Grupo_51457" data-name="Grupo 51457" transform="translate(543.477 915.957)">
        <path id="Trazado_88442" data-name="Trazado 88442" d="M1672.807,1554.86a1.6,1.6,0,0,0-1.6,1.6v10.155a1.6,1.6,0,1,0,3.207,0v-10.155A1.6,1.6,0,0,0,1672.807,1554.86Z" transform="translate(-1671.203 -1554.86)" fill="#262e4c"/>
      </g>
      <g id="Grupo_51458" data-name="Grupo 51458" transform="translate(660.04 915.957)">
        <path id="Trazado_88443" data-name="Trazado 88443" d="M2067.516,1554.86a1.6,1.6,0,0,0-1.6,1.6v10.155a1.6,1.6,0,1,0,3.207,0v-10.155A1.6,1.6,0,0,0,2067.516,1554.86Z" transform="translate(-2065.912 -1554.86)" fill="#262e4c"/>
      </g>
      <g id="Grupo_51459" data-name="Grupo 51459" transform="translate(70.876 883.665)">
        <path id="Trazado_88444" data-name="Trazado 88444" d="M82.635,1445.511H72.48a1.6,1.6,0,1,0,0,3.207H82.635a1.6,1.6,0,0,0,0-3.207Z" transform="translate(-70.876 -1445.511)" fill="#262e4c"/>
      </g>
      <ellipse id="Elipse_1552" data-name="Elipse 1552" cx="29.004" cy="4.554" rx="29.004" ry="4.554" transform="translate(108.026 753.376)" fill="#bfd4da"/>
      <g id="Grupo_51469" data-name="Grupo 51469" transform="translate(120.157 712.145)">
        <path id="Trazado_88445" data-name="Trazado 88445" d="M303.922,942.075c-.09-.022-.46-3.911-1.239-5.558s-3.823-4.426-5.441-3.977c0,0-1.341-.7-1.272,2.268s2.144,8.268,3.651,9.966a15.106,15.106,0,0,0,7.02,3.635c1.456.1,1.669-1.879,1.466-2.453S304.924,942.324,303.922,942.075Z" transform="translate(-278.775 -912.458)" fill="#e2a7a4"/>
        <path id="Trazado_88446" data-name="Trazado 88446" d="M340.011,973.718c-.11.141.393-.152.618-.107a.215.215,0,0,0,.253-.126A.766.766,0,0,0,340.011,973.718Z" transform="translate(-309.801 -941.329)" fill="#e2a7a4"/>
        <path id="Trazado_88447" data-name="Trazado 88447" d="M333.956,971.469a2.069,2.069,0,0,0-.446-.191.215.215,0,0,1-.253.126c-.225-.044-.729.248-.618.107a.766.766,0,0,1,.871-.233.412.412,0,0,0-.032-.347,1.449,1.449,0,0,0-1.351-.622,3.575,3.575,0,0,0-2.113.716c-.149.108-.264.106-.389.386a.985.985,0,0,0,.207,1.109,3.043,3.043,0,0,0,2.4,3.157.758.758,0,0,0,.905-.73c.007.055.857-.045.529-.853.2.1,1.339-.312.8-.958A1.065,1.065,0,0,0,333.956,971.469Z" transform="translate(-302.43 -939.122)" fill="#e2a7a4"/>
        <path id="Trazado_88448" data-name="Trazado 88448" d="M241.3,914.921s-2.245-1.173-2.695.792c-.362,1.583,1.417,2.872,4.061,2.847S241.3,914.921,241.3,914.921Z" transform="translate(-238.318 -899.847)" fill="#efb0ac"/>
        <path id="Trazado_88449" data-name="Trazado 88449" d="M329.775,1003.456a3.166,3.166,0,0,0,.2,3.854C332.358,1006.05,330.808,1003.985,329.775,1003.456Z" transform="translate(-302.201 -962.481)" fill="#efb0ac"/>
        <path id="Trazado_88450" data-name="Trazado 88450" d="M309.93,981.18c-5.75-1.859-13.841,1.819-13.841,1.819s-4.423,8.712-1.811,9.063c5.875.46,8.985-.017,10.5-.82a3.166,3.166,0,0,1-.2-3.854c1.033.529,2.583,2.594.2,3.854a2.2,2.2,0,0,0,1.645.956,8.011,8.011,0,0,0,3.243-1.33S315.68,983.039,309.93,981.18Z" transform="translate(-277.003 -946.414)" fill="#efb0ac"/>
        <g id="Grupo_51460" data-name="Grupo 51460" transform="translate(0.063 36.019)">
          <path id="Trazado_88451" data-name="Trazado 88451" d="M261.77,986.789h0C261.739,986.743,261.74,986.746,261.77,986.789Z" transform="translate(-254.724 -986.732)" fill="#efb0ac"/>
          <path id="Trazado_88452" data-name="Trazado 88452" d="M270.6,1013.459c0-.322-.016-.659-.038-1C270.567,1012.826,270.573,1013.162,270.6,1013.459Z" transform="translate(-260.934 -1004.842)" fill="#efb0ac"/>
          <path id="Trazado_88453" data-name="Trazado 88453" d="M238.173,989.517c-.7,3.354-.107,6.449,9.05,8.626a5.606,5.606,0,0,0,.4-2.851c-.025-.3-.031-.633-.038-1,.022.345.034.682.038,1,.075.895.324,1.432,1.287,1.479,3.234.158-3.465-9.406-3.9-10.039C244.971,986.727,238.9,986.043,238.173,989.517Z" transform="translate(-237.964 -986.674)" fill="#efb0ac"/>
        </g>
        <g id="Grupo_51461" data-name="Grupo 51461" transform="translate(3.957 19.695)">
          <path id="Trazado_88454" data-name="Trazado 88454" d="M268.878,935.574A5.235,5.235,0,0,0,264,931.4s-3.434.094-5.62.088c-3.434.094-6.252,2.29-6.464,3.746s.33,8.027-.509,10.21.558,9.335,1.388,9.962,4.885,1.783,9.775,2.214,6-3.339,7.256-5.625.1-6.634.1-6.634A83.743,83.743,0,0,0,268.878,935.574Z" transform="translate(-251.148 -931.397)" fill="#efb0ac"/>
        </g>
        <g id="Grupo_51462" data-name="Grupo 51462" transform="translate(5.238 19.439)">
          <path id="Trazado_88455" data-name="Trazado 88455" d="M255.591,933.354c-.035-.022-.068-.04-.1-.063C255.482,933.307,255.52,933.329,255.591,933.354Z" transform="translate(-255.487 -932.476)" fill="#e2a7a4"/>
          <path id="Trazado_88456" data-name="Trazado 88456" d="M255.838,931.409c8.688,5.562,13.617-.879,13.617-.879A28.036,28.036,0,0,1,255.838,931.409Z" transform="translate(-255.734 -930.53)" fill="#e2a7a4"/>
        </g>
        <g id="Grupo_51463" data-name="Grupo 51463" transform="translate(3.499 35.164)">
          <path id="Trazado_88457" data-name="Trazado 88457" d="M249.906,983.78c-.136-.03-.438.528-.24,1.052a11.526,11.526,0,0,1,4.822,1.508c4.208,2.249,2.785,7.948,2.263,8.521-.366.4,7.623.463,9.4-.833s2.7-4.087,3.06-5.737a15.422,15.422,0,0,0,.212-4.51S256.373,985.192,249.906,983.78Z" transform="translate(-249.6 -983.779)" fill="#6bc3dc"/>
        </g>
        <g id="Grupo_51464" data-name="Grupo 51464" transform="translate(14.066 37.074)">
          <path id="Trazado_88458" data-name="Trazado 88458" d="M290.675,994.133a4.137,4.137,0,0,0-.765-2.331,1.446,1.446,0,0,0-.9-1.552c-1.425-.116-1.106,1.728-1.318,2.374a4.509,4.509,0,0,1-2.308,2.648l.686,4.1a6.44,6.44,0,0,0,3.184.654c1.085-.1,1.313-1.135,1.288-2.02C290.487,996.065,290.725,995.428,290.675,994.133Z" transform="translate(-285.382 -990.245)" fill="#efb0ac"/>
        </g>
        <path id="Trazado_88459" data-name="Trazado 88459" d="M239.958,999.125c-1.4,4.279,5.492,9.846,15.464,6.619-.439-.468-.848-4.271-.848-4.271S243.341,997.5,239.958,999.125Z" transform="translate(-239.179 -959.155)" fill="#efb0ac"/>
        <g id="Grupo_51466" data-name="Grupo 51466" transform="translate(24.961 38.377)">
          <g id="Grupo_51465" data-name="Grupo 51465">
            <path id="Trazado_88460" data-name="Trazado 88460" d="M331.537,998.152c-.713-.221.123-.419.484-.545a.529.529,0,0,0-.295-1.016c-.669.083-1.05.6-.952.089.038-.2.847-.369,1.008-.8.2-.543-.332-1.579-1.516-1.092a2.452,2.452,0,0,0-1.2,1.217,12.326,12.326,0,0,0-3.428,1.728c-1.375.883-2.06.74-2.879,1.357a1.948,1.948,0,0,0,.477,2.97,3.67,3.67,0,0,0,2.4.091,6.139,6.139,0,0,0,5.094-.612,1.218,1.218,0,0,0,1.348-.2c.165-.214.066-.528-.816-.658-.316-.338.878.08,1.2-.424.139-.215.351-.742-.957-.786-.143-.44.607-.072,1.008-.36C332.813,998.894,333.036,997.918,331.537,998.152Z" transform="translate(-322.273 -994.659)" fill="#f1bcbb"/>
          </g>
        </g>
        <g id="Grupo_51467" data-name="Grupo 51467" transform="translate(3.718 33.558)">
          <path id="Trazado_88461" data-name="Trazado 88461" d="M269.493,978.341c-13.276,2.719-18.892-.542-18.79.187-.281,1.425-.4,1.614-.349,1.51,9.2,3.409,19.443.089,19.686,0C269.8,978.554,269.493,978.341,269.493,978.341Z" transform="translate(-250.342 -978.341)" fill="#88cdde"/>
        </g>
        <path id="Trazado_88462" data-name="Trazado 88462" d="M248.945,937.6s-1.226-2.3-2.994-.022-3.455,7.571-3.357,9.78a14.711,14.711,0,0,0,3.078,7.06c1.041.968,2.416-.4,2.615-.956s-.178-4.7-.783-5.5c-.054-.072,2.053-3.24,2.476-4.965S249.873,938.083,248.945,937.6Z" transform="translate(-241.161 -915.35)" fill="#f1bcbb"/>
        <path id="Trazado_88463" data-name="Trazado 88463" d="M266.363,992.718c-.17.039.39.126.533.3a.209.209,0,0,0,.269.06A.747.747,0,0,0,266.363,992.718Z" transform="translate(-257.891 -954.9)" fill="#f1bcbb"/>
        <path id="Trazado_88464" data-name="Trazado 88464" d="M258.767,988.334a.209.209,0,0,1-.269-.06c-.143-.172-.7-.26-.533-.3a.746.746,0,0,1,.8.358.4.4,0,0,0,.189-.281,1.737,1.737,0,0,0-.64-1.3,3.74,3.74,0,0,0-2.037-.756.713.713,0,0,0-.532.053.96.96,0,0,0-.524.967,2.964,2.964,0,0,0-.121,3.863.739.739,0,0,0,1.133,0,.541.541,0,0,0,.924-.32c.093.2,1.087.316,1.075-.505.038.072,1.381-.215.754-1.3A2.04,2.04,0,0,0,258.767,988.334Z" transform="translate(-249.493 -950.158)" fill="#f1bcbb"/>
        <g id="Grupo_51468" data-name="Grupo 51468" transform="translate(0 0.634)">
          <path id="Trazado_88465" data-name="Trazado 88465" d="M257.777,875.888a8.121,8.121,0,0,0-2.935-7.584c-3.278-2.631-9.218-1.121-11.63.139a9.52,9.52,0,0,0-4.822,12.17,11.092,11.092,0,0,0,5.588,6.579c3.654,2.043,9.389.484,11.49-.59C260.237,884.163,262.6,878.323,257.777,875.888Z" transform="translate(-237.751 -866.853)" fill="#efb0ac"/>
        </g>
        <path id="Trazado_88466" data-name="Trazado 88466" d="M263.706,864.815a5.689,5.689,0,0,0-2.039-.034,14.038,14.038,0,0,0-3.258.825c-.8.31-1.692.852-1.734,1.706a1.222,1.222,0,0,0,2.437.173,4.234,4.234,0,0,0,1.309,1.194,1.468,1.468,0,0,0,1.669-.167,1.139,1.139,0,0,0,.1-1.4,3.028,3.028,0,0,0,2.7.788c.893-.311.888-1.265.465-1.974A2.591,2.591,0,0,0,263.706,864.815Z" transform="translate(-251.085 -864.706)" fill="#262e4c"/>
      </g>
      <g id="Grupo_51475" data-name="Grupo 51475" transform="translate(232.236 685.058)">
        <path id="Trazado_88467" data-name="Trazado 88467" d="M625.858,839.075c-4.279.42-1.581,6.43-2.182,10.761-.827,5.949-2.679,11.365-3.7,12.176-3.988,3.163-2.528,4.483-1.987,4.6,2.058.428,3-.844,4.349-2.127,8.136-7.888,8.439-16.865,7.427-21.971C629.295,840.15,628.243,838.841,625.858,839.075Z" transform="translate(-617.277 -819.539)" fill="#efb0ac"/>
        <path id="Trazado_88468" data-name="Trazado 88468" d="M635.68,848.155c.057.462,5.576,2.516,9.339,1.018.717-.285-3.124-11.4-4.982-13.4C638.271,833.879,634.358,837.474,635.68,848.155Z" transform="translate(-630.057 -816.892)" fill="#66b7ce"/>
        <g id="Grupo_51470" data-name="Grupo 51470" transform="translate(10.777 56.3)">
          <path id="Trazado_88469" data-name="Trazado 88469" d="M654.489,984.4c-.252,1.089,2.36,2.665,3.9,1.151.36-6.085,1.1-13.933,1.92-21.568l-6.541-.348C654.22,974.36,654.681,983.57,654.489,984.4Z" transform="translate(-653.769 -963.632)" fill="#efb0ac"/>
        </g>
        <path id="Trazado_88470" data-name="Trazado 88470" d="M649.706,1032.77s-2.87,1.767-2.706,2.758c.122.741,3.992.377,5.94.146a1.134,1.134,0,0,0,1-1.228l-.146-1.62Z" transform="translate(-638.217 -956.052)" fill="#262e4c"/>
        <path id="Trazado_88471" data-name="Trazado 88471" d="M652.261,897.01s-5.057-1.882-5.584,2.577c-2.443,20.632.692,33.636.692,33.636s6.671-.474,6.706-.673c3.271-23.413,7.526-24.028,6.056-30.284C657.91,892.821,652.261,897.01,652.261,897.01Z" transform="translate(-637.338 -859.732)" fill="#006075"/>
        <g id="Grupo_51471" data-name="Grupo 51471" transform="translate(19.455 55.914)">
          <path id="Trazado_88472" data-name="Trazado 88472" d="M683.155,962.678c1.6,10.618,3.046,19.725,2.945,20.569-.134,1.109,2.632,2.4,4,.725-.3-6.089-.4-13.971-.406-21.65Z" transform="translate(-683.155 -962.322)" fill="#efb0ac"/>
        </g>
        <path id="Trazado_88473" data-name="Trazado 88473" d="M691.282,1030.709l-4.071.383s-2.664,2.065-2.395,3.033c.2.724,4.009-.053,5.922-.492a1.135,1.135,0,0,0,.863-1.329Z" transform="translate(-664.857 -954.6)" fill="#262e4c"/>
        <path id="Trazado_88474" data-name="Trazado 88474" d="M670.088,895.248s-1.938-.774-1.368,3.68c2.638,20.608,5.314,32.112,5.314,32.112s6.686-.365,6.671-.566c1.024-11.588,1.237-26.325-1.708-32.036C674.552,889.813,670.088,895.248,670.088,895.248Z" transform="translate(-653.454 -857.952)" fill="#006d84"/>
        <g id="Grupo_51472" data-name="Grupo 51472" transform="translate(5.689 15.422)">
          <path id="Trazado_88475" data-name="Trazado 88475" d="M651.709,825.8a44.378,44.378,0,0,0-4.283,1.263c-2.066.744-5.228-1.857-5.228-1.857s-4.57,2.642-4.877,5.865c0,1.209-2.576,21.16,1.634,23.745,1.668,1.288,10.876,5.206,18.832-.283,3.734-.22.3-23.354-2.4-27.007C654.468,825.732,651.709,825.8,651.709,825.8Z" transform="translate(-636.541 -825.209)" fill="#6bc3dc"/>
        </g>
        <g id="Grupo_51474" data-name="Grupo 51474" transform="translate(10.148)">
          <g id="Grupo_51473" data-name="Grupo 51473" transform="translate(0 3.581)">
            <path id="Trazado_88476" data-name="Trazado 88476" d="M653.334,786.73s-4.793,8.864,1.752,12.641c4.386,2.531,10.435-2.62,10.327-8.325S656.231,783.427,653.334,786.73Z" transform="translate(-651.641 -785.113)" fill="#efb0ac"/>
          </g>
          <path id="Trazado_88477" data-name="Trazado 88477" d="M669.318,793.239a.274.274,0,0,0,.049-.033Z" transform="translate(-664.098 -787.235)" fill="#262e4c"/>
          <path id="Trazado_88478" data-name="Trazado 88478" d="M668.051,777.063c-.527-.009-.548.97-.548.97s-3.955-4.317-6.843-4.94-.123,1.712-.123,1.712A10.671,10.671,0,0,0,656,773.09c-2.022-.036-.131,2.039-.131,2.039a2.6,2.6,0,0,0-2.628-.455c-1.42.628.923,2.14.923,2.14s-3.5,3.367-.237,2.935a12.063,12.063,0,0,0,3.565-.758l.049-.033a.267.267,0,0,1-.049.033c-.242.167-1.3.974-.219,1.576a8.219,8.219,0,0,0,4.636-1.456s-1.161,1.1-.011,1.536c2.992-.109,3.1-.555,3.1-.555a25.59,25.59,0,0,1,.273,6.206C668.484,783.906,668.578,777.072,668.051,777.063Z" transform="translate(-652.273 -772.987)" fill="#262e4c"/>
          <path id="Trazado_88479" data-name="Trazado 88479" d="M689.531,804.881s-1.276,4.558.291,4.133,2.158-3.239,1.831-4.094C691.118,803.515,689.531,804.881,689.531,804.881Z" transform="translate(-677.997 -795.042)" fill="#efb0ac"/>
        </g>
        <path id="Trazado_88480" data-name="Trazado 88480" d="M691.4,833.488c-1.792-1.6-2.9-2.131-4.66-.509-3.165,2.909,2.606,6.088,4.731,9.909,2.918,5.249,5.034,10.268,4.447,12-1.9,5.626.582,5.013,1.1,4.815,2.308-.888,2.18-3.181,2.175-5.038C700.945,843.473,695.28,836.957,691.4,833.488Z" transform="translate(-665.572 -814.568)" fill="#efb0ac"/>
        <path id="Trazado_88481" data-name="Trazado 88481" d="M686.579,829.262c-.2-.058-3.9,1.668-3.651,4.166.384,3.925,5.051,9.286,6.694,9.033,2.687-.413,5.4-4.963,4.636-5.982C691.2,829.858,686.579,829.262,686.579,829.262Z" transform="translate(-663.532 -812.642)" fill="#6bc3dc"/>
      </g>
      <g id="Grupo_51519" data-name="Grupo 51519" transform="translate(588.471 655.54)">
        <g id="Grupo_51476" data-name="Grupo 51476" transform="translate(1.183 37.949)">
          <path id="Trazado_88482" data-name="Trazado 88482" d="M1833.954,803.638c-.927.018-2.892-1.889-4-2.087-1.426-.255-2.42,2.369-2.387,3.779a24.251,24.251,0,0,0,3.683,13.386c.811,4.159,2.4,5.371,5.1,4.519,2.2-.694-.451-3.573-1.058-4.619C1834.182,817.473,1833.076,813.076,1833.954,803.638Z" transform="translate(-1827.567 -801.535)" fill="#efb0ac"/>
        </g>
        <g id="Grupo_51478" data-name="Grupo 51478" transform="translate(0.767 19.317)">
          <g id="Grupo_51477" data-name="Grupo 51477">
            <path id="Trazado_88483" data-name="Trazado 88483" d="M1839.949,741.151c-.744-2.484-2.814-2.956-4.827-2.605a7.582,7.582,0,0,0-5.359,4.059c-4.369,8.466-3.62,17.109-3.447,17.239,1.59,1.194,7.7.668,7.338-.268C1836.124,746.954,1841.162,745.2,1839.949,741.151Z" transform="translate(-1826.159 -738.443)" fill="#66b9d0"/>
          </g>
        </g>
        <g id="Grupo_51480" data-name="Grupo 51480" transform="translate(0 39.719)">
          <g id="Grupo_51479" data-name="Grupo 51479">
            <path id="Trazado_88484" data-name="Trazado 88484" d="M1823.664,807.867c-.506,1.77,1.015,3.846,1.015,3.846,2.669.641,6.452-2.1,7-2.509s.729-.656.384-1.554C1829.966,808.226,1824.494,806.957,1823.664,807.867Z" transform="translate(-1823.561 -807.527)" fill="#66b9d0"/>
          </g>
        </g>
        <g id="Grupo_51482" data-name="Grupo 51482" transform="translate(7.175 76.63)">
          <g id="Grupo_51481" data-name="Grupo 51481">
            <path id="Trazado_88485" data-name="Trazado 88485" d="M1849.505,962.049c-.979.455,1.854,3.365,3.484,1.714.186-8.841.942-20.751,1.724-31.248a63.318,63.318,0,0,1-6.854.291C1848.875,947.411,1850.085,961.78,1849.505,962.049Z" transform="translate(-1847.859 -932.516)" fill="#efb0ac"/>
          </g>
        </g>
        <g id="Grupo_51484" data-name="Grupo 51484" transform="translate(18.8 73.499)">
          <g id="Grupo_51483" data-name="Grupo 51483">
            <path id="Trazado_88486" data-name="Trazado 88486" d="M1894.152,922.252c-2.313-.182-4.622-.273-6.929-.337,2.764,15.52,6.052,32.027,5.461,32.385-.923.559,2.211,3.142,3.65,1.323-.852-9.6-1.108-22.453-1.147-33.155C1894.842,922.395,1894.5,922.317,1894.152,922.252Z" transform="translate(-1887.223 -921.915)" fill="#efb0ac"/>
          </g>
        </g>
        <g id="Grupo_51486" data-name="Grupo 51486" transform="translate(20.849 105.316)">
          <g id="Grupo_51485" data-name="Grupo 51485">
            <path id="Trazado_88487" data-name="Trazado 88487" d="M1901.035,1029.653l-3.413.346s-3.747,2.409-3.446,3.443c.225.772,4.281-.133,6.317-.64a1.224,1.224,0,0,0,.9-1.442Z" transform="translate(-1894.159 -1029.653)" fill="#1f253c"/>
          </g>
        </g>
        <g id="Grupo_51488" data-name="Grupo 51488" transform="translate(16.112 48.946)">
          <g id="Grupo_51487" data-name="Grupo 51487">
            <path id="Trazado_88488" data-name="Trazado 88488" d="M1891.132,840.287s-10.724-3.251-13.013-.229a294.827,294.827,0,0,0,6.621,53.7c.137.2,4.29-.068,6.4-.335C1890.926,891.37,1891.132,840.287,1891.132,840.287Z" transform="translate(-1878.119 -838.771)" fill="#1f253c"/>
          </g>
        </g>
        <g id="Grupo_51490" data-name="Grupo 51490" transform="translate(5.088 105.948)">
          <g id="Grupo_51489" data-name="Grupo 51489">
            <path id="Trazado_88489" data-name="Trazado 88489" d="M1848.029,1031.824l-3.43-.029s-3.988,1.984-3.8,3.045c.139.792,4.27.336,6.35.055a1.224,1.224,0,0,0,1.056-1.335Z" transform="translate(-1840.791 -1031.795)" fill="#1f253c"/>
          </g>
        </g>
        <g id="Grupo_51492" data-name="Grupo 51492" transform="translate(5.963 48.355)">
          <g id="Grupo_51491" data-name="Grupo 51491">
            <path id="Trazado_88490" data-name="Trazado 88490" d="M1844.107,837.974a381.19,381.19,0,0,0,1.528,54.248c.108.214,3.7,0,5.824-.088-.063-1.784,7.118-53.966,7.118-53.966S1846.779,835.161,1844.107,837.974Z" transform="translate(-1843.753 -836.772)" fill="#1f253c"/>
          </g>
        </g>
        <g id="Grupo_51495" data-name="Grupo 51495" transform="translate(10.743 6.743)">
          <g id="Grupo_51494" data-name="Grupo 51494">
            <g id="Grupo_51493" data-name="Grupo 51493">
              <path id="Trazado_88491" data-name="Trazado 88491" d="M1868.775,695.866s-5.33,3.357-5.68,2.486c-.178,7.359-2.7,9.892-3.155,10.276,1.487,2.438,15.747.651,14.854-1.317C1872.594,705.868,1868.775,695.866,1868.775,695.866Z" transform="translate(-1859.94 -695.866)" fill="#d79f9c"/>
            </g>
          </g>
        </g>
        <g id="Grupo_51496" data-name="Grupo 51496" transform="translate(3.252 14.431)">
          <path id="Trazado_88492" data-name="Trazado 88492" d="M1853.8,721.9c-5.926,7.227-9.511,1.626-9.511,1.626s-6.337,3.359-6.487,4.823c-.722,7.021-7.2,26.677.538,32.365a30.661,30.661,0,0,0,22.245-1.642c2.916-9.862,3.958-30.59,2.77-32.777C1861.253,722.428,1853.8,721.9,1853.8,721.9Z" transform="translate(-1834.573 -721.899)" fill="#6bc3dc"/>
        </g>
        <path id="Trazado_88493" data-name="Trazado 88493" d="M1900.233,723.864s-6.186,27.449-3.819,39.038c.265.942,1.834-.148,1.834-.148s-1.88-10.2,3.763-38.364C1902.168,724.183,1900.233,723.864,1900.233,723.864Z" transform="translate(-1874.52 -708.852)" fill="#1f253c"/>
        <path id="Trazado_88494" data-name="Trazado 88494" d="M1846.678,735.158c.057-.018-1.158.918-1.158.918s-4.244,28.049.311,33.832c.52.976,1.555.334,1.555.334S1844.074,765.436,1846.678,735.158Z" transform="translate(-1837.769 -716.811)" fill="#1f253c"/>
        <path id="Trazado_88495" data-name="Trazado 88495" d="M1863.7,736.491l-2.479-1.91-1.831,1.748.95,1.88s-3.235,19.865-2.048,27.7a13.044,13.044,0,0,0,3.439,3.293l1.146-4.382s-1.2-25.128-.661-26.279C1862.2,738.455,1863.7,736.491,1863.7,736.491Z" transform="translate(-1847.852 -716.404)" fill="#00657a"/>
        <g id="Grupo_51497" data-name="Grupo 51497" transform="translate(10.026 13.296)">
          <path id="Trazado_88496" data-name="Trazado 88496" d="M1860.542,720.491a13.34,13.34,0,0,0-2.613.644c-1.27,1.778.769,4.509.769,4.509l2.368-2.238s2.239,2.953,2.166,2.92c4.859-1.134,8.927-7.077,8.927-7.077s-2.189-1.234-2.295-1.194C1864,725.063,1860.542,720.491,1860.542,720.491Z" transform="translate(-1857.512 -718.053)" fill="#95d2df"/>
        </g>
        <path id="Trazado_88497" data-name="Trazado 88497" d="M1842.927,847.913l.4,1.382a30.987,30.987,0,0,0,22.569-.342,4.469,4.469,0,0,0,.6-1.575S1858.1,851.332,1842.927,847.913Z" transform="translate(-1837.208 -795.891)" fill="#262e4c"/>
        <g id="Grupo_51498" data-name="Grupo 51498" transform="translate(25.358 38.012)">
          <path id="Trazado_88498" data-name="Trazado 88498" d="M1918.188,801.753c-1.119.115-3.219,1.873-4.142,1.786.18,9.477-1.247,13.78-2.438,14.839-.683,1-3.538,3.674-1.4,4.529,2.628,1.048,4.3-.044,5.419-4.131a24.253,24.253,0,0,0,4.659-13.079C1920.427,804.294,1919.629,801.6,1918.188,801.753Z" transform="translate(-1909.428 -801.747)" fill="#efb0ac"/>
        </g>
        <g id="Grupo_51500" data-name="Grupo 51500" transform="translate(28.777 17.702)">
          <g id="Grupo_51499" data-name="Grupo 51499">
            <path id="Trazado_88499" data-name="Trazado 88499" d="M1924.449,733.513c-1.8-.969-2.929-.83-3.32,2.1-.558,4.187.988,6.544.675,19.4-.56.835,5.57,3.1,7.38,2.273.2-.09,2.521-8.794.083-18A9.7,9.7,0,0,0,1924.449,733.513Z" transform="translate(-1921.007 -732.974)" fill="#78c7dd"/>
          </g>
        </g>
        <g id="Grupo_51502" data-name="Grupo 51502" transform="translate(29.242 39.096)">
          <g id="Grupo_51501" data-name="Grupo 51501">
            <path id="Trazado_88500" data-name="Trazado 88500" d="M1922.812,805.419c-.531.8-.043,2.8.4,3.308a11.5,11.5,0,0,0,6.4,2.294,9.041,9.041,0,0,0,1.123-4.052C1930.118,805.9,1924.733,806.433,1922.812,805.419Z" transform="translate(-1922.58 -805.419)" fill="#95d2df"/>
          </g>
        </g>
        <g id="Grupo_51518" data-name="Grupo 51518" transform="translate(10.267)">
          <g id="Grupo_51505" data-name="Grupo 51505" transform="translate(0.517)">
            <g id="Grupo_51504" data-name="Grupo 51504">
              <g id="Grupo_51503" data-name="Grupo 51503">
                <path id="Trazado_88501" data-name="Trazado 88501" d="M1863.9,673.277c-1.769.365-2.962,1.631-3.56,5-.568,3.2-.487,10.012,2.93,11.679,4.536,2.213,10.195-3.657,9.673-10.3S1867.306,672.574,1863.9,673.277Z" transform="translate(-1860.076 -673.031)" fill="#efb0ac"/>
              </g>
            </g>
          </g>
          <g id="Grupo_51506" data-name="Grupo 51506" transform="translate(10.53 0.971)">
            <path id="Trazado_88502" data-name="Trazado 88502" d="M1894.214,676.484c.549.914-.27,1.107-.227,2.884a12.975,12.975,0,0,0,1,3.98,30.783,30.783,0,0,0,1.3,2.908C1899.391,678.439,1893.665,675.57,1894.214,676.484Z" transform="translate(-1893.985 -676.32)" fill="#e1e1e1"/>
          </g>
          <g id="Grupo_51507" data-name="Grupo 51507" transform="translate(0.089 0.671)">
            <path id="Trazado_88503" data-name="Trazado 88503" d="M1859.194,681.13s.729-1.605,1.113-2.635.77-2.7,1.449-3.106S1856.888,675.9,1859.194,681.13Z" transform="translate(-1858.63 -675.303)" fill="#e1e1e1"/>
          </g>
          <g id="Grupo_51508" data-name="Grupo 51508" transform="translate(0 7.188)">
            <path id="Trazado_88504" data-name="Trazado 88504" d="M1862.683,697.732a8.539,8.539,0,0,0-1.773-.267c-.654-.051-1.322-.079-1.767-.093a.715.715,0,0,0-.731.623,5.9,5.9,0,0,0-.044,1.611c.138.729,1.847.919,2.367.96a3.033,3.033,0,0,0,.961-.034,3.51,3.51,0,0,0,1.23-2.109.652.652,0,0,0-.18-.659Zm-.251.861a3.321,3.321,0,0,1-.893,1.522,2.809,2.809,0,0,1-.77.007c-1.107-.087-1.924-.385-1.964-.6a5.315,5.315,0,0,1,.047-1.469.271.271,0,0,1,.276-.237c.44.014,1.1.041,1.746.092a8.672,8.672,0,0,1,1.608.227A.911.911,0,0,1,1862.432,698.593Z" transform="translate(-1858.327 -697.372)" fill="#1f253c"/>
          </g>
          <g id="Grupo_51509" data-name="Grupo 51509" transform="translate(5.428 7.656)">
            <path id="Trazado_88505" data-name="Trazado 88505" d="M1880.782,699.133c-.24-.022-.534-.048-.853-.073a15.511,15.511,0,0,0-2.878-.06l-.065.021a.536.536,0,0,0-.273.472,4.178,4.178,0,0,0,.891,2.415,2.417,2.417,0,0,0,1.027.24c.237.019,2.317.16,2.6-.6a7.6,7.6,0,0,0,.3-1.478.835.835,0,0,0-.179-.63A.821.821,0,0,0,1880.782,699.133Zm.032,2.257c-.081.216-1.036.4-2.147.312a2.247,2.247,0,0,1-.792-.15,4.215,4.215,0,0,1-.718-1.863.575.575,0,0,1,.022-.257,16.794,16.794,0,0,1,2.715.072c.316.025.608.051.847.073a.379.379,0,0,1,.263.141.391.391,0,0,1,.083.3A6.839,6.839,0,0,1,1880.813,701.39Z" transform="translate(-1876.708 -698.956)" fill="#1f253c"/>
          </g>
          <g id="Grupo_51510" data-name="Grupo 51510" transform="translate(4.321 7.601)">
            <path id="Trazado_88506" data-name="Trazado 88506" d="M1872.958,698.805l.087.437a2.344,2.344,0,0,1,1.137.114l.155-.418A2.772,2.772,0,0,0,1872.958,698.805Z" transform="translate(-1872.958 -698.771)" fill="#1f253c"/>
          </g>
          <g id="Grupo_51511" data-name="Grupo 51511" transform="translate(9.762 7.493)">
            <path id="Trazado_88507" data-name="Trazado 88507" d="M1891.383,698.947l.189.4a3.909,3.909,0,0,1,2-.467l.145-.422A4.338,4.338,0,0,0,1891.383,698.947Z" transform="translate(-1891.383 -698.405)" fill="#1f253c"/>
          </g>
          <g id="Grupo_51514" data-name="Grupo 51514" transform="translate(10.647 7.571)">
            <g id="Grupo_51513" data-name="Grupo 51513">
              <g id="Grupo_51512" data-name="Grupo 51512">
                <path id="Trazado_88508" data-name="Trazado 88508" d="M1894.381,699.347l1.128,2.921s1.164-2.183.927-3.019C1896.05,697.888,1894.381,699.347,1894.381,699.347Z" transform="translate(-1894.381 -698.669)" fill="#efb0ac"/>
              </g>
            </g>
          </g>
          <g id="Grupo_51517" data-name="Grupo 51517" transform="translate(0.45 8.824)">
            <g id="Grupo_51516" data-name="Grupo 51516">
              <g id="Grupo_51515" data-name="Grupo 51515">
                <path id="Trazado_88509" data-name="Trazado 88509" d="M1868.872,705.048c-1.654,2.1-3.378,1.288-4.419.543a.845.845,0,0,0-.579-.15c-.084.01-.222.018-.35.024a.7.7,0,0,0-.456.183,1.982,1.982,0,0,1-2.915-.42c-1.586,5.933,3.423,8.159,6.77,6.945,5.451-1.978,3-9.263,3-9.263A6.7,6.7,0,0,1,1868.872,705.048Z" transform="translate(-1859.851 -702.911)" fill="#e1e1e1"/>
              </g>
            </g>
          </g>
        </g>
      </g>
      <g id="Grupo_51533" data-name="Grupo 51533" transform="translate(470.52 652.582)">
        <path id="Trazado_88510" data-name="Trazado 88510" d="M1434.368,744.579l-6.378-2.609s-3.149,10.11-3.658,14.312a26.08,26.08,0,0,0,2.1,13.454,6.686,6.686,0,0,0,1.279,3.982c.739.974,4.005.521,3.423-.488-.726-1.258-.985-1.665-.985-1.665s1.686,1.709,1.59.487c-.064-.806-1.663-2.393-2.177-2.939-.326-1.594-.762-8.32.458-12.345C1431.887,750.631,1434.368,744.579,1434.368,744.579Z" transform="translate(-1424.157 -718.654)" fill="#efb0ac"/>
        <g id="Grupo_51520" data-name="Grupo 51520" transform="translate(6.834 97.171)">
          <path id="Trazado_88511" data-name="Trazado 88511" d="M1447.3,992.243c.79,6.809,1.325,11.844,1.02,12-.8.414,1.665,2.727,2.957,1.3-.093-4.007-.019-8.683.147-13.468C1450.043,992.012,1448.673,992.174,1447.3,992.243Z" transform="translate(-1447.299 -992.059)" fill="#efb0ac"/>
        </g>
        <g id="Grupo_51521" data-name="Grupo 51521" transform="translate(4.359 109.079)">
          <path id="Trazado_88512" data-name="Trazado 88512" d="M1442.4,1032.381s-3.633,1.773-3.472,2.737c.121.72,3.874.335,5.763.094a1.111,1.111,0,0,0,.968-1.2l-.145-1.577Z" transform="translate(-1438.917 -1032.381)" fill="#262e4c"/>
        </g>
        <g id="Grupo_51522" data-name="Grupo 51522" transform="translate(22.366 96.666)">
          <path id="Trazado_88513" data-name="Trazado 88513" d="M1499.894,991.165c1.853,6.6,3.175,11.487,2.9,11.692-.722.535,2.074,2.431,3.124.813-.724-3.942-1.388-8.572-1.978-13.323C1502.568,990.505,1501.24,990.881,1499.894,991.165Z" transform="translate(-1499.894 -990.347)" fill="#efb0ac"/>
        </g>
        <g id="Grupo_51523" data-name="Grupo 51523" transform="translate(22.186 108.463)">
          <path id="Trazado_88514" data-name="Trazado 88514" d="M1505.385,1030.3l-3.082.441s-3.309,2.324-3,3.25c.233.692,3.878-.28,5.706-.816a1.111,1.111,0,0,0,.766-1.342Z" transform="translate(-1499.285 -1030.295)" fill="#262e4c"/>
        </g>
        <g id="Grupo_51524" data-name="Grupo 51524" transform="translate(4.544 47.214)">
          <path id="Trazado_88515" data-name="Trazado 88515" d="M1439.7,826.458s-.842,31.958,1.357,54.438c-.19.166,3.776.535,6,.459.056-.567,2.983-40.028,2.983-40.028s6.559,35.974,8.447,40.417a47.124,47.124,0,0,0,5.3-.636c-.361-7.629-1.317-36.149-3.344-58.211C1461.167,822.768,1439.7,826.458,1439.7,826.458Z" transform="translate(-1439.544 -822.893)" fill="#262e4c"/>
        </g>
        <g id="Grupo_51525" data-name="Grupo 51525" transform="translate(9.109 8.395)">
          <path id="Trazado_88516" data-name="Trazado 88516" d="M1464.875,691.442s-5.977,2.241-6.185,1.472c-.888,6.184-3.269,8.065-3.689,8.344,1.008,2.2,13.2,2.129,12.65.38C1464.651,697.492,1464.875,691.442,1464.875,691.442Z" transform="translate(-1455.001 -691.442)" fill="#d79f9c"/>
        </g>
        <g id="Grupo_51526" data-name="Grupo 51526" transform="translate(9.964 3.366)">
          <path id="Trazado_88517" data-name="Trazado 88517" d="M1458.869,675.8s-2.578,9.214.666,11.455,8.493-2.728,8.183-7.6S1461.037,672.873,1458.869,675.8Z" transform="translate(-1457.897 -674.415)" fill="#efb0ac"/>
        </g>
        <g id="Grupo_51527" data-name="Grupo 51527" transform="translate(9.424)">
          <path id="Trazado_88518" data-name="Trazado 88518" d="M1457.872,663.114c-1.438.294-2.878,1.822-.66,6.679a3.175,3.175,0,0,1,1.2-2.456s4.134-.675,6.474,2.115a18.789,18.789,0,0,1,.964,5.626,11.923,11.923,0,0,0,.591-9.357C1464.805,663.058,1459.31,662.82,1457.872,663.114Z" transform="translate(-1456.067 -663.016)" fill="#262e4c"/>
        </g>
        <g id="Grupo_51528" data-name="Grupo 51528" transform="translate(9.664 10.023)">
          <path id="Trazado_88519" data-name="Trazado 88519" d="M1463.865,698.651c-1,1.715-2.727.786-3.447.073a.606.606,0,0,0-.428-.175c-.065,0-.172,0-.271-.01a.522.522,0,0,0-.369.113,1.322,1.322,0,0,1-2.062-.6c-1.466,3.752,1.284,6.854,3.98,6.128,4.389-1.183,3.634-7.22,3.634-7.22A19.239,19.239,0,0,0,1463.865,698.651Z" transform="translate(-1456.88 -696.955)" fill="#262e4c"/>
        </g>
        <g id="Grupo_51529" data-name="Grupo 51529" transform="translate(18.453 7.541)">
          <path id="Trazado_88520" data-name="Trazado 88520" d="M1486.644,688.656l.142,3.123s1.124-1.725,1.03-2.444A.774.774,0,0,0,1486.644,688.656Z" transform="translate(-1486.644 -688.553)" fill="#efb0ac"/>
        </g>
        <g id="Grupo_51530" data-name="Grupo 51530" transform="translate(3.288 16.788)">
          <path id="Trazado_88521" data-name="Trazado 88521" d="M1452.839,719.881c-.771,2.076-8.1,3.311-10.737-.009,0,0-4.42.728-5.626,3.585-.823-.106.813,15.59-.3,21.638s-1.455,11.2.681,14c.53,1.135,14.411,5.567,20.3.81,1.68-.979,3.162-4.263,3.017-11.293-.082-4.01.637-25.319.637-25.319S1455.722,719.584,1452.839,719.881Z" transform="translate(-1435.289 -719.864)" fill="#006d84"/>
        </g>
        <g id="Grupo_51531" data-name="Grupo 51531" transform="translate(0.089 19.089)">
          <path id="Trazado_88522" data-name="Trazado 88522" d="M1424.458,739.993a8.694,8.694,0,0,0,6.053,3.594c2.094.306-.122-13.93-.806-15.93C1429.705,727.656,1426.408,729.59,1424.458,739.993Z" transform="translate(-1424.458 -727.656)" fill="#00687e"/>
        </g>
        <path id="Trazado_88523" data-name="Trazado 88523" d="M1465.692,719.178c-4.889,4.2-10.537-.024-10.537-.024s-1.59.338-1.374.566c8.449,7.082,13.406-.322,13.406-.322A5.563,5.563,0,0,0,1465.692,719.178Z" transform="translate(-1445.019 -702.576)" fill="#007690"/>
        <path id="Trazado_88524" data-name="Trazado 88524" d="M1506.043,761.99a74,74,0,0,1,2.793,12.318c.509,4.193-1.908,10.612-2.617,12.064-.63.388-2.566,1.488-2.827,2.25-.4,1.155,1.654-.038,1.654-.038s-.351.323-1.362,1.342c-.811.817,2.227,2.145,3.18,1.4,1.264-.982,1.563-2.3,1.972-3.62a26.052,26.052,0,0,0,5.172-12.469c.55-4.2-1.807-13.985-1.807-13.985Z" transform="translate(-1479.958 -732.244)" fill="#efb0ac"/>
        <g id="Grupo_51532" data-name="Grupo 51532" transform="translate(24.702 19.747)">
          <path id="Trazado_88525" data-name="Trazado 88525" d="M1510.918,729.9c-1.3-.227-2.945,2.581-3.1,6.544-.156,3.917,1.32,10.135,2.54,10.3,2.456.335,7.206-2.163,7.095-3.841C1515.3,731.083,1510.918,729.9,1510.918,729.9Z" transform="translate(-1507.803 -729.886)" fill="#007690"/>
        </g>
      </g>
      <g id="Grupo_51543" data-name="Grupo 51543" transform="translate(689.882 665.951)">
        <path id="Trazado_88526" data-name="Trazado 88526" d="M2275.745,747.059c.25-2.986,2.141-5.555,3.095-8.4,1.672-4.98.3-10.64-2.694-14.956s-7.439-7.438-12.122-9.819c-10.506-5.342-22.988-7.3-34.287-3.949s-21.083,12.42-23.921,23.859c-1.86,7.495-.768,15.361-.966,23.081s-2.129,16.115-8.265,20.8c-6.6,5.046-17.183,5.159-21,12.544-3.254,6.3.643,14.039-.7,21-1.364,7.056-7.986,12.634-7.924,19.82.042,4.807,3.249,9.159,7.293,11.757s8.843,3.723,13.571,4.6c19.013,3.511,39.4,3.486,56.821-4.9s33.635-18.828,32.282-38.115c7.473-.264,12.2-8.82,15.112-15.7s1.243-19.5-3.767-25.048C2283.456,758.289,2275.145,754.227,2275.745,747.059Z" transform="translate(-2166.962 -708.286)" fill="#1f253c"/>
        <path id="Trazado_88527" data-name="Trazado 88527" d="M2225.629,1211.346c3.556,5.333,4.258-145.467,4.258-145.467s-19.667,51.831-19.667,75.536S2222.074,1206.012,2225.629,1211.346Z" transform="translate(-2197.446 -960.276)" fill="#efb0ac"/>
        <path id="Trazado_88528" data-name="Trazado 88528" d="M2211.064,1117.559c-1.185,10.667,13.63,18.964,19.853,18.964s-1.482-76.746-1.482-76.746S2212.25,1106.891,2211.064,1117.559Z" transform="translate(-2197.993 -955.976)" fill="#cee5ec"/>
        <g id="Grupo_51534" data-name="Grupo 51534" transform="translate(73.976 283.89)">
          <path id="Trazado_88529" data-name="Trazado 88529" d="M2417.543,1676.715c-.429,8.721.834,24.188,3.1,43.4h48.307c.434-10.75.737-17.029.737-17.029S2418.805,1651.037,2417.543,1676.715Z" transform="translate(-2417.46 -1669.597)" fill="#efb0ac"/>
        </g>
        <g id="Grupo_51535" data-name="Grupo 51535" transform="translate(45.095 283.131)">
          <path id="Trazado_88530" data-name="Trazado 88530" d="M2320.261,1673.784c-.993,8.827-.677,24.737.422,44.525h48.366c.986-9.461,1.6-14.924,1.6-14.924S2323.136,1648.237,2320.261,1673.784Z" transform="translate(-2319.664 -1667.03)" fill="#efb0ac"/>
        </g>
        <path id="Trazado_88531" data-name="Trazado 88531" d="M2312.364,1527.846s-3.764,45.239-5.908,87.772h89.383c-4.8-44.6-10.456-94.315-10.456-94.315S2316.735,1539.807,2312.364,1527.846Z" transform="translate(-2265.262 -1281.207)" fill="#262e4c"/>
        <g id="Grupo_51536" data-name="Grupo 51536" transform="translate(51.417 28.586)">
          <path id="Trazado_88532" data-name="Trazado 88532" d="M2385.565,851.807c-4.513-17.737-2.707-40.43-2.707-40.43s-25.47-12.37-22.7-2.425c2.064,7.408-.328,29.7-1.683,40.593a16.486,16.486,0,0,1-4.677,9.675c-4.886,4.867-22.2,11.2-5.858,17.731,9.932,3.968,63.347-2.194,53.656-12.276C2398.7,861.663,2387.489,859.366,2385.565,851.807Z" transform="translate(-2341.071 -805.084)" fill="#d79f9c"/>
        </g>
        <g id="Grupo_51537" data-name="Grupo 51537" transform="translate(51.829 16.252)">
          <path id="Trazado_88533" data-name="Trazado 88533" d="M2377.941,766.4c-14.428-8.1-29.657.626-34.7,16.383-2.424,7.573.75,31.443,10.719,36.172,17.46,8.285,35.659-12.624,34.319-35.583C2387.8,775.169,2383.605,769.575,2377.941,766.4Z" transform="translate(-2342.466 -763.32)" fill="#efb0ac"/>
        </g>
        <path id="Trazado_88534" data-name="Trazado 88534" d="M2341.177,991.461c-26.946,24.574-46.188,2.483-46.188,2.483s-15.717,5.5-23.435,18.537c-6.986,11.8.834,30.837.681,38.57-.321,16.278-3.123,119.815,5.05,118.28,24.855,12.7,94.235-.5,96.3-1.821,2.993-14.19-2.338-152.386-8.256-162S2341.177,991.461,2341.177,991.461Z" transform="translate(-2238.619 -907.835)" fill="#6bc3dc"/>
        <path id="Trazado_88535" data-name="Trazado 88535" d="M2501.546,980.285c-11.139,19.455,5.006,181.563,12.9,254.086h36.53c-8.089-72.44-19.218-232.7-21.025-237.921C2527.7,989.96,2501.546,980.285,2501.546,980.285Z" transform="translate(-2400.063 -899.96)" fill="#d6edf4"/>
        <path id="Trazado_88536" data-name="Trazado 88536" d="M2253.073,1015.146c-3.156,3.685-6.27,163.547-7.427,229.7h34.289l2.708-249.7S2262.9,998.377,2253.073,1015.146Z" transform="translate(-2222.41 -910.433)" fill="#d6edf4"/>
        <g id="Grupo_51538" data-name="Grupo 51538" transform="translate(19.183 162.175)">
          <path id="Trazado_88537" data-name="Trazado 88537" d="M2298.068,1298.542a8.19,8.19,0,0,0-7.944-3.908l-46.613,5.091a8.021,8.021,0,0,0-6.387,11.674l36.919,69.418a8.186,8.186,0,0,0,8.384,4.2l49.781-7.005a8.008,8.008,0,0,0,5.947-11.967Z" transform="translate(-2234.933 -1283.617)" fill="#262e4c"/>
          <path id="Trazado_88538" data-name="Trazado 88538" d="M2293.794,1301.126a8.2,8.2,0,0,0-7.938-3.854l-46.613,5.09a7.94,7.94,0,0,0-6.4,11.548l36.83,68.581a8.19,8.19,0,0,0,8.378,4.142l49.783-6.985a7.921,7.921,0,0,0,5.961-11.837Z" transform="translate(-2231.92 -1285.475)" fill="#2b3558"/>
          <path id="Trazado_88539" data-name="Trazado 88539" d="M2304.219,1278.407a1.873,1.873,0,0,0-1.792-.944l-16.17,1.4a1.873,1.873,0,0,0-1.55,2.626l3.479,7.837a1.873,1.873,0,0,0,1.909,1.1l16.9-1.8a1.873,1.873,0,0,0,1.432-2.784Z" transform="translate(-2269.004 -1271.547)" fill="#006d84"/>
          <path id="Trazado_88540" data-name="Trazado 88540" d="M2301.069,1305.58c-12.631,1.565-24.125,1.521-20.564,7.226.458-.021,35.65-3.759,35.65-3.759S2319.321,1303.319,2301.069,1305.58Z" transform="translate(-2265.694 -1290.993)" fill="#006d84"/>
          <path id="Trazado_88541" data-name="Trazado 88541" d="M2295.833,1257.709c-5.751,1.5.032,9.591.032,9.591l11.149-1.207S2303.659,1255.672,2295.833,1257.709Zm2.315,5.531a1.852,1.852,0,1,1,1.851-2.047A1.958,1.958,0,0,1,2298.148,1263.241Z" transform="translate(-2275.163 -1257.445)" fill="#006d84"/>
        </g>
        <g id="Grupo_51540" data-name="Grupo 51540" transform="translate(80.19 76.393)">
          <g id="Grupo_51539" data-name="Grupo 51539" transform="translate(7.452)">
            <path id="Trazado_88542" data-name="Trazado 88542" d="M2472.837,967.419c12.714,18.612-8.889,56.557-9.1,56.937l3.834,1.713c.876-1.589,20.238-39.6,6.918-59.1Z" transform="translate(-2463.739 -966.969)" fill="#262e4c"/>
          </g>
          <path id="Trazado_88543" data-name="Trazado 88543" d="M2449.93,1151.147c-4.471-1.943-9.368-.591-10.939,3.021s.781,8.116,5.252,10.061,9.368.592,10.938-3.021S2454.4,1153.092,2449.93,1151.147Z" transform="translate(-2438.503 -1096.131)" fill="#262e4c"/>
          <path id="Trazado_88544" data-name="Trazado 88544" d="M2450.894,1150.157c-4.473-1.943-9.369-.591-10.941,3.022s.781,8.115,5.252,10.061,9.369.59,10.939-3.022S2455.364,1152.1,2450.894,1150.157Z" transform="translate(-2439.182 -1095.433)" fill="#006d84"/>
          <path id="Trazado_88545" data-name="Trazado 88545" d="M2458.133,1151.88c-3.24-1.409-6.788-.429-7.926,2.188s.567,5.881,3.806,7.29,6.788.427,7.926-2.19S2461.373,1153.288,2458.133,1151.88Z" transform="translate(-2446.502 -1096.819)" fill="#262e4c"/>
          <path id="Trazado_88546" data-name="Trazado 88546" d="M2459.648,1149.008c-3.24-1.407-6.788-.428-7.926,2.19s.566,5.88,3.806,7.289,6.787.428,7.924-2.189S2462.888,1150.417,2459.648,1149.008Z" transform="translate(-2447.569 -1094.796)" fill="#262e4c"/>
        </g>
        <g id="Grupo_51541" data-name="Grupo 51541" transform="translate(43.264 82.032)">
          <path id="Trazado_88547" data-name="Trazado 88547" d="M2362.182,1198.286s-.337.85-.383.978a3.327,3.327,0,0,0,.834,2.026,2.943,2.943,0,0,0,3.674-.453c.844-1.108.508-1.544-.471-3.055S2363.884,1197.385,2362.182,1198.286Z" transform="translate(-2347.52 -1134.735)" fill="#262e4c"/>
          <path id="Trazado_88548" data-name="Trazado 88548" d="M2341.918,1112.35a6.856,6.856,0,0,1-3.335-4.218c-.776-2.651-3.74-26.828-2.469-33.134,0,0-.974-.271-1.185-.083s-.786.834-.786.834-.2,30.187,4.785,36.72a5.06,5.06,0,0,0,4.176,1.689c.47-.05,1.136-.941.88-1.342S2342.452,1112.587,2341.918,1112.35Z" transform="translate(-2328.035 -1048.629)" fill="#262e4c"/>
          <path id="Trazado_88549" data-name="Trazado 88549" d="M2314.9,1190.192c-1.313,1.129-1.744,1.436-1.211,2.774s2.6,2.052,3.411,1.634a3.046,3.046,0,0,0,1.3-1.67c-.014-.139-.125-1.064-.125-1.064C2316.868,1190.45,2316.212,1189.064,2314.9,1190.192Z" transform="translate(-2313.464 -1129.619)" fill="#262e4c"/>
          <path id="Trazado_88550" data-name="Trazado 88550" d="M2341.692,1083.447c-1.273,6.165-9.2,28.666-10.61,30.954a6.166,6.166,0,0,1-4.243,2.955c-.573.052-1.751-.531-2.1-.229s.07,1.372.509,1.574a4.853,4.853,0,0,0,4.423-.255c6.4-4.635,13.436-34.118,13.436-34.118a3.065,3.065,0,0,0-.261-.572C2342.694,1083.5,2341.692,1083.447,2341.692,1083.447Z" transform="translate(-2321.322 -1054.688)" fill="#262e4c"/>
          <path id="Trazado_88551" data-name="Trazado 88551" d="M2344.415,999.918c-.094-7.849,5.2-14.271,3.031-13.833-4.619,3.122-5.241,10.479-5.748,13.707-8.041,1.779-8.964,13.264-8.564,17.577a1.226,1.226,0,1,0,2.451-.088c.372-17.15,7.983-14.832,10.191-13.89,5.053,1.431,1.4,12.23,1.4,12.23-.2.974,1.175,2.251,1.884.913,1.714-3.236,2.513-9.966.687-13.016C2347.36,999.544,2344.431,1000.368,2344.415,999.918Z" transform="translate(-2327.27 -986.064)" fill="#262e4c"/>
        </g>
        <g id="Grupo_51542" data-name="Grupo 51542" transform="translate(43.471 111.123)">
          <path id="Trazado_88552" data-name="Trazado 88552" d="M2385.719,1111.987c.738,3.459,21.206,45.081,3.179,66.188-17.214,20.156-51.764,33.818-51.764,33.818s-29.668-6.779-21.569,8.394c5.825,10.911,20.946,5.226,27.343,4.781s44.173-11.573,70.777-39.719c24.236-25.64-9.576-100.866-9.576-100.866C2387.906,1083.948,2384.981,1108.528,2385.719,1111.987Z" transform="translate(-2314.164 -1084.571)" fill="#efb0ac"/>
        </g>
        <path id="Trazado_88553" data-name="Trazado 88553" d="M2543.546,1056.865c-1.771,25.555,11.293,64.349,11.293,64.349s21.852-1.773,33.173-17.2c-14.161-64.186-26.656-77.174-26.656-77.174C2553.937,1021.591,2545.086,1034.638,2543.546,1056.865Z" transform="translate(-2432.219 -931.952)" fill="#e3f3f5"/>
        <path id="Trazado_88554" data-name="Trazado 88554" d="M2374.215,742.339c-34.215-19.762-48.122,13.587-40.687,33.374-1.148-2.43,10.848-11.469,13.4-23.278,0,0,6.06,13.926,18.191,20.329a26.632,26.632,0,0,1,12.836,14.685c1.794,5.154,1.577,7.669,1.577,7.669S2408.429,762.1,2374.215,742.339Z" transform="translate(-2282.966 -728.023)" fill="#1f253c"/>
      </g>
      <g id="Grupo_51547" data-name="Grupo 51547" transform="translate(83.821 885.372)">
        <g id="Grupo_51544" data-name="Grupo 51544" transform="translate(0 0)">
          <path id="Trazado_88555" data-name="Trazado 88555" d="M118.065,1451.293h-2.876a.479.479,0,0,0,0,.959h2.876a.479.479,0,1,0,0-.959Z" transform="translate(-114.709 -1451.293)" fill="#6bc3dc"/>
        </g>
        <g id="Grupo_51545" data-name="Grupo 51545" transform="translate(8.676 0)">
          <path id="Trazado_88556" data-name="Trazado 88556" d="M778.829,1451.293h-5.8a.479.479,0,1,0,0,.959h5.8a.479.479,0,0,0,0-.959Z" transform="translate(-586.955 -1451.293)" fill="#6bc3dc"/>
          <path id="Trazado_88557" data-name="Trazado 88557" d="M700.271,1451.293h-5.8a.479.479,0,0,0,0,.959h5.8a.479.479,0,1,0,0-.959Z" transform="translate(-531.597 -1451.293)" fill="#6bc3dc"/>
          <path id="Trazado_88558" data-name="Trazado 88558" d="M739.55,1451.293h-5.8a.479.479,0,0,0,0,.959h5.8a.479.479,0,1,0,0-.959Z" transform="translate(-559.276 -1451.293)" fill="#6bc3dc"/>
          <path id="Trazado_88559" data-name="Trazado 88559" d="M621.713,1451.293h-5.8a.479.479,0,0,0,0,.959h5.8a.479.479,0,0,0,0-.959Z" transform="translate(-476.238 -1451.293)" fill="#6bc3dc"/>
          <path id="Trazado_88560" data-name="Trazado 88560" d="M660.992,1451.293h-5.8a.479.479,0,1,0,0,.959h5.8a.479.479,0,0,0,0-.959Z" transform="translate(-503.918 -1451.293)" fill="#6bc3dc"/>
          <path id="Trazado_88561" data-name="Trazado 88561" d="M975.223,1451.293h-5.8a.479.479,0,0,0,0,.959h5.8a.479.479,0,1,0,0-.959Z" transform="translate(-725.352 -1451.293)" fill="#6bc3dc"/>
          <path id="Trazado_88562" data-name="Trazado 88562" d="M1014.5,1451.293h-5.8a.479.479,0,0,0,0,.959h5.8a.479.479,0,1,0,0-.959Z" transform="translate(-753.031 -1451.293)" fill="#6bc3dc"/>
          <path id="Trazado_88563" data-name="Trazado 88563" d="M935.944,1451.293h-5.8a.479.479,0,1,0,0,.959h5.8a.479.479,0,0,0,0-.959Z" transform="translate(-697.672 -1451.293)" fill="#6bc3dc"/>
          <path id="Trazado_88564" data-name="Trazado 88564" d="M896.665,1451.293h-5.8a.479.479,0,0,0,0,.959h5.8a.479.479,0,0,0,0-.959Z" transform="translate(-669.993 -1451.293)" fill="#6bc3dc"/>
          <path id="Trazado_88565" data-name="Trazado 88565" d="M818.107,1451.293h-5.8a.479.479,0,1,0,0,.959h5.8a.479.479,0,1,0,0-.959Z" transform="translate(-614.634 -1451.293)" fill="#6bc3dc"/>
          <path id="Trazado_88566" data-name="Trazado 88566" d="M857.386,1451.293h-5.8a.479.479,0,0,0,0,.959h5.8a.479.479,0,1,0,0-.959Z" transform="translate(-642.314 -1451.293)" fill="#6bc3dc"/>
          <path id="Trazado_88567" data-name="Trazado 88567" d="M189.646,1451.293h-5.8a.479.479,0,0,0,0,.959h5.8a.479.479,0,0,0,0-.959Z" transform="translate(-171.767 -1451.293)" fill="#6bc3dc"/>
          <path id="Trazado_88568" data-name="Trazado 88568" d="M268.2,1451.293h-5.8a.479.479,0,1,0,0,.959h5.8a.479.479,0,1,0,0-.959Z" transform="translate(-227.125 -1451.293)" fill="#6bc3dc"/>
          <path id="Trazado_88569" data-name="Trazado 88569" d="M228.925,1451.293h-5.8a.479.479,0,1,0,0,.959h5.8a.479.479,0,0,0,0-.959Z" transform="translate(-199.446 -1451.293)" fill="#6bc3dc"/>
          <path id="Trazado_88570" data-name="Trazado 88570" d="M150.367,1451.293h-5.8a.479.479,0,0,0,0,.959h5.8a.479.479,0,1,0,0-.959Z" transform="translate(-144.088 -1451.293)" fill="#6bc3dc"/>
          <path id="Trazado_88571" data-name="Trazado 88571" d="M1053.781,1451.293h-5.8a.479.479,0,0,0,0,.959h5.8a.479.479,0,0,0,0-.959Z" transform="translate(-780.71 -1451.293)" fill="#6bc3dc"/>
          <path id="Trazado_88572" data-name="Trazado 88572" d="M307.482,1451.293h-5.8a.479.479,0,0,0,0,.959h5.8a.479.479,0,1,0,0-.959Z" transform="translate(-254.805 -1451.293)" fill="#6bc3dc"/>
          <path id="Trazado_88573" data-name="Trazado 88573" d="M425.319,1451.293h-5.8a.479.479,0,0,0,0,.959h5.8a.479.479,0,1,0,0-.959Z" transform="translate(-337.842 -1451.293)" fill="#6bc3dc"/>
          <path id="Trazado_88574" data-name="Trazado 88574" d="M464.6,1451.293h-5.8a.479.479,0,0,0,0,.959h5.8a.479.479,0,0,0,0-.959Z" transform="translate(-365.522 -1451.293)" fill="#6bc3dc"/>
          <path id="Trazado_88575" data-name="Trazado 88575" d="M503.877,1451.293h-5.8a.479.479,0,1,0,0,.959h5.8a.479.479,0,0,0,0-.959Z" transform="translate(-393.2 -1451.293)" fill="#6bc3dc"/>
          <path id="Trazado_88576" data-name="Trazado 88576" d="M543.155,1451.293h-5.8a.479.479,0,1,0,0,.959h5.8a.479.479,0,1,0,0-.959Z" transform="translate(-420.88 -1451.293)" fill="#6bc3dc"/>
          <path id="Trazado_88577" data-name="Trazado 88577" d="M386.04,1451.293h-5.8a.479.479,0,1,0,0,.959h5.8a.479.479,0,0,0,0-.959Z" transform="translate(-310.163 -1451.293)" fill="#6bc3dc"/>
          <path id="Trazado_88578" data-name="Trazado 88578" d="M346.762,1451.293h-5.8a.479.479,0,0,0,0,.959h5.8a.479.479,0,0,0,0-.959Z" transform="translate(-282.485 -1451.293)" fill="#6bc3dc"/>
          <path id="Trazado_88579" data-name="Trazado 88579" d="M582.434,1451.293h-5.8a.479.479,0,0,0,0,.959h5.8a.479.479,0,1,0,0-.959Z" transform="translate(-448.559 -1451.293)" fill="#6bc3dc"/>
          <path id="Trazado_88580" data-name="Trazado 88580" d="M1760.8,1451.293H1755a.479.479,0,0,0,0,.959h5.8a.479.479,0,1,0,0-.959Z" transform="translate(-1278.935 -1451.293)" fill="#6bc3dc"/>
          <path id="Trazado_88581" data-name="Trazado 88581" d="M1721.519,1451.293h-5.8a.479.479,0,0,0,0,.959h5.8a.479.479,0,0,0,0-.959Z" transform="translate(-1251.255 -1451.293)" fill="#6bc3dc"/>
          <path id="Trazado_88582" data-name="Trazado 88582" d="M1682.241,1451.293h-5.8a.479.479,0,1,0,0,.959h5.8a.479.479,0,0,0,0-.959Z" transform="translate(-1223.576 -1451.293)" fill="#6bc3dc"/>
          <path id="Trazado_88583" data-name="Trazado 88583" d="M1642.962,1451.293h-5.8a.479.479,0,0,0,0,.959h5.8a.479.479,0,0,0,0-.959Z" transform="translate(-1195.897 -1451.293)" fill="#6bc3dc"/>
          <path id="Trazado_88584" data-name="Trazado 88584" d="M1603.684,1451.293h-5.8a.479.479,0,0,0,0,.959h5.8a.479.479,0,1,0,0-.959Z" transform="translate(-1168.219 -1451.293)" fill="#6bc3dc"/>
          <path id="Trazado_88585" data-name="Trazado 88585" d="M1800.077,1451.293h-5.8a.479.479,0,1,0,0,.959h5.8a.479.479,0,0,0,0-.959Z" transform="translate(-1306.614 -1451.293)" fill="#6bc3dc"/>
          <path id="Trazado_88586" data-name="Trazado 88586" d="M1957.192,1451.293h-5.8a.479.479,0,1,0,0,.959h5.8a.479.479,0,1,0,0-.959Z" transform="translate(-1417.33 -1451.293)" fill="#6bc3dc"/>
          <path id="Trazado_88587" data-name="Trazado 88587" d="M1917.914,1451.293h-5.8a.479.479,0,0,0,0,.959h5.8a.479.479,0,0,0,0-.959Z" transform="translate(-1389.652 -1451.293)" fill="#6bc3dc"/>
          <path id="Trazado_88588" data-name="Trazado 88588" d="M1839.356,1451.293h-5.8a.479.479,0,1,0,0,.959h5.8a.479.479,0,1,0,0-.959Z" transform="translate(-1334.293 -1451.293)" fill="#6bc3dc"/>
          <path id="Trazado_88589" data-name="Trazado 88589" d="M1564.4,1451.293h-5.8a.479.479,0,0,0,0,.959h5.8a.479.479,0,0,0,0-.959Z" transform="translate(-1140.538 -1451.293)" fill="#6bc3dc"/>
          <path id="Trazado_88590" data-name="Trazado 88590" d="M1878.634,1451.293h-5.8a.479.479,0,1,0,0,.959h5.8a.479.479,0,0,0,0-.959Z" transform="translate(-1361.971 -1451.293)" fill="#6bc3dc"/>
          <path id="Trazado_88591" data-name="Trazado 88591" d="M1407.289,1451.293h-5.8a.479.479,0,1,0,0,.959h5.8a.479.479,0,0,0,0-.959Z" transform="translate(-1029.822 -1451.293)" fill="#6bc3dc"/>
          <path id="Trazado_88592" data-name="Trazado 88592" d="M1210.9,1451.293h-5.8a.479.479,0,0,0,0,.959h5.8a.479.479,0,0,0,0-.959Z" transform="translate(-891.427 -1451.293)" fill="#6bc3dc"/>
          <path id="Trazado_88593" data-name="Trazado 88593" d="M1289.453,1451.293h-5.8a.479.479,0,0,0,0,.959h5.8a.479.479,0,1,0,0-.959Z" transform="translate(-946.784 -1451.293)" fill="#6bc3dc"/>
          <path id="Trazado_88594" data-name="Trazado 88594" d="M1250.174,1451.293h-5.8a.479.479,0,1,0,0,.959h5.8a.479.479,0,1,0,0-.959Z" transform="translate(-919.105 -1451.293)" fill="#6bc3dc"/>
          <path id="Trazado_88595" data-name="Trazado 88595" d="M1171.617,1451.293h-5.8a.479.479,0,0,0,0,.959h5.8a.479.479,0,0,0,0-.959Z" transform="translate(-863.747 -1451.293)" fill="#6bc3dc"/>
          <path id="Trazado_88596" data-name="Trazado 88596" d="M1132.338,1451.293h-5.8a.479.479,0,0,0,0,.959h5.8a.479.479,0,1,0,0-.959Z" transform="translate(-836.068 -1451.293)" fill="#6bc3dc"/>
          <path id="Trazado_88597" data-name="Trazado 88597" d="M1368.01,1451.293h-5.8a.479.479,0,1,0,0,.959h5.8a.479.479,0,0,0,0-.959Z" transform="translate(-1002.143 -1451.293)" fill="#6bc3dc"/>
          <path id="Trazado_88598" data-name="Trazado 88598" d="M1446.569,1451.293h-5.8a.479.479,0,0,0,0,.959h5.8a.479.479,0,1,0,0-.959Z" transform="translate(-1057.502 -1451.293)" fill="#6bc3dc"/>
          <path id="Trazado_88599" data-name="Trazado 88599" d="M1485.847,1451.293h-5.8a.479.479,0,0,0,0,.959h5.8a.479.479,0,0,0,0-.959Z" transform="translate(-1085.181 -1451.293)" fill="#6bc3dc"/>
          <path id="Trazado_88600" data-name="Trazado 88600" d="M1328.732,1451.293h-5.8a.479.479,0,0,0,0,.959h5.8a.479.479,0,0,0,0-.959Z" transform="translate(-974.464 -1451.293)" fill="#6bc3dc"/>
          <path id="Trazado_88601" data-name="Trazado 88601" d="M1525.126,1451.293h-5.8a.479.479,0,1,0,0,.959h5.8a.479.479,0,0,0,0-.959Z" transform="translate(-1112.86 -1451.293)" fill="#6bc3dc"/>
          <path id="Trazado_88602" data-name="Trazado 88602" d="M1093.059,1451.293h-5.8a.479.479,0,1,0,0,.959h5.8a.479.479,0,1,0,0-.959Z" transform="translate(-808.389 -1451.293)" fill="#6bc3dc"/>
        </g>
        <g id="Grupo_51546" data-name="Grupo 51546" transform="translate(553.859 0)">
          <path id="Trazado_88603" data-name="Trazado 88603" d="M1993.55,1451.293h-2.876a.479.479,0,0,0,0,.959h2.876a.479.479,0,1,0,0-.959Z" transform="translate(-1990.194 -1451.293)" fill="#6bc3dc"/>
        </g>
      </g>
      <g id="Grupo_51551" data-name="Grupo 51551" transform="translate(83.821 831.679)">
        <g id="Grupo_51548" data-name="Grupo 51548" transform="translate(0 0)">
          <path id="Trazado_88604" data-name="Trazado 88604" d="M118.065,1269.476h-2.876a.479.479,0,1,0,0,.958h2.876a.479.479,0,1,0,0-.958Z" transform="translate(-114.709 -1269.476)" fill="#6bc3dc"/>
        </g>
        <g id="Grupo_51549" data-name="Grupo 51549" transform="translate(8.676 0)">
          <path id="Trazado_88605" data-name="Trazado 88605" d="M739.55,1269.476h-5.8a.479.479,0,1,0,0,.958h5.8a.479.479,0,1,0,0-.958Z" transform="translate(-559.276 -1269.476)" fill="#6bc3dc"/>
          <path id="Trazado_88606" data-name="Trazado 88606" d="M778.829,1269.476h-5.8a.479.479,0,1,0,0,.958h5.8a.479.479,0,0,0,0-.958Z" transform="translate(-586.955 -1269.476)" fill="#6bc3dc"/>
          <path id="Trazado_88607" data-name="Trazado 88607" d="M700.271,1269.476h-5.8a.479.479,0,0,0,0,.958h5.8a.479.479,0,1,0,0-.958Z" transform="translate(-531.597 -1269.476)" fill="#6bc3dc"/>
          <path id="Trazado_88608" data-name="Trazado 88608" d="M660.992,1269.476h-5.8a.479.479,0,1,0,0,.958h5.8a.479.479,0,0,0,0-.958Z" transform="translate(-503.918 -1269.476)" fill="#6bc3dc"/>
          <path id="Trazado_88609" data-name="Trazado 88609" d="M621.713,1269.476h-5.8a.479.479,0,1,0,0,.958h5.8a.479.479,0,1,0,0-.958Z" transform="translate(-476.238 -1269.476)" fill="#6bc3dc"/>
          <path id="Trazado_88610" data-name="Trazado 88610" d="M1014.5,1269.476h-5.8a.479.479,0,0,0,0,.958h5.8a.479.479,0,1,0,0-.958Z" transform="translate(-753.031 -1269.476)" fill="#6bc3dc"/>
          <path id="Trazado_88611" data-name="Trazado 88611" d="M818.107,1269.476h-5.8a.479.479,0,1,0,0,.958h5.8a.479.479,0,1,0,0-.958Z" transform="translate(-614.634 -1269.476)" fill="#6bc3dc"/>
          <path id="Trazado_88612" data-name="Trazado 88612" d="M935.944,1269.476h-5.8a.479.479,0,1,0,0,.958h5.8a.479.479,0,1,0,0-.958Z" transform="translate(-697.672 -1269.476)" fill="#6bc3dc"/>
          <path id="Trazado_88613" data-name="Trazado 88613" d="M975.223,1269.476h-5.8a.479.479,0,0,0,0,.958h5.8a.479.479,0,1,0,0-.958Z" transform="translate(-725.352 -1269.476)" fill="#6bc3dc"/>
          <path id="Trazado_88614" data-name="Trazado 88614" d="M896.665,1269.476h-5.8a.479.479,0,0,0,0,.958h5.8a.479.479,0,0,0,0-.958Z" transform="translate(-669.993 -1269.476)" fill="#6bc3dc"/>
          <path id="Trazado_88615" data-name="Trazado 88615" d="M857.386,1269.476h-5.8a.479.479,0,1,0,0,.958h5.8a.479.479,0,1,0,0-.958Z" transform="translate(-642.314 -1269.476)" fill="#6bc3dc"/>
          <path id="Trazado_88616" data-name="Trazado 88616" d="M582.434,1269.476h-5.8a.479.479,0,1,0,0,.958h5.8a.479.479,0,1,0,0-.958Z" transform="translate(-448.559 -1269.476)" fill="#6bc3dc"/>
          <path id="Trazado_88617" data-name="Trazado 88617" d="M228.925,1269.476h-5.8a.479.479,0,1,0,0,.958h5.8a.479.479,0,1,0,0-.958Z" transform="translate(-199.446 -1269.476)" fill="#6bc3dc"/>
          <path id="Trazado_88618" data-name="Trazado 88618" d="M268.2,1269.476h-5.8a.479.479,0,1,0,0,.958h5.8a.479.479,0,1,0,0-.958Z" transform="translate(-227.125 -1269.476)" fill="#6bc3dc"/>
          <path id="Trazado_88619" data-name="Trazado 88619" d="M150.367,1269.476h-5.8a.479.479,0,1,0,0,.958h5.8a.479.479,0,1,0,0-.958Z" transform="translate(-144.088 -1269.476)" fill="#6bc3dc"/>
          <path id="Trazado_88620" data-name="Trazado 88620" d="M189.646,1269.476h-5.8a.479.479,0,1,0,0,.958h5.8a.479.479,0,1,0,0-.958Z" transform="translate(-171.767 -1269.476)" fill="#6bc3dc"/>
          <path id="Trazado_88621" data-name="Trazado 88621" d="M543.155,1269.476h-5.8a.479.479,0,1,0,0,.958h5.8a.479.479,0,1,0,0-.958Z" transform="translate(-420.88 -1269.476)" fill="#6bc3dc"/>
          <path id="Trazado_88622" data-name="Trazado 88622" d="M307.482,1269.476h-5.8a.479.479,0,1,0,0,.958h5.8a.479.479,0,1,0,0-.958Z" transform="translate(-254.805 -1269.476)" fill="#6bc3dc"/>
          <path id="Trazado_88623" data-name="Trazado 88623" d="M464.6,1269.476h-5.8a.479.479,0,1,0,0,.958h5.8a.479.479,0,0,0,0-.958Z" transform="translate(-365.522 -1269.476)" fill="#6bc3dc"/>
          <path id="Trazado_88624" data-name="Trazado 88624" d="M503.877,1269.476h-5.8a.479.479,0,1,0,0,.958h5.8a.479.479,0,0,0,0-.958Z" transform="translate(-393.2 -1269.476)" fill="#6bc3dc"/>
          <path id="Trazado_88625" data-name="Trazado 88625" d="M346.762,1269.476h-5.8a.479.479,0,1,0,0,.958h5.8a.479.479,0,1,0,0-.958Z" transform="translate(-282.485 -1269.476)" fill="#6bc3dc"/>
          <path id="Trazado_88626" data-name="Trazado 88626" d="M425.319,1269.476h-5.8a.479.479,0,1,0,0,.958h5.8a.479.479,0,1,0,0-.958Z" transform="translate(-337.842 -1269.476)" fill="#6bc3dc"/>
          <path id="Trazado_88627" data-name="Trazado 88627" d="M386.04,1269.476h-5.8a.479.479,0,1,0,0,.958h5.8a.479.479,0,1,0,0-.958Z" transform="translate(-310.163 -1269.476)" fill="#6bc3dc"/>
          <path id="Trazado_88628" data-name="Trazado 88628" d="M1682.241,1269.476h-5.8a.479.479,0,1,0,0,.958h5.8a.479.479,0,1,0,0-.958Z" transform="translate(-1223.576 -1269.476)" fill="#6bc3dc"/>
          <path id="Trazado_88629" data-name="Trazado 88629" d="M1642.962,1269.476h-5.8a.479.479,0,1,0,0,.958h5.8a.479.479,0,0,0,0-.958Z" transform="translate(-1195.897 -1269.476)" fill="#6bc3dc"/>
          <path id="Trazado_88630" data-name="Trazado 88630" d="M1053.781,1269.476h-5.8a.479.479,0,0,0,0,.958h5.8a.479.479,0,0,0,0-.958Z" transform="translate(-780.71 -1269.476)" fill="#6bc3dc"/>
          <path id="Trazado_88631" data-name="Trazado 88631" d="M1603.684,1269.476h-5.8a.479.479,0,0,0,0,.958h5.8a.479.479,0,1,0,0-.958Z" transform="translate(-1168.219 -1269.476)" fill="#6bc3dc"/>
          <path id="Trazado_88632" data-name="Trazado 88632" d="M1564.4,1269.476h-5.8a.479.479,0,0,0,0,.958h5.8a.479.479,0,0,0,0-.958Z" transform="translate(-1140.538 -1269.476)" fill="#6bc3dc"/>
          <path id="Trazado_88633" data-name="Trazado 88633" d="M1525.126,1269.476h-5.8a.479.479,0,1,0,0,.958h5.8a.479.479,0,1,0,0-.958Z" transform="translate(-1112.86 -1269.476)" fill="#6bc3dc"/>
          <path id="Trazado_88634" data-name="Trazado 88634" d="M1760.8,1269.476H1755a.479.479,0,0,0,0,.958h5.8a.479.479,0,1,0,0-.958Z" transform="translate(-1278.935 -1269.476)" fill="#6bc3dc"/>
          <path id="Trazado_88635" data-name="Trazado 88635" d="M1917.914,1269.476h-5.8a.479.479,0,0,0,0,.958h5.8a.479.479,0,0,0,0-.958Z" transform="translate(-1389.652 -1269.476)" fill="#6bc3dc"/>
          <path id="Trazado_88636" data-name="Trazado 88636" d="M1957.192,1269.476h-5.8a.479.479,0,1,0,0,.958h5.8a.479.479,0,1,0,0-.958Z" transform="translate(-1417.33 -1269.476)" fill="#6bc3dc"/>
          <path id="Trazado_88637" data-name="Trazado 88637" d="M1800.077,1269.476h-5.8a.479.479,0,1,0,0,.958h5.8a.479.479,0,0,0,0-.958Z" transform="translate(-1306.614 -1269.476)" fill="#6bc3dc"/>
          <path id="Trazado_88638" data-name="Trazado 88638" d="M1839.356,1269.476h-5.8a.479.479,0,1,0,0,.958h5.8a.479.479,0,1,0,0-.958Z" transform="translate(-1334.293 -1269.476)" fill="#6bc3dc"/>
          <path id="Trazado_88639" data-name="Trazado 88639" d="M1878.634,1269.476h-5.8a.479.479,0,1,0,0,.958h5.8a.479.479,0,0,0,0-.958Z" transform="translate(-1361.971 -1269.476)" fill="#6bc3dc"/>
          <path id="Trazado_88640" data-name="Trazado 88640" d="M1721.519,1269.476h-5.8a.479.479,0,0,0,0,.958h5.8a.479.479,0,1,0,0-.958Z" transform="translate(-1251.255 -1269.476)" fill="#6bc3dc"/>
          <path id="Trazado_88641" data-name="Trazado 88641" d="M1210.9,1269.476h-5.8a.479.479,0,0,0,0,.958h5.8a.479.479,0,0,0,0-.958Z" transform="translate(-891.427 -1269.476)" fill="#6bc3dc"/>
          <path id="Trazado_88642" data-name="Trazado 88642" d="M1171.617,1269.476h-5.8a.479.479,0,0,0,0,.958h5.8a.479.479,0,1,0,0-.958Z" transform="translate(-863.747 -1269.476)" fill="#6bc3dc"/>
          <path id="Trazado_88643" data-name="Trazado 88643" d="M1250.174,1269.476h-5.8a.479.479,0,1,0,0,.958h5.8a.479.479,0,1,0,0-.958Z" transform="translate(-919.105 -1269.476)" fill="#6bc3dc"/>
          <path id="Trazado_88644" data-name="Trazado 88644" d="M1132.338,1269.476h-5.8a.479.479,0,1,0,0,.958h5.8a.479.479,0,1,0,0-.958Z" transform="translate(-836.068 -1269.476)" fill="#6bc3dc"/>
          <path id="Trazado_88645" data-name="Trazado 88645" d="M1093.059,1269.476h-5.8a.479.479,0,1,0,0,.958h5.8a.479.479,0,1,0,0-.958Z" transform="translate(-808.389 -1269.476)" fill="#6bc3dc"/>
          <path id="Trazado_88646" data-name="Trazado 88646" d="M1368.01,1269.476h-5.8a.479.479,0,1,0,0,.958h5.8a.479.479,0,1,0,0-.958Z" transform="translate(-1002.143 -1269.476)" fill="#6bc3dc"/>
          <path id="Trazado_88647" data-name="Trazado 88647" d="M1446.569,1269.476h-5.8a.479.479,0,0,0,0,.958h5.8a.479.479,0,1,0,0-.958Z" transform="translate(-1057.502 -1269.476)" fill="#6bc3dc"/>
          <path id="Trazado_88648" data-name="Trazado 88648" d="M1407.289,1269.476h-5.8a.479.479,0,1,0,0,.958h5.8a.479.479,0,1,0,0-.958Z" transform="translate(-1029.822 -1269.476)" fill="#6bc3dc"/>
          <path id="Trazado_88649" data-name="Trazado 88649" d="M1485.847,1269.476h-5.8a.479.479,0,0,0,0,.958h5.8a.479.479,0,1,0,0-.958Z" transform="translate(-1085.181 -1269.476)" fill="#6bc3dc"/>
          <path id="Trazado_88650" data-name="Trazado 88650" d="M1328.732,1269.476h-5.8a.479.479,0,1,0,0,.958h5.8a.479.479,0,1,0,0-.958Z" transform="translate(-974.464 -1269.476)" fill="#6bc3dc"/>
          <path id="Trazado_88651" data-name="Trazado 88651" d="M1289.453,1269.476h-5.8a.479.479,0,1,0,0,.958h5.8a.479.479,0,1,0,0-.958Z" transform="translate(-946.784 -1269.476)" fill="#6bc3dc"/>
        </g>
        <g id="Grupo_51550" data-name="Grupo 51550" transform="translate(553.859 0)">
          <path id="Trazado_88652" data-name="Trazado 88652" d="M1993.55,1269.476h-2.876a.479.479,0,1,0,0,.958h2.876a.479.479,0,1,0,0-.958Z" transform="translate(-1990.194 -1269.476)" fill="#6bc3dc"/>
        </g>
      </g>
      <g id="Grupo_51560" data-name="Grupo 51560" transform="translate(349.176 672.788)">
        <path id="Trazado_88653" data-name="Trazado 88653" d="M1024.054,798.076l-6.111-2.887s-3.609,9.737-4.327,13.825a25.578,25.578,0,0,0,1.361,13.285,6.557,6.557,0,0,0,1.046,3.966c.672.992,3.9.719,3.378-.3-.645-1.27-.878-1.682-.878-1.682s1.563,1.761,1.532.56c-.02-.792-1.5-2.43-1.978-2.992-.236-1.577-.314-8.188,1.091-12.066C1021.31,803.873,1024.054,798.076,1024.054,798.076Z" transform="translate(-1013.261 -776.362)" fill="#efb0ac"/>
        <path id="Trazado_88654" data-name="Trazado 88654" d="M1018.966,793.8s-3.063,2.173-4.672,9.657c1.991,2.736,6.05,3.138,7.2,3.219S1021.033,793.237,1018.966,793.8Z" transform="translate(-1013.989 -775.372)" fill="#66b7ce"/>
        <path id="Trazado_88655" data-name="Trazado 88655" d="M1082.869,809.794a72.517,72.517,0,0,1,3.5,11.88c.761,4.072-1.2,10.5-1.806,11.97-.593.42-2.418,1.617-2.626,2.379-.314,1.155,1.616-.141,1.616-.141s-.323.338-1.249,1.4c-.743.851,2.313,1.959,3.2,1.175a6.261,6.261,0,0,0,1.7-3.666,25.546,25.546,0,0,0,4.281-12.527c.275-4.147-2.643-13.574-2.643-13.574Z" transform="translate(-1061.635 -785.876)" fill="#efb0ac"/>
        <g id="Grupo_51552" data-name="Grupo 51552" transform="translate(5.329 43.198)">
          <path id="Trazado_88656" data-name="Trazado 88656" d="M1031.485,878.84c-1.025,7.413,2.737,44.077,2.281,44.977-.635,1.254,2.135,2.533,3.552,1.263.576-14.382,3.934-41.023,3.934-41.023S1032.083,874.513,1031.485,878.84Z" transform="translate(-1031.307 -877.715)" fill="#efb0ac"/>
        </g>
        <g id="Grupo_51553" data-name="Grupo 51553" transform="translate(5.269 88.642)">
          <path id="Trazado_88657" data-name="Trazado 88657" d="M1037.46,1031.709l-3.892-.11s-2.631,1.915-2.455,2.731c.132.61,3.772.261,5.6.046a.961.961,0,0,0,.915-1.026Z" transform="translate(-1031.104 -1031.599)" fill="#1f253c"/>
        </g>
        <g id="Grupo_51554" data-name="Grupo 51554" transform="translate(13.32 44.003)">
          <path id="Trazado_88658" data-name="Trazado 88658" d="M1058.366,881.708c-.09,7.483,8.225,43.389,7.885,44.339-.473,1.323,2.435,2.246,3.683.809-1.227-14.341-1.225-41.193-1.225-41.193S1058.418,877.341,1058.366,881.708Z" transform="translate(-1058.365 -880.441)" fill="#efb0ac"/>
        </g>
        <g id="Grupo_51555" data-name="Grupo 51555" transform="translate(18.953 88.585)">
          <path id="Trazado_88659" data-name="Trazado 88659" d="M1083.432,1031.407l-3.875.378s-2.371,2.229-2.094,3.017c.207.589,3.775-.212,5.565-.655a.961.961,0,0,0,.78-1.133Z" transform="translate(-1077.44 -1031.407)" fill="#1f253c"/>
        </g>
        <path id="Trazado_88660" data-name="Trazado 88660" d="M1028.809,918.228c.372.583,8.881.576,8.881.576l2.467-25.327-11.526-2.338A103.829,103.829,0,0,0,1028.809,918.228Z" transform="translate(-1023.543 -843.976)" fill="#1f253c"/>
        <path id="Trazado_88661" data-name="Trazado 88661" d="M1058.057,893.894a102.387,102.387,0,0,0,3.5,26.946c.441.532,8.873-.621,8.873-.621l-.831-25.009Z" transform="translate(-1044.818 -845.918)" fill="#1f253c"/>
        <g id="Grupo_51556" data-name="Grupo 51556" transform="translate(8.513 5.513)">
          <path id="Trazado_88662" data-name="Trazado 88662" d="M1053.37,762.419c-.53-.577-1.567-1.416-1.646-2.213-.236-2.374-.649-7.411-.192-9.013.614-2.15-7.428-.443-7.428-.443s1.849,5.819.843,9.656c-.429,1.635-1.995,2.185-2.606,2.828-2.047,2.15,8.981,3.719,11.052,2.9C1056.8,764.784,1054.361,763.5,1053.37,762.419Z" transform="translate(-1042.088 -750.107)" fill="#d79f9c"/>
        </g>
        <g id="Grupo_51557" data-name="Grupo 51557" transform="translate(7.492 3.111)">
          <path id="Trazado_88663" data-name="Trazado 88663" d="M1040.26,743.208s-4.177,7.5.839,11.047c3.361,2.377,8.371-1.847,8.533-6.805S1042.7,740.458,1040.26,743.208Z" transform="translate(-1038.629 -741.974)" fill="#efb0ac"/>
        </g>
        <g id="Grupo_51558" data-name="Grupo 51558" transform="translate(3.064 16.012)">
          <path id="Trazado_88664" data-name="Trazado 88664" d="M1039.066,785.66c-.061.2-4.261,3.689-7.888.16a12,12,0,0,0-5.983,2.711s-2.859,26.253-.83,29.869c1.305,1.436,17.1,2.389,21.019.5,1.086-.525-.73-30.192-.73-30.192S1041.168,785.559,1039.066,785.66Z" transform="translate(-1023.637 -785.658)" fill="#6bc3dc"/>
        </g>
        <path id="Trazado_88665" data-name="Trazado 88665" d="M1053.522,748.92l-.042.027A.223.223,0,0,0,1053.522,748.92Z" transform="translate(-1041.603 -743.757)" fill="#1f253c"/>
        <path id="Trazado_88666" data-name="Trazado 88666" d="M1052.539,735.385c-.417-.03-.475.82-.475.82s-2.943-3.91-5.2-4.57-.172,1.482-.172,1.482a8.069,8.069,0,0,0-3.516-1.674c-1.6-.114-.191,1.765-.191,1.765a1.934,1.934,0,0,0-2.06-.5c-1.151.487.637,1.9.637,1.9s-2.915,2.78-.314,2.539a8.92,8.92,0,0,0,2.852-.511l.042-.027a.221.221,0,0,1-.042.027c-.2.14-1.068.794-.24,1.359a6.155,6.155,0,0,0,3.732-1.075s-.966.9-.075,1.333c2.372.027,2.475-.356,2.475-.356a24.366,24.366,0,0,1-.053,5.4C1052.585,741.345,1052.956,735.415,1052.539,735.385Z" transform="translate(-1032.221 -731.438)" fill="#1f253c"/>
        <path id="Trazado_88667" data-name="Trazado 88667" d="M1069.08,759.439s-1.873,3.218-.691,3.214,2.2-2.031,2.159-2.751C1070.479,758.721,1069.08,759.439,1069.08,759.439Z" transform="translate(-1051.833 -751.017)" fill="#efb0ac"/>
        <path id="Trazado_88668" data-name="Trazado 88668" d="M1086.454,795.128a4.278,4.278,0,0,0-2.583,4.948,89.51,89.51,0,0,0,2.452,9.148,8.8,8.8,0,0,0,6.053-3.492C1090.117,795.593,1086.454,795.128,1086.454,795.128Z" transform="translate(-1062.971 -776.319)" fill="#84cce3"/>
        <g id="Grupo_51559" data-name="Grupo 51559" transform="translate(9.302 15.569)">
          <path id="Trazado_88669" data-name="Trazado 88669" d="M1046.554,784.619a4.526,4.526,0,0,0-1.795.359c.185.258,5.02,5.611,10.8-.013.031,0-1.062-.862-1.646-.8C1054,784.132,1049.781,787.546,1046.554,784.619Z" transform="translate(-1044.759 -784.158)" fill="#84cce3"/>
        </g>
        <path id="Trazado_88670" data-name="Trazado 88670" d="M1084.568,874.919c-.593.42-2.418,1.617-2.626,2.379-.314,1.155,1.616-.141,1.616-.141s-.323.338-1.249,1.4c-.743.851,2.313,1.959,3.2,1.175a6.261,6.261,0,0,0,1.7-3.666,25.769,25.769,0,0,0,3.749-8.8,25.662,25.662,0,0,0-4.162.262A29.852,29.852,0,0,1,1084.568,874.919Z" transform="translate(-1061.635 -827.15)" fill="#efb0ac"/>
      </g>
      <g id="Grupo_51561" data-name="Grupo 51561" transform="translate(129.472 910.151)" opacity="0.48">
        <path id="Trazado_88671" data-name="Trazado 88671" d="M271.633,1535.2a1.971,1.971,0,0,0-1.778.859,4.764,4.764,0,0,0-.563,2.583,4.67,4.67,0,0,0,.579,2.563,1.937,1.937,0,0,0,1.733.878,1.965,1.965,0,0,0,1.745-.883,4.6,4.6,0,0,0,.591-2.559,4.774,4.774,0,0,0-.563-2.573A1.931,1.931,0,0,0,271.633,1535.2Zm1.087,5.511a1.253,1.253,0,0,1-2.215.014,4.676,4.676,0,0,1-.349-2.084,4.728,4.728,0,0,1,.344-2.108,1.186,1.186,0,0,1,1.132-.641,1.148,1.148,0,0,1,1.1.65,4.864,4.864,0,0,1,.335,2.1A4.665,4.665,0,0,1,272.72,1540.711Z" transform="translate(-269.293 -1535.2)" fill="#006d84"/>
        <rect id="Rectángulo_11711" data-name="Rectángulo 11711" width="0.926" height="1.04" transform="translate(5.915 5.749)" fill="#006d84"/>
        <path id="Trazado_88672" data-name="Trazado 88672" d="M300.534,1535.538h-.788l-1.581,1.087v.807l1.51-1.078v5.146h-1.7v.726h4.192v-.726h-1.628Z" transform="translate(-289.501 -1535.438)" fill="#006d84"/>
        <path id="Trazado_88673" data-name="Trazado 88673" d="M333.177,1543.961a1.3,1.3,0,0,0-1.151.529,2.874,2.874,0,0,0-.363,1.612,2.742,2.742,0,0,0,.377,1.583,1.28,1.28,0,0,0,1.118.534,1.3,1.3,0,0,0,1.135-.548,2.714,2.714,0,0,0,.384-1.569,2.9,2.9,0,0,0-.361-1.6A1.269,1.269,0,0,0,333.177,1543.961Zm.6,3.34a.679.679,0,0,1-1.232,0,2.927,2.927,0,0,1-.188-1.2,2.9,2.9,0,0,1,.193-1.239.651.651,0,0,1,.624-.375.632.632,0,0,1,.615.382,3.049,3.049,0,0,1,.183,1.232A2.837,2.837,0,0,1,333.78,1547.3Z" transform="translate(-313.244 -1541.374)" fill="#006d84"/>
        <path id="Trazado_88674" data-name="Trazado 88674" d="M317.577,1539.048a3.569,3.569,0,0,0,.012-3.171,1.266,1.266,0,0,0-1.12-.532,1.309,1.309,0,0,0-1.159.53,3.586,3.586,0,0,0,.012,3.178,1.426,1.426,0,0,0,2.255,0Zm-1.744-.373a4.014,4.014,0,0,1,0-2.44.657.657,0,0,1,.636-.377.623.623,0,0,1,.607.385,3.056,3.056,0,0,1,.18,1.22,2.9,2.9,0,0,1-.192,1.205.634.634,0,0,1-.605.4A.647.647,0,0,1,315.833,1538.675Z" transform="translate(-301.463 -1535.302)" fill="#006d84"/>
        <path id="Trazado_88675" data-name="Trazado 88675" d="M324.128,1535.538l-4.377,6.689h.736l4.386-6.689Z" transform="translate(-304.85 -1535.438)" fill="#006d84"/>
      </g>
      <g id="Grupo_51562" data-name="Grupo 51562" transform="translate(240.939 896.809)" opacity="0.48">
        <path id="Trazado_88676" data-name="Trazado 88676" d="M649.085,1490.019a1.971,1.971,0,0,0-1.778.859,4.77,4.77,0,0,0-.562,2.583,4.67,4.67,0,0,0,.579,2.563,1.937,1.937,0,0,0,1.733.878,1.964,1.964,0,0,0,1.744-.883,4.6,4.6,0,0,0,.591-2.559,4.776,4.776,0,0,0-.563-2.573A1.931,1.931,0,0,0,649.085,1490.019Zm1.087,5.511a1.253,1.253,0,0,1-2.215.014,4.676,4.676,0,0,1-.349-2.084,4.729,4.729,0,0,1,.344-2.108,1.185,1.185,0,0,1,1.132-.641,1.148,1.148,0,0,1,1.1.65,4.865,4.865,0,0,1,.335,2.1A4.667,4.667,0,0,1,650.172,1495.53Z" transform="translate(-646.745 -1490.019)" fill="#006d84"/>
        <rect id="Rectángulo_11712" data-name="Rectángulo 11712" width="0.926" height="1.04" transform="translate(5.915 5.749)" fill="#006d84"/>
        <path id="Trazado_88677" data-name="Trazado 88677" d="M675.975,1495.39a7.965,7.965,0,0,1,.869-.8,14.171,14.171,0,0,0,1.343-1.192,3.067,3.067,0,0,0,.529-.769,1.829,1.829,0,0,0,.178-.774,1.708,1.708,0,0,0-.544-1.355,2.284,2.284,0,0,0-1.555-.477,2.32,2.32,0,0,0-1.507.474,1.856,1.856,0,0,0-.681,1.277l.874.081a1.219,1.219,0,0,1,.416-.833,1.353,1.353,0,0,1,.9-.3,1.258,1.258,0,0,1,.9.3,1.116,1.116,0,0,1,.323.854,1.428,1.428,0,0,1-.188.731,2.877,2.877,0,0,1-.491.617,8.325,8.325,0,0,1-.681.589q-.377.294-.762.639a6.947,6.947,0,0,0-.734.769,4.148,4.148,0,0,0-.591.98v.6H679v-.726H675.51A2.563,2.563,0,0,1,675.975,1495.39Z" transform="translate(-666.353 -1490.019)" fill="#006d84"/>
        <path id="Trazado_88678" data-name="Trazado 88678" d="M710.628,1498.779a1.3,1.3,0,0,0-1.151.53,2.873,2.873,0,0,0-.363,1.612,2.742,2.742,0,0,0,.377,1.583,1.28,1.28,0,0,0,1.118.534,1.3,1.3,0,0,0,1.134-.548,2.71,2.71,0,0,0,.385-1.569,2.9,2.9,0,0,0-.361-1.6A1.268,1.268,0,0,0,710.628,1498.779Zm.6,3.34a.678.678,0,0,1-1.232,0,4.021,4.021,0,0,1,0-2.442.652.652,0,0,1,.624-.375.632.632,0,0,1,.615.382,3.048,3.048,0,0,1,.183,1.232A2.831,2.831,0,0,1,711.231,1502.119Z" transform="translate(-690.695 -1496.192)" fill="#006d84"/>
        <path id="Trazado_88679" data-name="Trazado 88679" d="M695.029,1493.866a3.568,3.568,0,0,0,.012-3.171,1.266,1.266,0,0,0-1.12-.532,1.309,1.309,0,0,0-1.159.53,3.586,3.586,0,0,0,.012,3.178,1.426,1.426,0,0,0,2.255-.005Zm-1.744-.372a4.013,4.013,0,0,1,0-2.44.657.657,0,0,1,.636-.377.623.623,0,0,1,.607.385,3.056,3.056,0,0,1,.18,1.22,2.9,2.9,0,0,1-.192,1.205.634.634,0,0,1-.605.4A.647.647,0,0,1,693.285,1493.493Z" transform="translate(-678.915 -1490.12)" fill="#006d84"/>
        <path id="Trazado_88680" data-name="Trazado 88680" d="M701.58,1490.356l-4.377,6.689h.736l4.386-6.689Z" transform="translate(-682.302 -1490.257)" fill="#006d84"/>
      </g>
      <g id="Grupo_51563" data-name="Grupo 51563" transform="translate(354.46 873.147)" opacity="0.48">
        <path id="Trazado_88681" data-name="Trazado 88681" d="M1033.493,1409.9a1.97,1.97,0,0,0-1.778.859,4.765,4.765,0,0,0-.563,2.582,4.67,4.67,0,0,0,.579,2.563,1.937,1.937,0,0,0,1.733.878,1.964,1.964,0,0,0,1.745-.883,4.6,4.6,0,0,0,.591-2.559,4.775,4.775,0,0,0-.562-2.573A1.93,1.93,0,0,0,1033.493,1409.9Zm1.087,5.511a1.253,1.253,0,0,1-2.215.014,4.677,4.677,0,0,1-.349-2.084,4.732,4.732,0,0,1,.344-2.108,1.186,1.186,0,0,1,1.132-.641,1.148,1.148,0,0,1,1.1.65,4.865,4.865,0,0,1,.335,2.1A4.665,4.665,0,0,1,1034.58,1415.406Z" transform="translate(-1031.153 -1409.895)" fill="#006d84"/>
        <rect id="Rectángulo_11713" data-name="Rectángulo 11713" width="0.926" height="1.04" transform="translate(5.915 5.749)" fill="#006d84"/>
        <path id="Trazado_88682" data-name="Trazado 88682" d="M1062.037,1410.232h-.9l-3.062,4.51v.665h3.152v1.514h.807v-1.514h.94v-.674h-.94Zm-.807,4.5h-2.364l.076-.095.256-.351,1.714-2.525q.062-.09.185-.313t.133-.251Z" transform="translate(-1050.127 -1410.132)" fill="#006d84"/>
        <path id="Trazado_88683" data-name="Trazado 88683" d="M1085.988,1410.232l-4.377,6.689h.736l4.386-6.689Z" transform="translate(-1066.71 -1410.133)" fill="#006d84"/>
        <path id="Trazado_88684" data-name="Trazado 88684" d="M1095.037,1418.656a1.3,1.3,0,0,0-1.151.529,2.877,2.877,0,0,0-.363,1.612,2.743,2.743,0,0,0,.377,1.583,1.281,1.281,0,0,0,1.118.534,1.3,1.3,0,0,0,1.135-.548,2.712,2.712,0,0,0,.385-1.569,2.9,2.9,0,0,0-.361-1.6A1.268,1.268,0,0,0,1095.037,1418.656Zm.6,3.339a.678.678,0,0,1-1.232,0,4.021,4.021,0,0,1,0-2.442.651.651,0,0,1,.624-.375.631.631,0,0,1,.615.382,3.046,3.046,0,0,1,.183,1.232A2.831,2.831,0,0,1,1095.64,1422Z" transform="translate(-1075.104 -1416.069)" fill="#006d84"/>
        <path id="Trazado_88685" data-name="Trazado 88685" d="M1079.438,1413.743a3.572,3.572,0,0,0,.012-3.171,1.267,1.267,0,0,0-1.121-.531,1.308,1.308,0,0,0-1.158.529,3.585,3.585,0,0,0,.012,3.178,1.426,1.426,0,0,0,2.255,0Zm-1.745-.373a4.012,4.012,0,0,1,0-2.44.657.657,0,0,1,.636-.377.623.623,0,0,1,.608.385,3.054,3.054,0,0,1,.18,1.22,2.9,2.9,0,0,1-.192,1.206.635.635,0,0,1-.605.4A.647.647,0,0,1,1077.693,1413.37Z" transform="translate(-1063.323 -1409.997)" fill="#006d84"/>
      </g>
      <g id="Grupo_51564" data-name="Grupo 51564" transform="translate(474.847 836.093)" opacity="0.48">
        <path id="Trazado_88686" data-name="Trazado 88686" d="M1442.767,1284.76h-.9l-3.062,4.51v.664h3.152v1.514h.807v-1.514h.94v-.674h-.94Zm-.807,4.5H1439.6l.076-.095.256-.351,1.714-2.526q.062-.09.185-.313t.133-.252Z" transform="translate(-1438.808 -1284.66)" fill="#006d84"/>
        <rect id="Rectángulo_11714" data-name="Rectángulo 11714" width="0.926" height="1.04" transform="translate(6.072 5.749)" fill="#006d84"/>
        <path id="Trazado_88687" data-name="Trazado 88687" d="M1469.654,1286.886a2.026,2.026,0,0,0-.969.225,1.572,1.572,0,0,0-.655.658,3.939,3.939,0,0,1,.4-1.973,1.252,1.252,0,0,1,1.132-.681,1.055,1.055,0,0,1,1.1.817l.817-.147a1.781,1.781,0,0,0-1.908-1.363,2.005,2.005,0,0,0-1.771.931,4.79,4.79,0,0,0-.622,2.668,4.193,4.193,0,0,0,.6,2.445,1.99,1.99,0,0,0,1.728.84,2.068,2.068,0,0,0,1.586-.612,2.347,2.347,0,0,0,.574-1.671,2.183,2.183,0,0,0-.543-1.557A1.919,1.919,0,0,0,1469.654,1286.886Zm.792,3.316a1.2,1.2,0,0,1-.968.415,1.187,1.187,0,0,1-.98-.494,2.014,2.014,0,0,1-.382-1.268,1.261,1.261,0,0,1,.368-.961,1.345,1.345,0,0,1,.966-.349,1.269,1.269,0,0,1,.992.394,1.614,1.614,0,0,1,.356,1.12A1.713,1.713,0,0,1,1470.447,1290.2Z" transform="translate(-1458.802 -1284.422)" fill="#006d84"/>
        <path id="Trazado_88688" data-name="Trazado 88688" d="M1503.223,1293.183a1.3,1.3,0,0,0-1.151.529,2.873,2.873,0,0,0-.363,1.612,2.74,2.74,0,0,0,.377,1.583,1.28,1.28,0,0,0,1.118.534,1.3,1.3,0,0,0,1.135-.548,2.712,2.712,0,0,0,.384-1.569,2.9,2.9,0,0,0-.361-1.6A1.269,1.269,0,0,0,1503.223,1293.183Zm.6,3.34a.678.678,0,0,1-1.232,0,4.019,4.019,0,0,1,0-2.442.651.651,0,0,1,.624-.375.631.631,0,0,1,.615.382,3.044,3.044,0,0,1,.183,1.232A2.832,2.832,0,0,1,1503.826,1296.522Z" transform="translate(-1483.133 -1290.596)" fill="#006d84"/>
        <path id="Trazado_88689" data-name="Trazado 88689" d="M1487.623,1288.27a3.571,3.571,0,0,0,.011-3.171,1.266,1.266,0,0,0-1.12-.532,1.308,1.308,0,0,0-1.158.529,3.584,3.584,0,0,0,.012,3.178,1.426,1.426,0,0,0,2.255,0Zm-1.745-.373a4.013,4.013,0,0,1,0-2.44.658.658,0,0,1,.636-.377.623.623,0,0,1,.608.385,3.057,3.057,0,0,1,.18,1.22,2.9,2.9,0,0,1-.192,1.206.635.635,0,0,1-.605.4A.648.648,0,0,1,1485.879,1287.9Z" transform="translate(-1471.352 -1284.524)" fill="#006d84"/>
        <path id="Trazado_88690" data-name="Trazado 88690" d="M1494.174,1284.76l-4.377,6.689h.736l4.386-6.689Z" transform="translate(-1474.74 -1284.66)" fill="#006d84"/>
      </g>
      <g id="Grupo_51565" data-name="Grupo 51565" transform="translate(597.605 780.708)" opacity="0.48">
        <path id="Trazado_88691" data-name="Trazado 88691" d="M1856.718,1096.875a2.188,2.188,0,0,0-1.638.6,2.255,2.255,0,0,0-.589,1.65,2.394,2.394,0,0,0,.541,1.638,1.824,1.824,0,0,0,1.443.617,2.03,2.03,0,0,0,1.011-.258,1.47,1.47,0,0,0,.65-.686,4,4,0,0,1-.423,1.951,1.26,1.26,0,0,1-1.139.683,1.08,1.08,0,0,1-1.13-.835l-.816.128a1.836,1.836,0,0,0,.677,1.066,2.15,2.15,0,0,0,1.255.33,2.039,2.039,0,0,0,1.792-.926,4.694,4.694,0,0,0,.629-2.649,4.365,4.365,0,0,0-.574-2.483A1.926,1.926,0,0,0,1856.718,1096.875Zm1.151,3.185a1.253,1.253,0,0,1-.5.477,1.451,1.451,0,0,1-.688.168,1.192,1.192,0,0,1-.964-.425,1.743,1.743,0,0,1-.356-1.156,1.7,1.7,0,0,1,.356-1.137,1.209,1.209,0,0,1,.973-.42,1.18,1.18,0,0,1,.992.491,2.1,2.1,0,0,1,.37,1.3A1.353,1.353,0,0,1,1857.869,1100.06Z" transform="translate(-1854.492 -1096.875)" fill="#006d84"/>
        <rect id="Rectángulo_11715" data-name="Rectángulo 11715" width="0.926" height="1.04" transform="translate(5.839 5.749)" fill="#006d84"/>
        <path id="Trazado_88692" data-name="Trazado 88692" d="M1885.044,1100.155v-.019a1.376,1.376,0,0,0,.869-.536,1.632,1.632,0,0,0,.318-1,1.537,1.537,0,0,0-.572-1.258,2.4,2.4,0,0,0-1.56-.465,2.33,2.33,0,0,0-1.536.475,1.534,1.534,0,0,0-.572,1.239,1.64,1.64,0,0,0,.316,1,1.442,1.442,0,0,0,.862.555v.019a1.537,1.537,0,0,0-.959.541,1.653,1.653,0,0,0-.375,1.1,1.779,1.779,0,0,0,.605,1.443,2.533,2.533,0,0,0,1.678.508,2.482,2.482,0,0,0,1.69-.517,1.82,1.82,0,0,0,.589-1.443,1.689,1.689,0,0,0-.356-1.1A1.55,1.55,0,0,0,1885.044,1100.155Zm-2.179-1.51a1.086,1.086,0,0,1,.316-.85,1.326,1.326,0,0,1,.918-.285q1.244,0,1.244,1.135a1.141,1.141,0,0,1-.316.9,1.352,1.352,0,0,1-.919.278,1.3,1.3,0,0,1-.919-.3A1.135,1.135,0,0,1,1882.865,1098.646Zm2.3,4.137a1.434,1.434,0,0,1-1.039.335,1.234,1.234,0,0,1-1.41-1.381,1.21,1.21,0,0,1,.365-.933,1.436,1.436,0,0,1,1.016-.34,1.555,1.555,0,0,1,1.04.316,1.164,1.164,0,0,1,.37.938A1.439,1.439,0,0,1,1885.167,1102.783Z" transform="translate(-1873.76 -1096.875)" fill="#006d84"/>
        <path id="Trazado_88693" data-name="Trazado 88693" d="M1902.519,1100.722a3.571,3.571,0,0,0,.011-3.171,1.266,1.266,0,0,0-1.12-.532,1.307,1.307,0,0,0-1.158.53,3.585,3.585,0,0,0,.012,3.178,1.426,1.426,0,0,0,2.255,0Zm-1.745-.373a4.013,4.013,0,0,1,0-2.44.657.657,0,0,1,.636-.377.623.623,0,0,1,.608.384,3.059,3.059,0,0,1,.18,1.22,2.9,2.9,0,0,1-.192,1.206.635.635,0,0,1-.605.4A.648.648,0,0,1,1900.775,1100.349Z" transform="translate(-1886.481 -1096.977)" fill="#006d84"/>
        <path id="Trazado_88694" data-name="Trazado 88694" d="M1918.119,1105.635a1.3,1.3,0,0,0-1.151.53,2.876,2.876,0,0,0-.363,1.611,2.742,2.742,0,0,0,.377,1.583,1.281,1.281,0,0,0,1.118.534,1.3,1.3,0,0,0,1.135-.548,2.713,2.713,0,0,0,.385-1.569,2.9,2.9,0,0,0-.361-1.6A1.269,1.269,0,0,0,1918.119,1105.635Zm.6,3.34a.678.678,0,0,1-1.232,0,4.023,4.023,0,0,1,0-2.442.652.652,0,0,1,.624-.375.631.631,0,0,1,.615.382,3.045,3.045,0,0,1,.183,1.232A2.837,2.837,0,0,1,1918.722,1108.975Z" transform="translate(-1898.262 -1103.048)" fill="#006d84"/>
        <path id="Trazado_88695" data-name="Trazado 88695" d="M1909.07,1097.212l-4.377,6.689h.736l4.386-6.689Z" transform="translate(-1889.868 -1097.113)" fill="#006d84"/>
      </g>
      <g id="Grupo_51566" data-name="Grupo 51566" transform="translate(183.536 935.211)" opacity="0.5">
        <path id="Trazado_88696" data-name="Trazado 88696" d="M454.706,1620.058a1.971,1.971,0,0,0-1.777.859,4.768,4.768,0,0,0-.563,2.583,4.671,4.671,0,0,0,.579,2.563,1.937,1.937,0,0,0,1.733.878,1.964,1.964,0,0,0,1.744-.883,4.6,4.6,0,0,0,.591-2.558,4.774,4.774,0,0,0-.563-2.573A1.93,1.93,0,0,0,454.706,1620.058Zm1.087,5.511a1.252,1.252,0,0,1-2.214.015,4.679,4.679,0,0,1-.349-2.084,4.73,4.73,0,0,1,.344-2.108,1.186,1.186,0,0,1,1.132-.641,1.149,1.149,0,0,1,1.1.65,4.865,4.865,0,0,1,.335,2.1A4.659,4.659,0,0,1,455.793,1625.569Z" transform="translate(-452.366 -1620.058)" fill="#006d84"/>
        <rect id="Rectángulo_11716" data-name="Rectángulo 11716" width="2.374" height="0.76" transform="translate(5.459 3.826)" fill="#006d84"/>
        <path id="Trazado_88697" data-name="Trazado 88697" d="M485.423,1620.4h-.788l-1.581,1.087v.807l1.51-1.077v5.146h-1.7v.726h4.192v-.726h-1.628Z" transform="translate(-473.854 -1620.295)" fill="#006d84"/>
      </g>
      <g id="Grupo_51567" data-name="Grupo 51567" transform="translate(298.64 935.306)" opacity="0.5">
        <path id="Trazado_88698" data-name="Trazado 88698" d="M843.538,1625.75a7.982,7.982,0,0,1,.869-.8,14.14,14.14,0,0,0,1.344-1.192,3.064,3.064,0,0,0,.529-.769,1.825,1.825,0,0,0,.178-.774,1.707,1.707,0,0,0-.544-1.355,2.283,2.283,0,0,0-1.555-.477,2.319,2.319,0,0,0-1.507.474,1.855,1.855,0,0,0-.681,1.277l.874.081a1.22,1.22,0,0,1,.415-.833,1.352,1.352,0,0,1,.9-.3,1.259,1.259,0,0,1,.9.3,1.117,1.117,0,0,1,.323.854,1.429,1.429,0,0,1-.187.731,2.876,2.876,0,0,1-.491.617,8.491,8.491,0,0,1-.681.589q-.378.295-.762.638a6.963,6.963,0,0,0-.733.769,4.148,4.148,0,0,0-.591.98v.6h4.429v-.726h-3.489A2.571,2.571,0,0,1,843.538,1625.75Z" transform="translate(-842.133 -1620.379)" fill="#006d84"/>
        <rect id="Rectángulo_11717" data-name="Rectángulo 11717" width="2.374" height="0.76" transform="translate(5.35 3.826)" fill="#006d84"/>
        <path id="Trazado_88699" data-name="Trazado 88699" d="M874.821,1620.717h-.788l-1.581,1.087v.807l1.51-1.078v5.146h-1.7v.726h4.192v-.726h-1.628Z" transform="translate(-863.361 -1620.617)" fill="#006d84"/>
        <path id="Trazado_88700" data-name="Trazado 88700" d="M891.12,1625.75a7.982,7.982,0,0,1,.869-.8,14.1,14.1,0,0,0,1.344-1.192,3.065,3.065,0,0,0,.529-.769,1.826,1.826,0,0,0,.178-.774,1.707,1.707,0,0,0-.544-1.355,2.283,2.283,0,0,0-1.555-.477,2.319,2.319,0,0,0-1.507.474,1.855,1.855,0,0,0-.681,1.277l.874.081a1.219,1.219,0,0,1,.416-.833,1.351,1.351,0,0,1,.9-.3,1.259,1.259,0,0,1,.9.3,1.117,1.117,0,0,1,.323.854,1.429,1.429,0,0,1-.188.731,2.869,2.869,0,0,1-.491.617,8.5,8.5,0,0,1-.681.589q-.377.295-.762.638a6.958,6.958,0,0,0-.733.769,4.133,4.133,0,0,0-.591.98v.6h4.429v-.726h-3.489A2.566,2.566,0,0,1,891.12,1625.75Z" transform="translate(-875.663 -1620.379)" fill="#006d84"/>
      </g>
      <g id="Grupo_51568" data-name="Grupo 51568" transform="translate(414.613 935.211)" opacity="0.5">
        <path id="Trazado_88701" data-name="Trazado 88701" d="M1237.407,1620.4h-.788l-1.581,1.087v.807l1.51-1.077v5.146h-1.7v.726h4.192v-.726h-1.628Z" transform="translate(-1234.844 -1620.295)" fill="#006d84"/>
        <path id="Trazado_88702" data-name="Trazado 88702" d="M1254.923,1623.433v-.019a1.857,1.857,0,0,0,1.042-.544,1.5,1.5,0,0,0,.359-1.042,1.608,1.608,0,0,0-.558-1.3,2.773,2.773,0,0,0-3.071-.007,1.819,1.819,0,0,0-.681,1.282l.859.066a1.177,1.177,0,0,1,.406-.817,1.385,1.385,0,0,1,.914-.289,1.285,1.285,0,0,1,.938.311,1.136,1.136,0,0,1,.316.847,1.02,1.02,0,0,1-.387.847,1.719,1.719,0,0,1-1.089.306h-.465v.741h.484a2.039,2.039,0,0,1,1.213.306,1,1,0,0,1,.42.852,1.181,1.181,0,0,1-.368.945,1.5,1.5,0,0,1-1.014.318,1.29,1.29,0,0,1-1.457-1.187l-.883.081a1.915,1.915,0,0,0,.719,1.356,2.622,2.622,0,0,0,1.621.458,2.5,2.5,0,0,0,1.68-.508,1.791,1.791,0,0,0,.589-1.434,1.451,1.451,0,0,0-.418-1.063A1.862,1.862,0,0,0,1254.923,1623.433Z" transform="translate(-1246.862 -1620.058)" fill="#006d84"/>
        <rect id="Rectángulo_11718" data-name="Rectángulo 11718" width="2.374" height="0.76" transform="translate(10.505 3.826)" fill="#006d84"/>
        <path id="Trazado_88703" data-name="Trazado 88703" d="M1282.978,1625.429a7.96,7.96,0,0,1,.869-.8,14.176,14.176,0,0,0,1.343-1.192,3.06,3.06,0,0,0,.529-.769,1.826,1.826,0,0,0,.178-.774,1.708,1.708,0,0,0-.544-1.355,2.284,2.284,0,0,0-1.555-.477,2.321,2.321,0,0,0-1.507.474,1.857,1.857,0,0,0-.681,1.277l.874.081a1.219,1.219,0,0,1,.415-.833,1.353,1.353,0,0,1,.9-.3,1.258,1.258,0,0,1,.9.3,1.116,1.116,0,0,1,.323.854,1.429,1.429,0,0,1-.187.731,2.868,2.868,0,0,1-.491.617,8.279,8.279,0,0,1-.681.589q-.378.294-.762.639a6.965,6.965,0,0,0-.734.769,4.135,4.135,0,0,0-.591.98v.6H1286v-.726h-3.489A2.57,2.57,0,0,1,1282.978,1625.429Z" transform="translate(-1267.773 -1620.058)" fill="#006d84"/>
        <path id="Trazado_88704" data-name="Trazado 88704" d="M1301.852,1620.058a1.971,1.971,0,0,0-1.778.859,4.768,4.768,0,0,0-.562,2.583,4.673,4.673,0,0,0,.579,2.563,1.938,1.938,0,0,0,1.733.878,1.964,1.964,0,0,0,1.744-.883,4.6,4.6,0,0,0,.591-2.558,4.771,4.771,0,0,0-.563-2.573A1.93,1.93,0,0,0,1301.852,1620.058Zm1.087,5.511a1.253,1.253,0,0,1-2.215.015,4.683,4.683,0,0,1-.349-2.084,4.736,4.736,0,0,1,.344-2.108,1.187,1.187,0,0,1,1.132-.641,1.149,1.149,0,0,1,1.1.65,4.863,4.863,0,0,1,.335,2.1A4.669,4.669,0,0,1,1302.94,1625.569Z" transform="translate(-1280.414 -1620.058)" fill="#006d84"/>
      </g>
      <g id="Grupo_51569" data-name="Grupo 51569" transform="translate(532.823 935.211)" opacity="0.5">
        <path id="Trazado_88705" data-name="Trazado 88705" d="M1636.531,1625.429a7.994,7.994,0,0,1,.869-.8,14.178,14.178,0,0,0,1.344-1.192,3.069,3.069,0,0,0,.529-.769,1.824,1.824,0,0,0,.178-.774,1.707,1.707,0,0,0-.543-1.355,2.283,2.283,0,0,0-1.555-.477,2.32,2.32,0,0,0-1.507.474,1.855,1.855,0,0,0-.681,1.277l.874.081a1.221,1.221,0,0,1,.415-.833,1.353,1.353,0,0,1,.9-.3,1.258,1.258,0,0,1,.9.3,1.115,1.115,0,0,1,.323.854,1.429,1.429,0,0,1-.188.731,2.878,2.878,0,0,1-.491.617,8.348,8.348,0,0,1-.681.589q-.378.294-.762.639a6.941,6.941,0,0,0-.733.769,4.136,4.136,0,0,0-.591.98v.6h4.429v-.726h-3.489A2.587,2.587,0,0,1,1636.531,1625.429Z" transform="translate(-1635.126 -1620.058)" fill="#006d84"/>
        <path id="Trazado_88706" data-name="Trazado 88706" d="M1656.851,1620.4h-.788l-1.581,1.087v.807l1.51-1.077v5.146h-1.7v.726h4.192v-.726h-1.628Z" transform="translate(-1648.629 -1620.295)" fill="#006d84"/>
        <rect id="Rectángulo_11719" data-name="Rectángulo 11719" width="2.374" height="0.76" transform="translate(10.757 3.826)" fill="#006d84"/>
        <path id="Trazado_88707" data-name="Trazado 88707" d="M1685.766,1620.4h-.9l-3.062,4.51v.665h3.152v1.514h.807v-1.514h.94v-.674h-.94Zm-.807,4.5H1682.6l.076-.095.256-.351,1.714-2.525q.062-.09.185-.313c.082-.149.127-.233.133-.252Z" transform="translate(-1668.021 -1620.296)" fill="#006d84"/>
        <path id="Trazado_88708" data-name="Trazado 88708" d="M1703.13,1620.058a2.19,2.19,0,0,0-1.638.6,2.257,2.257,0,0,0-.589,1.65,2.394,2.394,0,0,0,.541,1.638,1.823,1.823,0,0,0,1.443.617,2.025,2.025,0,0,0,1.011-.259,1.466,1.466,0,0,0,.65-.686,4,4,0,0,1-.422,1.951,1.26,1.26,0,0,1-1.139.684,1.08,1.08,0,0,1-1.13-.835l-.817.128a1.84,1.84,0,0,0,.677,1.066,2.151,2.151,0,0,0,1.256.33,2.039,2.039,0,0,0,1.792-.926,4.694,4.694,0,0,0,.629-2.649,4.37,4.37,0,0,0-.574-2.483A1.927,1.927,0,0,0,1703.13,1620.058Zm1.151,3.185a1.252,1.252,0,0,1-.5.477,1.448,1.448,0,0,1-.688.169,1.192,1.192,0,0,1-.964-.425,1.742,1.742,0,0,1-.356-1.156,1.7,1.7,0,0,1,.356-1.137,1.208,1.208,0,0,1,.973-.42,1.179,1.179,0,0,1,.992.491,2.1,2.1,0,0,1,.37,1.3A1.35,1.35,0,0,1,1704.281,1623.243Z" transform="translate(-1681.479 -1620.058)" fill="#006d84"/>
      </g>
      <g id="Grupo_51570" data-name="Grupo 51570" transform="translate(651.386 935.211)" opacity="0.5">
        <path id="Trazado_88709" data-name="Trazado 88709" d="M2039.057,1622.816a2.2,2.2,0,0,0-1.381.427l.128-2.122h3.024v-.726h-3.8l-.223,3.6h.835a1.932,1.932,0,0,1,.6-.37,1.868,1.868,0,0,1,.646-.109,1.433,1.433,0,0,1,1.056.389,1.376,1.376,0,0,1,.391,1.021,1.6,1.6,0,0,1-.389,1.142,1.406,1.406,0,0,1-1.077.415,1.283,1.283,0,0,1-1.391-.992l-.864.1a1.812,1.812,0,0,0,.726,1.182,2.549,2.549,0,0,0,1.509.408,2.4,2.4,0,0,0,1.745-.608,2.208,2.208,0,0,0,.629-1.666,2.029,2.029,0,0,0-.587-1.51A2.141,2.141,0,0,0,2039.057,1622.816Z" transform="translate(-2036.607 -1620.296)" fill="#006d84"/>
        <path id="Trazado_88710" data-name="Trazado 88710" d="M2057.224,1620.058a1.971,1.971,0,0,0-1.778.859,4.766,4.766,0,0,0-.563,2.583,4.673,4.673,0,0,0,.579,2.563,1.937,1.937,0,0,0,1.733.878,1.964,1.964,0,0,0,1.745-.883,4.6,4.6,0,0,0,.591-2.558,4.774,4.774,0,0,0-.563-2.573A1.93,1.93,0,0,0,2057.224,1620.058Zm1.087,5.511a1.253,1.253,0,0,1-2.215.015,6.508,6.508,0,0,1,0-4.192,1.186,1.186,0,0,1,1.132-.641,1.149,1.149,0,0,1,1.1.65,4.865,4.865,0,0,1,.334,2.1A4.665,4.665,0,0,1,2058.312,1625.569Z" transform="translate(-2049.486 -1620.058)" fill="#006d84"/>
        <rect id="Rectángulo_11720" data-name="Rectángulo 11720" width="2.374" height="0.76" transform="translate(10.857 3.826)" fill="#006d84"/>
        <path id="Trazado_88711" data-name="Trazado 88711" d="M2087.51,1623.338v-.019a1.375,1.375,0,0,0,.869-.536,1.632,1.632,0,0,0,.318-1,1.537,1.537,0,0,0-.572-1.258,2.4,2.4,0,0,0-1.56-.465,2.331,2.331,0,0,0-1.536.474,1.535,1.535,0,0,0-.572,1.239,1.64,1.64,0,0,0,.315,1,1.442,1.442,0,0,0,.862.556v.019a1.533,1.533,0,0,0-.959.541,1.654,1.654,0,0,0-.375,1.1,1.779,1.779,0,0,0,.605,1.443,2.533,2.533,0,0,0,1.678.508,2.482,2.482,0,0,0,1.69-.517,1.82,1.82,0,0,0,.589-1.443,1.688,1.688,0,0,0-.356-1.1A1.55,1.55,0,0,0,2087.51,1623.338Zm-2.179-1.51a1.087,1.087,0,0,1,.316-.85,1.327,1.327,0,0,1,.918-.285q1.244,0,1.244,1.135a1.143,1.143,0,0,1-.316.9,1.352,1.352,0,0,1-.918.278,1.3,1.3,0,0,1-.919-.3A1.135,1.135,0,0,1,2085.331,1621.829Zm2.3,4.137a1.433,1.433,0,0,1-1.04.334,1.234,1.234,0,0,1-1.41-1.381,1.209,1.209,0,0,1,.365-.932,1.434,1.434,0,0,1,1.016-.34,1.556,1.556,0,0,1,1.04.316,1.164,1.164,0,0,1,.37.938A1.44,1.44,0,0,1,2087.633,1625.966Z" transform="translate(-2070.216 -1620.058)" fill="#006d84"/>
        <path id="Trazado_88712" data-name="Trazado 88712" d="M2104.805,1620.058a1.971,1.971,0,0,0-1.777.859,4.766,4.766,0,0,0-.563,2.583,4.671,4.671,0,0,0,.579,2.563,1.937,1.937,0,0,0,1.732.878,1.964,1.964,0,0,0,1.745-.883,4.6,4.6,0,0,0,.591-2.558,4.774,4.774,0,0,0-.562-2.573A1.93,1.93,0,0,0,2104.805,1620.058Zm1.087,5.511a1.253,1.253,0,0,1-2.215.015,4.683,4.683,0,0,1-.349-2.084,4.737,4.737,0,0,1,.344-2.108,1.187,1.187,0,0,1,1.132-.641,1.148,1.148,0,0,1,1.1.65,4.857,4.857,0,0,1,.335,2.1A4.669,4.669,0,0,1,2105.893,1625.569Z" transform="translate(-2083.016 -1620.058)" fill="#006d84"/>
      </g>
    </g>
  </g>
</svg>
