<svg xmlns="http://www.w3.org/2000/svg" xmlns:xlink="http://www.w3.org/1999/xlink" width="604.4" height="551.632" viewBox="0 0 604.4 551.632">
  <defs>
    <clipPath id="clip-path">
      <rect id="Rectángulo_6534" data-name="Rectángulo 6534" width="135.977" height="178.221" fill="none"/>
    </clipPath>
    <clipPath id="clip-path-2">
      <rect id="Rectángulo_6538" data-name="Rectángulo 6538" width="135.977" height="178.98" fill="none"/>
    </clipPath>
  </defs>
  <g id="Grupo_32589" data-name="Grupo 32589" transform="translate(-495 -9475)">
    <rect id="Rectángulo_6481" data-name="Rectángulo 6481" width="33.225" height="10.676" rx="5.338" transform="translate(950.98 10005.2)" fill="#ffb9a1"/>
    <rect id="Rectángulo_6482" data-name="Rectángulo 6482" width="33.225" height="10.676" rx="5.338" transform="translate(543.501 9478.094)" fill="#ffb9a1"/>
    <rect id="Rectángulo_6485" data-name="Rectángulo 6485" width="33.225" height="10.676" rx="5.338" transform="translate(594.823 10008.004)" fill="#ffb9a1"/>
    <rect id="Rectángulo_6486" data-name="Rectángulo 6486" width="33.225" height="10.676" rx="5.338" transform="translate(621.731 9747.549)" fill="#ffb9a1"/>
    <rect id="Rectángulo_6487" data-name="Rectángulo 6487" width="33.225" height="10.676" rx="5.338" transform="translate(806.467 10015.956)" fill="#ffb9a1"/>
    <rect id="Rectángulo_6488" data-name="Rectángulo 6488" width="33.225" height="10.676" rx="5.338" transform="translate(823.08 9481.773)" fill="#ffb9a1"/>
    <rect id="Rectángulo_6489" data-name="Rectángulo 6489" width="33.225" height="10.676" rx="5.338" transform="translate(819.157 9999.135)" fill="#ffb9a1"/>
    <g id="Grupo_32526" data-name="Grupo 32526" transform="translate(503.721 9509.734)">
      <rect id="Rectángulo_6491" data-name="Rectángulo 6491" width="40.938" height="483.51" transform="translate(0 0)" fill="#ffb9a1" opacity="0.41"/>
      <rect id="Rectángulo_6492" data-name="Rectángulo 6492" width="5.007" height="483.51" transform="translate(30.222 0)" fill="#ffb9a1" opacity="0.4" style="mix-blend-mode: multiply;isolation: isolate"/>
      <rect id="Rectángulo_6493" data-name="Rectángulo 6493" width="5.007" height="483.51" transform="translate(18.022 0)" fill="#ffb9a1" opacity="0.4" style="mix-blend-mode: multiply;isolation: isolate"/>
      <rect id="Rectángulo_6494" data-name="Rectángulo 6494" width="5.007" height="483.51" transform="translate(5.823 0)" fill="#ffb9a1" opacity="0.4" style="mix-blend-mode: multiply;isolation: isolate"/>
    </g>
    <g id="Grupo_32527" data-name="Grupo 32527" transform="translate(756.883 9509.734)">
      <rect id="Rectángulo_6495" data-name="Rectángulo 6495" width="40.938" height="483.51" transform="translate(0 0)" fill="#ffb9a1" opacity="0.41"/>
      <rect id="Rectángulo_6496" data-name="Rectángulo 6496" width="5.007" height="483.51" transform="translate(30.308 0)" fill="#ffb9a1" opacity="0.4" style="mix-blend-mode: multiply;isolation: isolate"/>
      <rect id="Rectángulo_6497" data-name="Rectángulo 6497" width="5.007" height="483.51" transform="translate(18.108 0)" fill="#ffb9a1" opacity="0.4" style="mix-blend-mode: multiply;isolation: isolate"/>
      <rect id="Rectángulo_6498" data-name="Rectángulo 6498" width="5.007" height="483.51" transform="translate(5.908 0)" fill="#ffb9a1" opacity="0.4" style="mix-blend-mode: multiply;isolation: isolate"/>
    </g>
    <g id="Grupo_32528" data-name="Grupo 32528" transform="translate(1010.266 9509.734)">
      <rect id="Rectángulo_6499" data-name="Rectángulo 6499" width="40.938" height="483.51" transform="translate(0 0)" fill="#ffb9a1" opacity="0.41"/>
      <rect id="Rectángulo_6500" data-name="Rectángulo 6500" width="5.007" height="483.51" transform="translate(30.165 0)" fill="#ffb9a1" opacity="0.4" style="mix-blend-mode: multiply;isolation: isolate"/>
      <rect id="Rectángulo_6501" data-name="Rectángulo 6501" width="5.007" height="483.51" transform="translate(17.965 0)" fill="#ffb9a1" opacity="0.4" style="mix-blend-mode: multiply;isolation: isolate"/>
      <rect id="Rectángulo_6502" data-name="Rectángulo 6502" width="5.007" height="483.51" transform="translate(5.766 0)" fill="#ffb9a1" opacity="0.4" style="mix-blend-mode: multiply;isolation: isolate"/>
    </g>
    <g id="Grupo_32533" data-name="Grupo 32533" transform="translate(550.136 9509.734)">
      <g id="Grupo_32531" data-name="Grupo 32531" transform="translate(0 0)">
        <rect id="Rectángulo_6507" data-name="Rectángulo 6507" width="149.685" height="194.557" transform="translate(26.179)" fill="#2d2d2d"/>
        <rect id="Rectángulo_6508" data-name="Rectángulo 6508" width="135.978" height="178.674" transform="translate(33.031 6.972)" fill="#75a1e0"/>
        <path id="Trazado_61636" data-name="Trazado 61636" d="M247.74,86.63H173.68V226.944c21.487-30.759,41.977-61.718,61-96.166C242.663,116.8,246.325,101.91,247.74,86.63Z" transform="translate(-140.649 -79.658)" fill="#f6f6f6"/>
        <path id="Trazado_61637" data-name="Trazado 61637" d="M356.042,156.719c0,1.4,2.1,16.826,4.207,21.734q1.729,5.269,3.47,10.526V86.63H355.4A536.743,536.743,0,0,0,356.042,156.719Z" transform="translate(-194.71 -79.658)" fill="#f6f6f6"/>
        <rect id="Rectángulo_6509" data-name="Rectángulo 6509" width="201.382" height="6.393" transform="translate(0 202.7)" fill="#ffb9a1"/>
        <path id="Trazado_61638" data-name="Trazado 61638" d="M126.566,362.154l26.765-8.562H302.2l25.748,8.562Z" transform="translate(-126.566 -159.454)" fill="#f6f6f6"/>
      </g>
      <g id="Grupo_32532" data-name="Grupo 32532" transform="translate(31.931 6.972)">
        <path id="Trazado_61639" data-name="Trazado 61639" d="M173.682,86.63H309.659v35.337l-135.977.05Z" transform="translate(-172.58 -86.63)" fill="#e5e5e5" opacity="0.28"/>
        <rect id="Rectángulo_6510" data-name="Rectángulo 6510" width="137.98" height="3.671" transform="translate(0 35.387)" fill="#2d2d2d"/>
        <path id="Trazado_61640" data-name="Trazado 61640" d="M215.682,129.791,263.4,112.637l-37.12,17.151Z" transform="translate(-185.134 -94.404)" fill="#f6f6f6" opacity="0.36"/>
        <path id="Trazado_61641" data-name="Trazado 61641" d="M287.6,107.3l30.99-20.669h10.166Z" transform="translate(-206.629 -86.63)" fill="#f6f6f6" opacity="0.36"/>
      </g>
    </g>
    <g id="Grupo_32536" data-name="Grupo 32536" transform="translate(802.977 9509.734)">
      <g id="Grupo_32534" data-name="Grupo 32534" transform="translate(0 0)">
        <rect id="Rectángulo_6511" data-name="Rectángulo 6511" width="149.685" height="194.557" transform="translate(26.179)" fill="#2d2d2d"/>
        <rect id="Rectángulo_6512" data-name="Rectángulo 6512" width="135.977" height="178.221" transform="translate(33.033 7.428)" fill="#75a1e0"/>
        <path id="Trazado_61642" data-name="Trazado 61642" d="M693.258,144.574c3.332,2.619,9.795,6.152,13.275,8.415V87.28H655.554C663.464,109.937,673.563,129.423,693.258,144.574Z" transform="translate(-537.523 -79.852)" fill="#f6f6f6"/>
        <rect id="Rectángulo_6513" data-name="Rectángulo 6513" width="201.382" height="6.393" transform="translate(0 202.7)" fill="#ffb9a1"/>
        <path id="Trazado_61643" data-name="Trazado 61643" d="M487.2,362.154l26.765-8.562h149.1l25.518,8.562Z" transform="translate(-487.202 -159.454)" fill="#f6f6f6"/>
      </g>
      <g id="Grupo_32535" data-name="Grupo 32535" transform="translate(32.689 7.428)">
        <path id="Trazado_61644" data-name="Trazado 61644" d="M534.319,87.28H670.3v36.557l-135.977.052Z" transform="translate(-533.974 -87.28)" fill="#e5e5e5" opacity="0.28"/>
        <rect id="Rectángulo_6514" data-name="Rectángulo 6514" width="136.677" height="3.671" transform="translate(0 35.395)" fill="#2d2d2d"/>
        <path id="Trazado_61645" data-name="Trazado 61645" d="M552.863,130.453,600.582,113.3l-37.12,17.151Z" transform="translate(-539.517 -95.057)" fill="#f6f6f6" opacity="0.36"/>
        <path id="Trazado_61646" data-name="Trazado 61646" d="M656.5,107.949l30.99-20.669h10.166Z" transform="translate(-570.495 -87.28)" fill="#f6f6f6" opacity="0.36"/>
      </g>
    </g>
    <path id="Trazado_61647" data-name="Trazado 61647" d="M556.422,539.009H555.9a1.2,1.2,0,0,0-.368-.925,2.743,2.743,0,0,0-1.775-.5l-.036-.525a3.248,3.248,0,0,1,2.17.636A1.716,1.716,0,0,1,556.422,539.009Z" transform="translate(295.893 9295.441)" fill="#212121"/>
    <g id="Grupo_32540" data-name="Grupo 32540" transform="translate(803.423 9767.037)">
      <g id="Grupo_32537" data-name="Grupo 32537" transform="translate(0 0)">
        <rect id="Rectángulo_6515" data-name="Rectángulo 6515" width="149.685" height="194.557" transform="translate(26.179)" fill="#2d2d2d"/>
        <rect id="Rectángulo_6516" data-name="Rectángulo 6516" width="135.977" height="178.465" transform="translate(33.033 7.184)" fill="#525fa0"/>
        <rect id="Rectángulo_6517" data-name="Rectángulo 6517" width="201.382" height="6.393" transform="translate(0 202.7)" fill="#ffb9a1"/>
        <path id="Trazado_61648" data-name="Trazado 61648" d="M847.839,362.154l26.765-8.562h146.6l28.021,8.562Z" transform="translate(-847.839 -159.454)" fill="#f6f6f6"/>
      </g>
      <path id="Trazado_61649" data-name="Trazado 61649" d="M952.2,86.933s-9.847,57.13-26.447,89.36c-12.076,23.448-30.8,34.4-30.8,34.4V86.933Z" transform="translate(-861.922 -79.749)" fill="#f6f6f6"/>
      <g id="Grupo_32538" data-name="Grupo 32538" transform="translate(95.855 7.184)">
        <path id="Trazado_61650" data-name="Trazado 61650" d="M984.56,86.933s7.4,71.344,27.067,104.1,46.088,51.592,46.088,51.592V86.933Z" transform="translate(-984.56 -86.933)" fill="#f6f6f6"/>
        <path id="Trazado_61651" data-name="Trazado 61651" d="M1067.971,238.4s-18.4-16.394-32.438-45.92c-5.886-12.382-16.339-43.514-16.339-43.514s14.9,32.114,21.194,45.085c8.465,17.431,27.577,37.745,27.577,37.745Z" transform="translate(-994.912 -105.476)" fill="#7cbed8" opacity="0.3" style="mix-blend-mode: multiply;isolation: isolate"/>
        <path id="Trazado_61652" data-name="Trazado 61652" d="M1067.156,185.953s-18.4-16.394-32.438-45.92c-5.887-12.381-16.338-43.513-16.338-43.513s14.9,32.114,21.194,45.084c8.464,17.431,27.577,37.746,27.577,37.746Z" transform="translate(-994.669 -89.799)" fill="#7cbed8" opacity="0.3" style="mix-blend-mode: multiply;isolation: isolate"/>
      </g>
      <g id="Grupo_32539" data-name="Grupo 32539" transform="translate(32.714 7.184)">
        <path id="Trazado_61653" data-name="Trazado 61653" d="M894.955,86.933h135.977v35.345l-135.977.05Z" transform="translate(-894.636 -86.933)" fill="#e5e5e5" opacity="0.28"/>
        <rect id="Rectángulo_6518" data-name="Rectángulo 6518" width="137.101" height="3.671" transform="translate(0 35.395)" fill="#2d2d2d"/>
        <path id="Trazado_61654" data-name="Trazado 61654" d="M912.992,130.092l47.719-17.154-37.12,17.151Z" transform="translate(-900.028 -94.706)" fill="#f6f6f6" opacity="0.36"/>
        <path id="Trazado_61655" data-name="Trazado 61655" d="M1012.311,107.6l30.99-20.669h10.166Z" transform="translate(-929.715 -86.933)" fill="#f6f6f6" opacity="0.36"/>
      </g>
    </g>
    <g id="Grupo_32551" data-name="Grupo 32551" transform="translate(550.422 9766.903)">
      <g id="Grupo_32549" data-name="Grupo 32549" transform="translate(0 0)">
        <rect id="Rectángulo_6524" data-name="Rectángulo 6524" width="149.685" height="194.557" transform="translate(26.179)" fill="#2d2d2d"/>
        <rect id="Rectángulo_6525" data-name="Rectángulo 6525" width="135.977" height="178.98" transform="translate(33.033 6.669)" fill="#525fa0"/>
        <rect id="Rectángulo_6526" data-name="Rectángulo 6526" width="201.382" height="6.394" transform="translate(0 202.7)" fill="#ffb9a1"/>
        <path id="Trazado_61684" data-name="Trazado 61684" d="M126.974,728.963l26.765-8.562h146.6l28.021,8.562Z" transform="translate(-126.974 -526.264)" fill="#f6f6f6"/>
      </g>
      <path id="Trazado_61685" data-name="Trazado 61685" d="M173.807,453.007h74.937s-48.308,85.485-75.6,92.193Z" transform="translate(-140.774 -446.338)" fill="#f6f6f6"/>
      <g id="Grupo_32550" data-name="Grupo 32550" transform="translate(32.37 6.659)">
        <path id="Trazado_61686" data-name="Trazado 61686" d="M173.945,453.007H310.023v35.337l-136.079.048Z" transform="translate(-173.384 -452.997)" fill="#e5e5e5" opacity="0.28"/>
        <rect id="Rectángulo_6527" data-name="Rectángulo 6527" width="137.095" height="3.671" transform="translate(0 35.395)" fill="#2d2d2d"/>
        <path id="Trazado_61687" data-name="Trazado 61687" d="M192.127,496.165l47.719-17.154-37.12,17.151Z" transform="translate(-178.818 -460.77)" fill="#f6f6f6" opacity="0.36"/>
        <path id="Trazado_61688" data-name="Trazado 61688" d="M296.084,473.662l30.99-20.669H337.24Z" transform="translate(-209.892 -452.993)" fill="#f6f6f6" opacity="0.36"/>
      </g>
    </g>
    <g id="Grupo_32561" data-name="Grupo 32561" transform="translate(836.01 9517.162)">
      <g id="Grupo_32560" data-name="Grupo 32560" transform="translate(0 0)" clip-path="url(#clip-path)">
        <g id="Grupo_32559" data-name="Grupo 32559" transform="translate(22.538 47.023)">
          <path id="Trazado_61694" data-name="Trazado 61694" d="M637.154,217.15s-23.794-10.577-33.282-7.462-11.809-17.8-6.922-20.462,9.51-4.071,7.784-10.759c-1.866-7.236-.575-15.245,3.45-18.343s11.2-2.944,11.2-2.944,9.321-5.6,16.536-1.042c10.559,6.67,6.387,15.149,9.259,19.241s10.385,7.568,11.822,15.331S652.612,214.885,637.154,217.15Z" transform="translate(-574.834 -154.351)" fill="#bd5d40"/>
          <g id="Grupo_32555" data-name="Grupo 32555" transform="translate(19.629 0)" opacity="0.3" style="mix-blend-mode: multiply;isolation: isolate">
            <path id="Trazado_61695" data-name="Trazado 61695" d="M596.95,189.226c4.887-2.66,9.51-4.071,7.784-10.759-1.866-7.236-.575-15.245,3.45-18.343s11.2-2.944,11.2-2.944,7.65-4.594,14.453-2.072a22.6,22.6,0,0,0-8.792,2.779s-7.178-.154-11.2,2.944-9.922,10-7.981,18.8c1.488,6.744,1.9,8.206-3.253,10.3-9.759,3.965-3.224,15.511,1.852,19.594-.2.051-.4.1-.591.161C594.384,212.8,592.062,191.885,596.95,189.226Z" transform="translate(-594.463 -154.351)" fill="#b76c63"/>
          </g>
          <path id="Trazado_61696" data-name="Trazado 61696" d="M670.534,207.629s-2.066-5.89-10.584.069c-3.784,2.647-8.237,11.776-6.29,19.964s21.4,9.567,21.4,9.567,11.074.862,12.951-8.824C692.752,203.958,670.534,207.629,670.534,207.629Z" transform="translate(-592.386 -169.499)" fill="#292934"/>
          <path id="Trazado_61697" data-name="Trazado 61697" d="M590.133,266.788l-17.107-2.3s5.607-39.457,38.095-31.338c37.526,9.379,26.163,13.322,29.038,29.805s-9.465,54.26-9.465,54.26L588.055,309.2Z" transform="translate(-568.426 -177.575)" fill="#e54848"/>
          <path id="Trazado_61698" data-name="Trazado 61698" d="M658.912,598.731l1.074,7.623a2.932,2.932,0,0,1-2.493,3.312l-28.213,3.977s-.116-2.883,4.074-4.055,12.947-9.08,12.947-9.08Z" transform="translate(-585.241 -287.178)" fill="#ad5d53"/>
          <path id="Trazado_61699" data-name="Trazado 61699" d="M618.535,190.165a91.653,91.653,0,0,1,2.5-13.569c1.892,0,9.477-7.476,9.477-7.476s2.406,9.252,6.265,12.876c3.379,3.173,8.874,3.679,8.875,3.679,1.446.227,3.44,1.609,2.8,3.894-1.981,7.093-7.652,4.728-7.652,4.728h0L635.91,217.5,624.7,214.34,626.422,205S617.473,207.354,618.535,190.165Z" transform="translate(-582.003 -158.765)" fill="#ffaca6"/>
          <path id="Trazado_61700" data-name="Trazado 61700" d="M655.192,223.71c1.031-3.062,3.94-1.5,3.94-1.5s4.453-7.7,11.576-6.116a21.7,21.7,0,0,0,2.469,9.886,4.839,4.839,0,0,0,4.54,2.588c.649-.076,3.3-.241,2.3,3.348-.708,2.547-4.128,2.182-4.128,2.182l-4.42,14.743-9.325-2.45,1.736-5.249s-4.46.819-5.641-3.33c-1.253-4.4-.914-10.6-.914-10.6S654.16,226.771,655.192,223.71Z" transform="translate(-592.924 -172.743)" fill="#ffaca6"/>
          <path id="Trazado_61701" data-name="Trazado 61701" d="M624.671,199.86a1.332,1.332,0,0,0,.224-.019.248.248,0,0,0,.2-.287.245.245,0,0,0-.288-.2,1.134,1.134,0,0,1-1.246-.864c-.284-.8,1.331-3.635,2.415-5.23a.247.247,0,1,0-.409-.278c-.3.444-2.933,4.371-2.473,5.673A1.659,1.659,0,0,0,624.671,199.86Z" transform="translate(-583.375 -165.865)" fill="#b76c63"/>
          <path id="Trazado_61702" data-name="Trazado 61702" d="M652.7,197.676a.248.248,0,0,0,.221-.137,2.572,2.572,0,0,1,3.343-1.462.25.25,0,0,0,.325-.133.247.247,0,0,0-.132-.324,3.092,3.092,0,0,0-3.977,1.7.247.247,0,0,0,.109.332A.255.255,0,0,0,652.7,197.676Z" transform="translate(-592.166 -166.625)" fill="#b76c63"/>
          <path id="Trazado_61703" data-name="Trazado 61703" d="M631.684,190.853c-.3.7-.283,1.379.05,1.526s.851-.3,1.157-1,.283-1.38-.05-1.526S631.99,190.157,631.684,190.853Z" transform="translate(-585.895 -164.955)" fill="#353535"/>
          <path id="Trazado_61704" data-name="Trazado 61704" d="M624.315,188.95c-.175.659-.06,1.261.255,1.344s.712-.383.886-1.043.06-1.261-.255-1.344S624.49,188.291,624.315,188.95Z" transform="translate(-583.732 -164.378)" fill="#353535"/>
          <path id="Trazado_61705" data-name="Trazado 61705" d="M627.6,207.887a4.555,4.555,0,0,0,3.308-1.632.248.248,0,0,0-.393-.3,3.737,3.737,0,0,1-5.07.763.248.248,0,1,0-.261.421A4.56,4.56,0,0,0,627.6,207.887Z" transform="translate(-583.982 -169.746)" fill="#b76c63"/>
          <path id="Trazado_61706" data-name="Trazado 61706" d="M639.224,260.362l18.513-2.024s9.443.1,10.734,2.537c5.058,9.552,12.879,25.26,3.55,50.716-3.432,9.367-26.877-3.478-26.877-3.478l5.171-32.487h-8.481S639.224,261.133,639.224,260.362Z" transform="translate(-588.213 -185.433)" fill="#3f4ce8"/>
          <path id="Trazado_61707" data-name="Trazado 61707" d="M662.036,282.2l-7.466.632-1.273,8.446Z" transform="translate(-592.419 -192.564)" fill="#2e42d8"/>
          <path id="Trazado_61708" data-name="Trazado 61708" d="M629.671,252.288l2.212,12.866s-13.68-.575-16.842-5.175-8.145-28.65-8.625-31.051c-.719-3.594,3.829-2.632,5.319,0,1.018,1.8,2.819,3.992,3.45,6.281,0,0-1.186-6.038.4-5.175s4.492,16.118,6.29,19.163C624.176,253.109,629.671,252.288,629.671,252.288Z" transform="translate(-578.383 -175.94)" fill="#ffaca6"/>
          <g id="Grupo_32556" data-name="Grupo 32556" transform="translate(27.955 50.646)" opacity="0.3" style="mix-blend-mode: multiply;isolation: isolate">
            <path id="Trazado_61709" data-name="Trazado 61709" d="M608.972,226.754a3.407,3.407,0,0,0,.105.747c.606,2.372,6.85,26.126,10.25,30.553,2.037,2.651,7.763,3.661,12.029,4.045l.526,3.057s-13.68-.575-16.842-5.175-8.145-28.65-8.625-31.05C605.988,226.793,607.424,226.275,608.972,226.754Z" transform="translate(-606.339 -226.589)" fill="#f9a298"/>
          </g>
          <path id="Trazado_61710" data-name="Trazado 61710" d="M634.517,348.071l-43.281-5.985s-7.267,28.753-7.554,48.3,3.738,135.274,3.738,135.274h18.113l1.924-133.549,8.139,63.466,13.513,69.828,18.777-3.181s-10.657-57.869-12.74-77.693C632.626,420.546,634.517,348.071,634.517,348.071Z" transform="translate(-571.607 -210.466)" fill="#db9435"/>
          <path id="Trazado_61711" data-name="Trazado 61711" d="M598.4,603.929v7.682a2.931,2.931,0,0,1-2.931,2.931h-29s.287-2.863,4.6-3.438,14.088-7.176,14.088-7.176Z" transform="translate(-566.465 -288.731)" fill="#ad5d53"/>
          <path id="Trazado_61712" data-name="Trazado 61712" d="M674.046,332.811l-26.877-3.478-.468,10.984-.7,3.505s20.3-.768,28.978,1.4C675.914,345.458,674.046,332.811,674.046,332.811Z" transform="translate(-590.238 -206.654)" fill="#2e42d8"/>
          <path id="Trazado_61713" data-name="Trazado 61713" d="M629.779,358.3l-7.945,2.579s-6.659,10.063-5.221,12.651c1.217,2.19,10.816-6.748,13.73-9.541a1.922,1.922,0,0,0,.518-1.92Z" transform="translate(-581.394 -215.311)" fill="#4b77bc"/>
          <path id="Trazado_61714" data-name="Trazado 61714" d="M646.951,353.192l-6.629,6.2s-2.018,12.264.548,13.873c2.168,1.358,7.547-11.272,9.168-15.236a1.919,1.919,0,0,0-.4-2.064Z" transform="translate(-588.316 -213.785)" fill="#4b77bc"/>
          <g id="Grupo_32557" data-name="Grupo 32557" transform="translate(21.319 78.096)" opacity="0.3" style="mix-blend-mode: multiply;isolation: isolate">
            <path id="Trazado_61715" data-name="Trazado 61715" d="M596.873,276.859l4.147-11.117L599.6,278.817l-2.722,1.89Z" transform="translate(-596.873 -265.742)" fill="#86af6c"/>
          </g>
          <path id="Trazado_61716" data-name="Trazado 61716" d="M615.3,393.377l.192,15.1L614.346,473.5S603.786,378.127,615.3,393.377Z" transform="translate(-579.455 -225.303)" fill="#d68f31" opacity="0.3" style="mix-blend-mode: multiply;isolation: isolate"/>
          <path id="Trazado_61717" data-name="Trazado 61717" d="M666.478,243.083a36.021,36.021,0,0,0-4.015-.987.169.169,0,0,0-.2.186c.076.605.4,2.219,1.742,2.37C665,244.765,667.175,243.309,666.478,243.083Z" transform="translate(-595.099 -180.577)" fill="#fff"/>
          <path id="Trazado_61718" data-name="Trazado 61718" d="M664.942,238.381a.248.248,0,0,0,.088-.479,1.308,1.308,0,0,1-.742-.8,2.526,2.526,0,0,1,.843-2.052.248.248,0,1,0-.377-.322,2.907,2.907,0,0,0-.943,2.5,1.786,1.786,0,0,0,1.045,1.14A.244.244,0,0,0,664.942,238.381Z" transform="translate(-595.547 -178.349)" fill="#b76c63"/>
          <path id="Trazado_61719" data-name="Trazado 61719" d="M670.759,230.121c-.172.565-.13,1.078.094,1.146s.543-.335.715-.9.13-1.078-.094-1.146S670.931,229.557,670.759,230.121Z" transform="translate(-597.607 -176.728)" fill="#353535"/>
          <path id="Trazado_61720" data-name="Trazado 61720" d="M664.575,228.775c-.168.552-.142,1.05.059,1.111s.5-.338.667-.891.142-1.05-.059-1.111S664.743,228.222,664.575,228.775Z" transform="translate(-595.757 -176.328)" fill="#353535"/>
          <path id="Trazado_61721" data-name="Trazado 61721" d="M668.672,235.147c.022.593,1.093,1.033,2.391.984s2.332-.569,2.309-1.162-1.093-1.033-2.391-.984S668.649,234.554,668.672,235.147Z" transform="translate(-597.015 -178.152)" fill="#ed8a83" opacity="0.5"/>
          <path id="Trazado_61722" data-name="Trazado 61722" d="M659.125,231.287c-.3.49.161,1.326,1.036,1.868s1.83.583,2.133.093-.16-1.326-1.035-1.868S659.429,230.8,659.125,231.287Z" transform="translate(-594.134 -177.245)" fill="#ed8a83" opacity="0.5"/>
          <g id="Grupo_32558" data-name="Grupo 32558" transform="translate(69.824 67.696)" opacity="0.3" style="mix-blend-mode: multiply;isolation: isolate">
            <path id="Trazado_61723" data-name="Trazado 61723" d="M667.191,251.615s3.032.849,8.1-.707a8.4,8.4,0,0,1-9.229,4.136l1.134-3.428Z" transform="translate(-666.057 -250.908)" fill="#e2978d"/>
          </g>
          <path id="Trazado_61724" data-name="Trazado 61724" d="M666.794,225.111a.449.449,0,0,0,.379-.689,1.849,1.849,0,0,0-1.242-.8,1.177,1.177,0,0,0-.987.376.449.449,0,0,0,.646.623.282.282,0,0,1,.25-.106.979.979,0,0,1,.574.389A.45.45,0,0,0,666.794,225.111Z" transform="translate(-595.863 -175.054)" fill="#292934"/>
          <path id="Trazado_61725" data-name="Trazado 61725" d="M673.41,228.167a.554.554,0,0,0,.067,0,.468.468,0,0,0,.4-.531,1.8,1.8,0,0,0-.75-1.279,2.7,2.7,0,0,0-1.967-.28.469.469,0,0,0,.215.913,1.79,1.79,0,0,1,1.227.144.864.864,0,0,1,.346.634A.469.469,0,0,0,673.41,228.167Z" transform="translate(-597.65 -175.767)" fill="#292934"/>
          <path id="Trazado_61726" data-name="Trazado 61726" d="M685.7,237.3a.245.245,0,0,0,.214-.125,1.04,1.04,0,0,1,.706-.555,2.466,2.466,0,0,1,1.645.522.248.248,0,1,0,.3-.394,2.982,2.982,0,0,0-2.044-.613,1.529,1.529,0,0,0-1.037.8.248.248,0,0,0,.215.37Z" transform="translate(-602.031 -178.787)" fill="#b76c63"/>
          <path id="Trazado_61727" data-name="Trazado 61727" d="M658.633,227.418a.255.255,0,0,0,.046,0,.248.248,0,0,0,.2-.29c-.042-.226-.283-1.369-.871-1.617a.654.654,0,0,0-.639.08.248.248,0,0,0,.274.413c.1-.067.149-.047.172-.036.254.107.494.811.577,1.252A.248.248,0,0,0,658.633,227.418Z" transform="translate(-593.603 -175.605)" fill="#b76c63"/>
          <path id="Trazado_61728" data-name="Trazado 61728" d="M683.117,225.9a.247.247,0,0,0,.108-.47c-3.361-1.624-6.137-9.975-6.165-10.059a.247.247,0,1,0-.47.155c.115.351,2.872,8.635,6.42,10.351A.242.242,0,0,0,683.117,225.9Z" transform="translate(-599.378 -172.538)" fill="#c9821c" opacity="0.5" style="mix-blend-mode: multiply;isolation: isolate"/>
          <rect id="Rectángulo_6532" data-name="Rectángulo 6532" width="0.495" height="7.771" transform="translate(30.806 51.076) rotate(-25.999)" fill="#bf764f"/>
          <path id="Trazado_61729" data-name="Trazado 61729" d="M638.726,460.529l.493-.036c-1.068-14.741-2.13-30.949-2.14-31.11l-.495.032C636.594,429.576,637.656,445.786,638.726,460.529Z" transform="translate(-587.424 -236.559)" fill="#db9435" opacity="0.5" style="mix-blend-mode: multiply;isolation: isolate"/>
          <path id="Trazado_61730" data-name="Trazado 61730" d="M613.795,267.309c-4.57,12.8-26.308,45.97-35.023,43.87-9.252-2.228-3.934-37.376-3.934-37.376l14.375,1.725-1.868,6.9s3.309-3.384,9.275-8.385c.435-.364,5.976-12.355,7.935-12.749,1.115-.224-2.658,8.607-1.916,7.783C609.644,261.29,616.553,259.586,613.795,267.309Z" transform="translate(-568.513 -186.315)" fill="#ffaca6"/>
          <path id="Trazado_61731" data-name="Trazado 61731" d="M592.007,290.338l-.262-.42c-1.72,1.073-5.767,7.707-5.938,7.989Z" transform="translate(-572.246 -194.872)" fill="#b76c63"/>
          <path id="Trazado_61732" data-name="Trazado 61732" d="M617.966,270.076c1.838-1.622,6.866-5.9,8.03-6.223l-.131-.478c-1.512.416-7.953,6.088-8.226,6.329Z" transform="translate(-581.761 -186.938)" fill="#bf764f"/>
          <rect id="Rectángulo_6533" data-name="Rectángulo 6533" width="15.756" height="0.496" transform="translate(34.114 101.172) rotate(-59.456)" fill="#b76c63"/>
          <path id="Trazado_61733" data-name="Trazado 61733" d="M688.576,227.145a.247.247,0,0,0,.033-.492c-4.094-.549-8.048-7.893-8.088-7.967a.248.248,0,0,0-.437.233c.166.311,4.112,7.642,8.459,8.224Z" transform="translate(-600.418 -173.542)" fill="#c9821c" opacity="0.5" style="mix-blend-mode: multiply;isolation: isolate"/>
          <path id="Trazado_61734" data-name="Trazado 61734" d="M620.221,272.68c.29-.89,5.166-4.076,8.171-5.874l-.255-.426c-.811.487-7.945,4.786-8.387,6.146Z" transform="translate(-582.392 -187.837)" fill="#bf764f"/>
          <path id="Trazado_61735" data-name="Trazado 61735" d="M634.45,187.87a.551.551,0,0,0,.428-.8,2.312,2.312,0,0,0-2.808-1.207.551.551,0,0,0,.374,1.037c.919-.334,1.435.637,1.456.679A.55.55,0,0,0,634.45,187.87Z" transform="translate(-585.966 -163.728)" fill="#b76c63"/>
          <path id="Trazado_61736" data-name="Trazado 61736" d="M623.893,185.546a.552.552,0,0,1-.008-.91,2.312,2.312,0,0,1,3.048.233.551.551,0,1,1-.813.745,1.243,1.243,0,0,0-1.6-.074A.551.551,0,0,1,623.893,185.546Z" transform="translate(-583.558 -163.263)" fill="#b76c63"/>
          <path id="Trazado_61737" data-name="Trazado 61737" d="M631.436,216.808a.261.261,0,0,0,.051-.006c7.129-1.507,10.732-8.2,10.768-8.263a.248.248,0,0,0-.438-.232c-.034.066-3.535,6.552-10.432,8.011a.248.248,0,0,0,.051.49Z" transform="translate(-585.811 -170.439)" fill="#b76c63"/>
        </g>
      </g>
    </g>
    <g id="Grupo_32562" data-name="Grupo 32562" transform="translate(606.501 9560.939)">
      <path id="Trazado_61738" data-name="Trazado 61738" d="M269.549,185.063s1.914-5.178,0-9.355c-1.377-3.006-2.588-9.163-10.179-11.94s-16.146.251-16.146.251.383-9.475-4.763-12.641-12.129-1.671-12.467,3.422-.8,13.089-3.573,14.1-7.7-1.23-7.7-1.23,1.478,6.458,7.191,6.962,10.752-5.382,11.64-8.619-1.241-6.438,2.347-6.122,4.057,4.209,4.057,4.209,1.383,1.007-.565,3.653-5.222,8.815-5.054,13.746a21.012,21.012,0,0,0,5.052,13.481c3.661,4.166,11.157,7.413,13.874,6.592C259.273,199.762,269.549,185.063,269.549,185.063Z" transform="translate(-209.283 -149.722)" fill="#282828"/>
      <path id="Trazado_61739" data-name="Trazado 61739" d="M330.9,199.489c.686-3.536.316-11.966-1.7-9.634,0,0,.019-4.232-1.581-4.232,0,0,.436-2.708-1.447-2.115-1.378.435-1.315,10.879-1.315,10.879-.434-4.566.325-9.576-1.575-8.954-1.447.473-.133,8.274-2.19,10.908s-6.33,4.722-6.33,4.722.663-2.786,2.034-6.665,0-3.906,0-3.906-1.713,2.985-4.8,7.749-1.95,12.074-1.142,18.089c1.247,9.284,5.009,28.628,5.009,28.628a163.013,163.013,0,0,1-11.408-15.831c-4.8-7.828-10.438-8.389-10.438-8.389-4.456,11.008,1.555,24.544,1.555,24.544s27.476,27.892,34.935,20.423c5.893-5.9-13.026-54.4-13.026-54.4l2.743-1.883C321.869,208.287,330.214,203.024,330.9,199.489Z" transform="translate(-232.491 -159.795)" fill="#965e56"/>
      <path id="Trazado_61740" data-name="Trazado 61740" d="M289.211,272.24c-.365,7.369-6.969,10.131-6.969,10.131l-1.648,5.02-3.512,10.692s2.272,5.041,5.3,12.031H241.74c.946-2.538,1.781-4.817,2.468-6.689,1.206-3.3,1.928-5.342,1.928-5.342l-.105-6.773V291.3l-.266-16.672.217-1.612v-.007l4.571-34.473.168-.014h.028l10.068-.68,11.119-.757,6.941-.47h.007l1.15-.077s.042.133.133.386v.007c.456,1.36,2.012,6.1,3.723,11.757,1.269,4.193,2.608,8.9,3.632,13.1.673,2.769,1.206,5.314,1.486,7.362A17.44,17.44,0,0,1,289.211,272.24Z" transform="translate(-217.357 -175.672)" fill="#3f4ce8"/>
      <path id="Trazado_61741" data-name="Trazado 61741" d="M274.81,218.722l-.579-8.213s4.689-1.477,5.537-3.711,1.734-12.29,1.237-14.046-5.837-11.374-5.837-11.374a16.736,16.736,0,0,1-7.126-2.331c-2.946-1.99-5.095-3.6-5.095-3.6a12.187,12.187,0,0,1,.044,7.4,72.2,72.2,0,0,1-5.1,11.513s-5.781-2.349-6.617.107c-1.1,3.219,6.9,11.559,9.754,9.865l1.247,5.133,1.369,10.189S273.539,221.743,274.81,218.722Z" transform="translate(-220.177 -157.41)" fill="#965e56"/>
      <path id="Trazado_61742" data-name="Trazado 61742" d="M281.147,212.719l4.148-1.075s-.109,3.688-2.334,3.491C281.655,215.02,281.147,212.719,281.147,212.719Z" transform="translate(-229.136 -168.23)" fill="#fff"/>
      <path id="Trazado_61743" data-name="Trazado 61743" d="M282.411,205.732H282.4v-.559h0c.085,0,1.948-.02,2.089-1.618.114-1.3-2.071-4.106-2.923-5.079l.421-.368c.132.15,3.218,3.7,3.06,5.5A2.49,2.49,0,0,1,282.411,205.732Z" transform="translate(-229.262 -164.184)" fill="#cc847a" opacity="0.5" style="mix-blend-mode: multiply;isolation: isolate"/>
      <path id="Trazado_61744" data-name="Trazado 61744" d="M274.719,197.584c.269.811.2,1.565-.156,1.683s-.861-.444-1.13-1.256-.2-1.565.156-1.683S274.449,196.772,274.719,197.584Z" transform="translate(-226.781 -163.648)" fill="#282828"/>
      <path id="Trazado_61745" data-name="Trazado 61745" d="M286.184,194.2c.269.812.2,1.565-.156,1.683s-.861-.445-1.13-1.256-.2-1.565.156-1.683S285.914,193.392,286.184,194.2Z" transform="translate(-230.208 -162.637)" fill="#282828"/>
      <path id="Trazado_61746" data-name="Trazado 61746" d="M268.971,220.758a26.005,26.005,0,0,0,8.046,2.316c3.895.29,8.071-2.908,8.071-2.908s-.513,2.122-5.537,3.711l.266,3.77a8.389,8.389,0,0,1-5.531-1.3A19.405,19.405,0,0,1,268.971,220.758Z" transform="translate(-225.497 -170.778)" fill="#cc847a" opacity="0.23" style="mix-blend-mode: multiply;isolation: isolate"/>
      <path id="Trazado_61747" data-name="Trazado 61747" d="M332.471,278.1a14.18,14.18,0,0,1-7.029-7.129l.519-.208a13.874,13.874,0,0,0,6.733,6.823Z" transform="translate(-242.376 -185.903)" fill="#cc847a" style="mix-blend-mode: multiply;isolation: isolate"/>
      <path id="Trazado_61748" data-name="Trazado 61748" d="M337.443,206.607l-.317-.461c.04-.027,4-2.778,4.974-5.05.711-1.664.182-6.965.177-7.019l.556-.057c.023.224.549,5.5-.218,7.3C341.581,203.737,337.611,206.49,337.443,206.607Z" transform="translate(-245.869 -162.963)" fill="#cc847a" opacity="0.5" style="mix-blend-mode: multiply;isolation: isolate"/>
      <path id="Trazado_61749" data-name="Trazado 61749" d="M269.288,193.1a1.95,1.95,0,0,1,2.19-2.464v.559a1.714,1.714,0,0,0-1.416.513,1.679,1.679,0,0,0-.23,1.261Z" transform="translate(-225.576 -161.952)" fill="#282828"/>
      <path id="Trazado_61750" data-name="Trazado 61750" d="M281.451,188.892l-.432-.355a2.493,2.493,0,0,1,1.695-1,2.258,2.258,0,0,1,1.519.478l-.363.425a1.683,1.683,0,0,0-1.115-.345A1.961,1.961,0,0,0,281.451,188.892Z" transform="translate(-229.098 -161.021)" fill="#282828"/>
      <path id="Trazado_61751" data-name="Trazado 61751" d="M258.763,207.177c-1.77-3.667-4.45-2.631-4.564-2.585l-.21-.519c.034-.013,3.281-1.272,5.277,2.86Z" transform="translate(-221.019 -165.911)" fill="#cc847a" opacity="0.5" style="mix-blend-mode: multiply;isolation: isolate"/>
      <path id="Trazado_61752" data-name="Trazado 61752" d="M267.56,302.392l22.4-.484-1.619,5.029Z" transform="translate(-225.075 -195.211)" fill="#2e42d8"/>
      <path id="Trazado_61753" data-name="Trazado 61753" d="M285.982,338.228H270.39a7.8,7.8,0,0,1,15.592,0Z" transform="translate(-225.921 -203.787)" fill="#8692ea"/>
      <path id="Trazado_61754" data-name="Trazado 61754" d="M250.923,313.2a7.749,7.749,0,0,0-3.864,1.031l.107,6.766s-.723,2.039-1.923,5.33a7.794,7.794,0,1,0,5.68-13.127Z" transform="translate(-218.405 -198.586)" fill="#8692ea"/>
      <circle id="Elipse_1306" data-name="Elipse 1306" cx="7.797" cy="7.797" r="7.797" transform="translate(36.915 93.609) rotate(-22.312)" fill="#8692ea"/>
      <path id="Trazado_61755" data-name="Trazado 61755" d="M295.885,269.13a7.77,7.77,0,0,0,5.542-2.315c-.956-4.081-2.263-8.746-3.534-13.008a7.794,7.794,0,1,0-2.009,15.323Z" transform="translate(-231.211 -180.752)" fill="#8692ea"/>
      <circle id="Elipse_1307" data-name="Elipse 1307" cx="7.797" cy="7.797" r="7.797" transform="translate(32.309 68.76) rotate(-22.34)" fill="#8692ea"/>
      <path id="Trazado_61756" data-name="Trazado 61756" d="M240.733,227.335c-7.935-.635-13.845,17.715-13.845,17.715s3.557-12.578,3.78-19.064c.137-3.968-.971-9.414-3.04-12.057-3.5-4.469-5.473-7.289-5.473-7.289s-1.363.15.349,3.89,2.783,6.9,2.783,6.9-6.283-2.9-8.567-5.337-2.3-10.53-3.953-11.647c-1.734-1.167.71,11.021.71,11.021s-1.735-12.557-3.034-12.4-1.251,2.328-1.251,2.328c-1.594.143-.764,4.347-.764,4.347-2.819-4.566-.883,6.849.116,10.309s10.144,8.769,11.888,9.75l1.179.663c-1.068,2.829-6.777,17.922-10.369,27.039-3.975,10.089-5.44,23.377-.723,25.584,6.534,3.057,25.734-17.989,25.734-17.989s5.867,1.624,8.229-14.4C245.881,237.192,245,227.677,240.733,227.335Z" transform="translate(-206.962 -164.47)" fill="#965e56"/>
      <path id="Trazado_61757" data-name="Trazado 61757" d="M231.084,240.726a17.366,17.366,0,0,1-3.5-2.081l.193-.534a20.345,20.345,0,0,0,3.36,2.058Z" transform="translate(-213.125 -176.141)" fill="#cc847a" opacity="0.5" style="mix-blend-mode: multiply;isolation: isolate"/>
      <path id="Trazado_61758" data-name="Trazado 61758" d="M215.259,220.853c-.4-.268-3.937-2.628-4.343-2.992s-1.78-6.885-2.559-10.736l.548-.111c.766,3.791,2.1,9.982,2.408,10.458.294.259,3.174,2.194,4.256,2.916Z" transform="translate(-207.379 -166.846)" fill="#cc847a" opacity="0.5" style="mix-blend-mode: multiply;isolation: isolate"/>
      <path id="Trazado_61759" data-name="Trazado 61759" d="M219.883,221.544l-4.728-2.7-.829-2.631.533-.168.764,2.422,4.537,2.591Z" transform="translate(-209.163 -169.546)" fill="#cc847a" opacity="0.5" style="mix-blend-mode: multiply;isolation: isolate"/>
      <path id="Trazado_61760" data-name="Trazado 61760" d="M232.083,264.657l-5.825,18.967a12.8,12.8,0,0,0,5.825-8.685C232.785,271.374,232.083,264.657,232.083,264.657Z" transform="translate(-212.73 -184.076)" fill="#cc847a" opacity="0.23" style="mix-blend-mode: multiply;isolation: isolate"/>
      <path id="Trazado_61761" data-name="Trazado 61761" d="M262.444,212.54a4.89,4.89,0,0,0-3.695,1.648,4.275,4.275,0,0,0-1.08,2.818,4.059,4.059,0,0,0,.14,1.059,4.724,4.724,0,0,0,4.634,3.407,4.934,4.934,0,0,0,3.015-1.01,4.394,4.394,0,0,0,.883-.883,3.617,3.617,0,0,0,.379-.6,4.109,4.109,0,0,0,.5-1.97A4.632,4.632,0,0,0,262.444,212.54Zm0,2.243a2.4,2.4,0,0,1,2.538,2.222,2.161,2.161,0,0,1-1.171,1.872,2.756,2.756,0,0,1-1.367.358,2.4,2.4,0,0,1-2.538-2.229,2.083,2.083,0,0,1,.855-1.655A2.734,2.734,0,0,1,262.444,214.784Z" transform="translate(-222.119 -168.498)" fill="#ff9a6e"/>
    </g>
    <g id="Grupo_32571" data-name="Grupo 32571" transform="translate(583.455 9773.572)">
      <g id="Grupo_32570" data-name="Grupo 32570" transform="translate(0 0)" clip-path="url(#clip-path-2)">
        <g id="Grupo_32569" data-name="Grupo 32569" transform="translate(13.657 59.609)">
          <path id="Trazado_61796" data-name="Trazado 61796" d="M321.607,646.391l-12.531,1s-.423,7.011-5.088,11.675-7.1,1.985-7,12.438c.14,14.351,1.082,17.5,1.082,17.5l-36.946-6.735c3.093-13.859,2.6-22.627,4.241-41.2l-10.934-.751s-6.674-11.516-3.049-20.966c3.841-10.012,14.485-12.657,21.046-13.493,12.374-1.576,28.835,2.282,28.835,2.282A26.6,26.6,0,0,1,322.9,620.4C328.226,628.808,328.479,635.415,321.607,646.391Z" transform="translate(-210.529 -558.193)" fill="#ec714c"/>
          <path id="Trazado_61797" data-name="Trazado 61797" d="M302.334,805.17l-18.36,3.489s3.168,15.842,2.136,19.566c-2.136,7.709-2.85,20.279-3.151,29.47s5.321,55.336,5.321,55.336l8.368-.55s4.616-81.941,5.687-87.253S302.334,805.17,302.334,805.17Z" transform="translate(-220.285 -617.879)" fill="#fca692"/>
          <path id="Trazado_61798" data-name="Trazado 61798" d="M251.968,817.287l-15.853-9a44.344,44.344,0,0,1-3.494,13.484c-3.228,7.775-10.584,20.292-12.883,27.245s-15.893,57.108-15.893,57.108l7.364,2.492s16.432-29.185,23.548-46.409c5.088-12.313,13.047-35.525,13.047-35.525Z" transform="translate(-196.641 -618.81)" fill="#fca692"/>
          <path id="Trazado_61799" data-name="Trazado 61799" d="M284.186,721.74l-36.946-6.735s-7.242,6.041-18.552,26.1-24.843,26.724-24.843,26.724,8.654,9.775,37.347,21.3,54.646,1.152,54.646,1.152S283.387,735.711,284.186,721.74Z" transform="translate(-196.641 -590.929)" fill="#7a7aea"/>
          <rect id="Rectángulo_6535" data-name="Rectángulo 6535" width="14.856" height="0.701" transform="translate(98.746 89.835) rotate(-83.66)" fill="#e54848"/>
          <path id="Trazado_61800" data-name="Trazado 61800" d="M242.888,750.4c-4.169-3.744,2.1-10.357,5.1-13.111-1.1-.31-2.576-.759-4.118-1.319,1.072-1.7,2.089-3.254,3.05-4.67.921.9,1.738,1.821,2.385,2.6-.258-1.14-.617-2.879-.883-4.763a92.715,92.715,0,0,1,5.858-7.529c1.785,3.754-1.157,10.785-2.166,12.98,3.637-2.938,12.643-9.561,13.565-3.9.831,5.1-6.784,6.533-11.159,6.937,4.075,2.973,11.634,9.217,6.732,11.5-5.307,2.471-9.021-6.771-10.227-10.322C250.044,743.327,247.173,754.245,242.888,750.4Z" transform="translate(-207.897 -592.9)" fill="#9893f9"/>
          <path id="Trazado_61801" data-name="Trazado 61801" d="M302.28,759.061c-4.462-1.259-15.184-4.807-11.075-8.845,3.814-3.747,9.64,2.157,12.392,5.452-.938-4.148-3.219-16.218,2.488-14.425,5.954,1.871,1.595,12.344.322,15.113a50.217,50.217,0,0,1,6.12-4.294c.353,2.133.733,4.322,1.129,6.531a31.853,31.853,0,0,1-4.842.8,43.165,43.165,0,0,1,5.926,5.082c.395,2.087.8,4.165,1.2,6.208a4.146,4.146,0,0,1-.395.21c-5.307,2.471-9.02-6.771-10.227-10.322-.979,4.533-3.85,15.451-8.135,11.6C293.013,768.429,299.285,761.816,302.28,759.061Z" transform="translate(-222.478 -598.717)" fill="#9893f9"/>
          <path id="Trazado_61802" data-name="Trazado 61802" d="M247.11,783.916c3.813-3.747,9.64,2.157,12.392,5.452-.938-4.148-3.219-16.219,2.487-14.425,5.953,1.871,1.595,12.343.322,15.113,3.637-2.938,12.643-9.561,13.565-3.9.831,5.1-6.784,6.533-11.159,6.937,4.075,2.973,11.634,9.217,6.732,11.5-5.307,2.471-9.021-6.771-10.227-10.322-.979,4.533-3.85,15.451-8.136,11.6-4.169-3.744,2.1-10.356,5.1-13.111C253.723,791.5,243,787.953,247.11,783.916Z" transform="translate(-209.298 -608.79)" fill="#9893f9"/>
          <g id="Grupo_32565" data-name="Grupo 32565" transform="translate(65.255 126.806)">
            <path id="Trazado_61803" data-name="Trazado 61803" d="M311.657,722.72c1.352,1.95,1.644,3.753-.54,4.77-3.843,1.789-6.85-2.564-8.675-6.45Z" transform="translate(-291.367 -719.538)" fill="#9893f9"/>
            <path id="Trazado_61804" data-name="Trazado 61804" d="M288.033,728.131c-2.753-2.473-.952-6.2,1.451-9.233l5.84,1.065C293.944,724.937,291.434,731.185,288.033,728.131Z" transform="translate(-286.645 -718.898)" fill="#9893f9"/>
          </g>
          <path id="Trazado_61805" data-name="Trazado 61805" d="M213.69,778.819c-.337.861-.653,1.579-.874,2.06,3.637-2.938,12.643-9.56,13.565-3.9.831,5.1-6.784,6.534-11.159,6.937,4.075,2.973,11.634,9.218,6.732,11.5-5.307,2.471-9.021-6.771-10.227-10.322a56.2,56.2,0,0,1-1.475,5.526,52.808,52.808,0,0,1-4.712-3.764,36.354,36.354,0,0,1,3.149-3.269c-.2-.058-.426-.122-.656-.189A57.891,57.891,0,0,0,213.69,778.819Z" transform="translate(-197.148 -608.79)" fill="#9893f9"/>
          <path id="Trazado_61806" data-name="Trazado 61806" d="M311.971,813.126c-.938-4.148-3.219-16.219,2.488-14.424,5.954,1.87,1.595,12.343.322,15.112a42.233,42.233,0,0,1,7.918-5.227c.9,4.121,1.48,6.662,1.48,6.662s-1.038.414-2.922.984a33.445,33.445,0,0,1-4.069.616c.157.115.321.236.487.36-1.185.29-2.511.584-3.967.862l-.015-.043-.01.048c-1.648.313-3.462.6-5.416.843.858-.946,1.709-1.772,2.389-2.4-4.461-1.26-15.184-4.808-11.075-8.846C303.393,803.928,309.219,809.832,311.971,813.126Z" transform="translate(-224.981 -615.892)" fill="#9893f9"/>
          <path id="Trazado_61807" data-name="Trazado 61807" d="M340.9,661.161c.194-.254,4.746-6.252,4.362-9.085a1.7,1.7,0,0,0-.642-1.175,1.213,1.213,0,0,0-1.109-.2c-2.471.727-5.609,9.167-5.958,10.127l.658.239c.916-2.516,3.691-9.163,5.5-9.694a.505.505,0,0,1,.487.086,1.008,1.008,0,0,1,.372.71c.286,2.115-2.953,6.9-4.225,8.566Z" transform="translate(-236.608 -571.692)" fill="#e54848"/>
          <path id="Trazado_61808" data-name="Trazado 61808" d="M275.517,652.605c.126-.123,3.1-3.107,4.644-9.8l-.683-.158c-1.491,6.474-4.423,9.428-4.453,9.456Z" transform="translate(-217.918 -569.301)" fill="#e54848"/>
          <path id="Trazado_61809" data-name="Trazado 61809" d="M264.652,651.5a.379.379,0,0,0,.048,0,.349.349,0,0,0,.3-.395c-.182-1.317-1.881-12.853-5.281-12.853h-.01a1.381,1.381,0,0,0-1.286.672c-1.043,1.814,1.817,6.9,2.147,7.479a.35.35,0,0,0,.608-.349c-1.167-2.036-2.782-5.677-2.147-6.781a.688.688,0,0,1,.682-.32h.006c2.1,0,3.928,7.509,4.586,12.247A.351.351,0,0,0,264.652,651.5Z" transform="translate(-212.887 -567.987)" fill="#e54848"/>
          <path id="Trazado_61810" data-name="Trazado 61810" d="M309.288,604.8s7.826,1.624,9.032,3.515c2.212,3.471-8.293,9.259-12.263,4.624a41.74,41.74,0,0,0-3.977-4.043s-3.472,4.519-8.736,4.718-11.579-7.069-10.021-8.814,5.8-2.87,5.8-2.87S295.126,605.45,309.288,604.8Z" transform="translate(-220.326 -557.131)" fill="#f6f6f6"/>
          <path id="Trazado_61811" data-name="Trazado 61811" d="M306.13,847.595l.09-.7c-.268-.035-6.563-.914-6.287-6.188l-.7-.037C298.922,846.6,306.059,847.585,306.13,847.595Z" transform="translate(-225.15 -628.492)" fill="#fca692" style="mix-blend-mode: multiply;isolation: isolate"/>
          <path id="Trazado_61812" data-name="Trazado 61812" d="M255.113,843.223l.231-.661c-.256-.09-6.235-2.247-4.878-7.35l-.678-.181C248.265,840.765,255.044,843.2,255.113,843.223Z" transform="translate(-210.307 -626.805)" fill="#fca692" style="mix-blend-mode: multiply;isolation: isolate"/>
          <path id="Trazado_61813" data-name="Trazado 61813" d="M299.962,945.185,288.7,946.91l-1.188,22.16,25.439.569s6.49-6.371-5.567-9.193C301.039,958.962,299.962,945.185,299.962,945.185Z" transform="translate(-221.649 -659.73)" fill="#9893f9"/>
          <rect id="Rectángulo_6536" data-name="Rectángulo 6536" width="27.183" height="2.713" transform="translate(93.044 310.841) rotate(180)" fill="#282828"/>
          <path id="Trazado_61814" data-name="Trazado 61814" d="M302.084,953.281a.348.348,0,0,0,.194-.059c.515-.343,2.15-1.212,2.879-.726a.351.351,0,0,0,.389-.583c-1.251-.835-3.415.564-3.658.726a.351.351,0,0,0,.195.642Z" transform="translate(-225.901 -661.662)" fill="#282828"/>
          <path id="Trazado_61815" data-name="Trazado 61815" d="M303.1,955.935a.349.349,0,0,0,.194-.059c.515-.344,2.15-1.211,2.879-.726a.351.351,0,1,0,.389-.583c-1.251-.834-3.415.564-3.658.726a.35.35,0,0,0,.195.642Z" transform="translate(-226.205 -662.456)" fill="#282828"/>
          <path id="Trazado_61816" data-name="Trazado 61816" d="M303.551,958.59a.355.355,0,0,0,.194-.059c.515-.344,2.15-1.214,2.88-.726a.35.35,0,1,0,.388-.583c-1.251-.836-3.414.564-3.658.726a.351.351,0,0,0,.195.642Z" transform="translate(-226.339 -663.249)" fill="#282828"/>
          <path id="Trazado_61817" data-name="Trazado 61817" d="M304.415,961.244a.348.348,0,0,0,.194-.059c.515-.342,2.15-1.212,2.879-.726a.351.351,0,1,0,.389-.583c-1.251-.835-3.414.564-3.658.726a.351.351,0,0,0,.195.642Z" transform="translate(-226.597 -664.042)" fill="#282828"/>
          <path id="Trazado_61818" data-name="Trazado 61818" d="M305.019,963.958a.35.35,0,0,0,.162-.04c1.005-.524,2.85-1.191,3.518-.746a.35.35,0,0,0,.388-.583c-1.23-.818-3.927.55-4.231.708a.351.351,0,0,0,.163.661Z" transform="translate(-226.778 -664.855)" fill="#282828"/>
          <path id="Trazado_61819" data-name="Trazado 61819" d="M213.268,940.8l-11.255-1.788-7.88,20.745,24.057,8.289s8.122-4.091-2.5-10.451C210.1,954.249,213.268,940.8,213.268,940.8Z" transform="translate(-193.738 -657.885)" fill="#9893f9"/>
          <rect id="Rectángulo_6537" data-name="Rectángulo 6537" width="27.183" height="2.713" transform="translate(25.892 310.761) rotate(-162.268)" fill="#282828"/>
          <path id="Trazado_61820" data-name="Trazado 61820" d="M219.193,948.932a.35.35,0,0,0,.273-.569c-.937-1.175-3.424-.5-3.7-.422a.35.35,0,0,0-.24.433.346.346,0,0,0,.433.24c.6-.17,2.417-.5,2.964.185A.349.349,0,0,0,219.193,948.932Z" transform="translate(-200.127 -660.475)" fill="#282828"/>
          <path id="Trazado_61821" data-name="Trazado 61821" d="M219.356,951.77a.351.351,0,0,0,.273-.569c-.937-1.172-3.425-.5-3.705-.421a.35.35,0,0,0,.193.674c.6-.17,2.418-.5,2.965.186A.349.349,0,0,0,219.356,951.77Z" transform="translate(-200.176 -661.324)" fill="#282828"/>
          <path id="Trazado_61822" data-name="Trazado 61822" d="M218.974,954.435a.351.351,0,0,0,.273-.569c-.937-1.174-3.424-.5-3.705-.421a.351.351,0,0,0,.194.674c.595-.17,2.417-.5,2.964.186A.35.35,0,0,0,218.974,954.435Z" transform="translate(-200.062 -662.12)" fill="#282828"/>
          <path id="Trazado_61823" data-name="Trazado 61823" d="M218.989,957.226a.351.351,0,0,0,.273-.569c-.937-1.173-3.425-.5-3.705-.421a.35.35,0,1,0,.193.674c.6-.17,2.417-.5,2.964.186A.352.352,0,0,0,218.989,957.226Z" transform="translate(-200.066 -662.955)" fill="#282828"/>
          <path id="Trazado_61824" data-name="Trazado 61824" d="M219.314,960.223a.351.351,0,0,0,.273-.569c-.921-1.154-3.908-.675-4.245-.615a.35.35,0,1,0,.12.69c1.117-.191,3.076-.265,3.578.362A.349.349,0,0,0,219.314,960.223Z" transform="translate(-199.991 -663.827)" fill="#282828"/>
          <g id="Grupo_32566" data-name="Grupo 32566" transform="translate(39.486)">
            <path id="Trazado_61825" data-name="Trazado 61825" d="M311.21,543.742s3.253,6.732,7.408,9.341c4.38,2.75,8.052,3.543,6.763,4.831a9.955,9.955,0,0,1-3.865,1.932s3.543,7.086,2.255,11.274-6.442,3.543-8.052,6.119-2.255,12.562-2.255,12.562-8.374,3.543-12.38-1.946l1.107-11.9s-6.442-9.019-3.865-19.969A15.934,15.934,0,0,1,311.21,543.742Z" transform="translate(-264.186 -539.737)" fill="#fca692"/>
            <path id="Trazado_61826" data-name="Trazado 61826" d="M296.914,542.035s-3.336,5.87-1.825,9.878c4.777,12.669-.783,7.622-.783,7.622s-4.977-3.415-7.572-.532c-3.865,4.294,5.245,11.655,5.245,11.655,1.506,2.982,3.275,5.966,1.913,10.369-.557,1.8-2.4,4.807-3.808,5.584a6,6,0,0,0-3.007,5.68,22.322,22.322,0,0,1-.039,5.143c-.552,2.181-4.459,6.881-4.459,6.881l-2.09,7.7s-2.577-3.984-10.951-3.647a15.873,15.873,0,0,1-5.8-.89c-.6-.2-1.725-.686-1.725-.686,9.456-16.123-2.051-1.043-2.917-1.6-2.649-1.718-9.206-7.112-9.206-7.112a95.641,95.641,0,0,0,8.29-5.093c2.241-1.538,2.144-5.183,4.271-7.146,4.188-3.865,6.8-2.33,8.053-4.509,2.622-4.545-1.61-5.785.59-12.239,1.536-4.5,6.449-4.155,5.225-7.086C269.216,544.993,287.912,530.817,296.914,542.035Z" transform="translate(-249.89 -538.03)" fill="#f9c582"/>
            <path id="Trazado_61827" data-name="Trazado 61827" d="M280.533,622.385c.264-.259,6.2-6.195,4.258-13.291-.987-3.6,1.323-8.741,3.6-12.055.409-.6.855-1.183,1.287-1.751,2.07-2.724,4.209-5.539,2.985-10.132a.356.356,0,0,0-.428-.249.351.351,0,0,0-.248.43c1.136,4.261-.808,6.819-2.866,9.528-.437.574-.888,1.169-1.308,1.778-2.476,3.6-4.749,8.813-3.7,12.638,1.837,6.695-4.376,12.913-4.437,12.973Z" transform="translate(-258.794 -552.039)" fill="#fc7e5b" opacity="0.3" style="mix-blend-mode: multiply;isolation: isolate"/>
            <path id="Trazado_61828" data-name="Trazado 61828" d="M271.1,621.618c.266-.388,6.43-9.4,7.294-13.181a11.368,11.368,0,0,0-.076-4.527,10.1,10.1,0,0,1,.5-6.316,16.47,16.47,0,0,1,3.138-4.008c2.476-2.621,5.283-5.591,4.3-9.259a.35.35,0,1,0-.677.181c.877,3.29-1.672,5.987-4.137,8.6a16.871,16.871,0,0,0-3.27,4.206,10.687,10.687,0,0,0-.555,6.71,10.674,10.674,0,0,1,.086,4.261c-.834,3.649-7.315,13.022-7.378,13.116Z" transform="translate(-255.999 -551.791)" fill="#fc7e5b" opacity="0.3" style="mix-blend-mode: multiply;isolation: isolate"/>
            <path id="Trazado_61829" data-name="Trazado 61829" d="M311.352,540.72c1.1,1.254,3.771,4.36,5.361,4.927a7.138,7.138,0,0,0,1.293.308,4.789,4.789,0,0,0,1.556-.015,3.3,3.3,0,0,0,1.893-1.047,2.99,2.99,0,0,0,.6-1.068c.079-.243.076-.21.108-.3l.074-.19.118-.388a2.878,2.878,0,0,0,.16-.292l.063-.159c.027-.04.057-.067.082-.1.055-.062.095-.161.147-.217a1.531,1.531,0,0,1,.977-.534,6.417,6.417,0,0,1,1.879-.029c.715.065,1.46.2,2.286.327a6.089,6.089,0,0,0-1.594-1.9,5.582,5.582,0,0,0-2.437-1.146,4.16,4.16,0,0,0-1.6,0,5.9,5.9,0,0,0-.841.257c-.26.14-.52.292-.774.454a4.438,4.438,0,0,0-.631.587c-.1.1-.2.209-.288.317l-.214.329c-.137.224-.266.453-.393.682l-.252.67-.111.34a2.4,2.4,0,0,1-.076.231.614.614,0,0,1,.069-.091c.1-.071.129-.027-.02.045a4.986,4.986,0,0,1-1.608.226C315.829,542.971,313,540.633,311.352,540.72Z" transform="translate(-268.261 -538.265)" fill="#f9c582"/>
            <path id="Trazado_61830" data-name="Trazado 61830" d="M331.286,572.794s-2.21,4.38-3.809,0C327.146,571.889,331.286,572.794,331.286,572.794Z" transform="translate(-273.075 -548.301)" fill="#fff"/>
            <path id="Trazado_61831" data-name="Trazado 61831" d="M309.538,571.361a.351.351,0,0,0,.248-.6c-.122-.121-3-2.954-4.9-1.305a.35.35,0,1,0,.46.529c1.411-1.225,3.914,1.247,3.939,1.273A.35.35,0,0,0,309.538,571.361Z" transform="translate(-266.294 -547.27)" fill="#ffa792" style="mix-blend-mode: multiply;isolation: isolate"/>
            <path id="Trazado_61832" data-name="Trazado 61832" d="M321.742,557.182c.456.789,1.053,1.3,1.335,1.134s.141-.934-.315-1.723-1.053-1.3-1.335-1.134S321.286,556.394,321.742,557.182Z" transform="translate(-271.229 -543.231)" fill="#2b2b2b"/>
          </g>
          <g id="Grupo_32567" data-name="Grupo 32567" transform="translate(42.366 82.13)">
            <path id="Trazado_61833" data-name="Trazado 61833" d="M268.987,656.1l-13.448-.923s-3.451,22.063-.022,27.812c7.631,12.794,36.313,24.064,39.12,27.5,1.552,1.9,4.653,7.341,9.719,8.491,1.145.259,9.062,9.062,8.226,5.808-.114-.441-4.766-7.047-4.355-6.888.89.344,2.279,2.476,3.424,3.545a33.109,33.109,0,0,1,4.969,5.621c2.59,4.6,3.448-10.456-10.969-20.108s-38.19-28.741-38.19-28.741Z" transform="translate(-253.998 -655.176)" fill="#fca692"/>
            <path id="Trazado_61834" data-name="Trazado 61834" d="M271.318,687.09a.351.351,0,0,0,.194-.643l-4.064-2.687a.351.351,0,0,0-.387.585l4.064,2.687A.35.35,0,0,0,271.318,687.09Z" transform="translate(-257.856 -663.702)" fill="#fca692" style="mix-blend-mode: multiply;isolation: isolate"/>
            <path id="Trazado_61835" data-name="Trazado 61835" d="M330.527,743.683l.492-.5a18.436,18.436,0,0,0-3.478-2.569l-.348.609A17.988,17.988,0,0,1,330.527,743.683Z" transform="translate(-275.876 -680.714)" fill="#fca692" style="mix-blend-mode: multiply;isolation: isolate"/>
            <path id="Trazado_61836" data-name="Trazado 61836" d="M340.965,752.165l.658-.243c-.076-.205-1.894-5.078-5.187-7.868-2.624-2.22-6.4-5.487-6.434-5.52l-.458.53c.038.033,3.813,3.3,6.439,5.525C339.137,747.261,340.947,752.117,340.965,752.165Z" transform="translate(-276.579 -680.092)" fill="#fca692" style="mix-blend-mode: multiply;isolation: isolate"/>
          </g>
          <g id="Grupo_32568" data-name="Grupo 32568" transform="translate(60.493 73.429)">
            <path id="Trazado_61837" data-name="Trazado 61837" d="M330.439,657.534l-12.531,1L316.15,669.36s-23.224-25.83-33-26.562,4.424,10.819,13.174,19.524c8.894,8.848,15.054,27.117,23.982,26.654C328.038,688.575,330.439,657.534,330.439,657.534Z" transform="translate(-279.854 -642.765)" fill="#fca692"/>
            <path id="Trazado_61838" data-name="Trazado 61838" d="M336.1,685.813a.35.35,0,0,0,.31-.513c-2.006-3.833-4.216-5.014-4.309-5.062a.35.35,0,0,0-.325.621c.021.011,2.119,1.148,4.013,4.765A.35.35,0,0,0,336.1,685.813Z" transform="translate(-295.319 -653.954)" fill="#fca692" style="mix-blend-mode: multiply;isolation: isolate"/>
            <path id="Trazado_61839" data-name="Trazado 61839" d="M293.854,657.969a.351.351,0,0,0,.249-.6c-.2-.205-5.026-5.054-6.664-6.221a17.8,17.8,0,0,0-4.406-2.009.351.351,0,0,0-.2.672,17.388,17.388,0,0,1,4.2,1.908c1.589,1.132,6.523,6.094,6.573,6.144A.348.348,0,0,0,293.854,657.969Z" transform="translate(-280.669 -644.667)" fill="#fca692" style="mix-blend-mode: multiply;isolation: isolate"/>
          </g>
        </g>
      </g>
    </g>
    <g id="Grupo_32574" data-name="Grupo 32574" transform="translate(840.423 9844.378)">
      <path id="Trazado_61840" data-name="Trazado 61840" d="M1002.318,290.439c.983-7.889.414-21.465-1.76-24.53-5.791-8.16-25.472-16.328-30.749-16.377-6.259-.059-8.4-1.976-19.319.894s-23.9,5.968-30.869,14.3-10.164,29.133-14.305,36.426-8.094,20.663,0,22.825,45.174-9.126,49.5-7.627,21.191,8.652,30.265,7.9S997.742,327.164,1002.318,290.439Z" transform="translate(-900.614 -205.487)" fill="#ffba55"/>
      <path id="Trazado_61841" data-name="Trazado 61841" d="M962.71,302.28a97.848,97.848,0,0,1,20.343,4.064c6.156,1.867,12.143,3.914,16.425,5.431l5.86-24.389a.334.334,0,0,1,.649.156L1000.11,312c3.431,1.221,5.621,2.049,5.67,2.068a.334.334,0,0,1-.118.646.346.346,0,0,1-.118-.022c-.11-.041-11.1-4.2-22.685-7.71a97.292,97.292,0,0,0-20.188-4.036.333.333,0,0,1-.313-.351A.328.328,0,0,1,962.71,302.28Z" transform="translate(-919.069 -216.93)" fill="#e9ba53" style="mix-blend-mode: multiply;isolation: isolate"/>
      <g id="Grupo_32572" data-name="Grupo 32572" transform="translate(2.02 84.952)">
        <path id="Trazado_61842" data-name="Trazado 61842" d="M945.836,308.575a160.509,160.509,0,0,0-19.885-.163c-9.887.626-14.072.529-14.072.529s-.394,1.85,1.29,2.036,10.033-.785,10.033-.785-13.584,7.211-16.118,9.582-1.453,2.87-1.453,2.87-2.778,2.723-2,3.377,3.206-.593,3.206-.593-.349,1.542.917,1.176,2.638-.782,2.638-.782l5.5-2.654s-4.944,2.577-2.511,2.984,16.625-6.5,19.908-7.08,15.5.245,15.5.245S950.351,314,945.836,308.575Z" transform="translate(-903.495 -308.17)" fill="#b6675b"/>
        <path id="Trazado_61843" data-name="Trazado 61843" d="M921.044,327.618a.327.327,0,0,0,.159-.041l9.166-5.005a.333.333,0,0,0-.32-.585l-9.165,5.006a.333.333,0,0,0,.16.625Z" transform="translate(-908.641 -312.288)" fill="#b6675b" opacity="0.3" style="mix-blend-mode: multiply;isolation: isolate"/>
        <path id="Trazado_61844" data-name="Trazado 61844" d="M908.123,328.962a.324.324,0,0,0,.124-.025c1.487-.6,15.19-9.08,15.773-9.44a.333.333,0,1,0-.351-.566c-.142.088-14.236,8.812-15.67,9.388a.334.334,0,0,0,.125.643Z" transform="translate(-904.779 -311.371)" fill="#b6675b" opacity="0.3" style="mix-blend-mode: multiply;isolation: isolate"/>
        <path id="Trazado_61845" data-name="Trazado 61845" d="M906.4,325.377a.327.327,0,0,0,.159-.041l15.57-8.507a.333.333,0,1,0-.32-.584l-15.57,8.506a.333.333,0,0,0,.161.625Z" transform="translate(-904.264 -310.571)" fill="#b6675b" opacity="0.3" style="mix-blend-mode: multiply;isolation: isolate"/>
      </g>
      <rect id="Rectángulo_6539" data-name="Rectángulo 6539" width="17.992" height="0.667" transform="translate(27.175 84.851) rotate(-72.339)" fill="#e9ba53" style="mix-blend-mode: multiply;isolation: isolate"/>
      <g id="Grupo_32573" data-name="Grupo 32573" transform="translate(43.288 97.124)">
        <path id="Trazado_61846" data-name="Trazado 61846" d="M970.075,325.532s-7.718,0-7.718,6.023c0,5.589,6.28,7.916,6.28,7.916s3.064-.774,4.637-.2,11.91,6.594,14.99,7.627,12.115,4.42,12.209,3.667-8.31-4.971-8.31-4.971c0-1.2,14.329,5.829,15.528,4.227.757-1.012-7.218-4.9-7.218-4.9s12.705,4.816,12.893,3.576-9.827-5.082-9.827-5.082,9.3,3.816,9.505,1.562c.127-1.422-9.505-4.615-14.566-7.962-1.328-.878-5.065-3.862-5.065-3.862s11.83,2.77,12.235,2.77a6.22,6.22,0,0,0,3.59-1.036.617.617,0,0,0-.221-1.112c-6.135-1.317-14.3-5.1-19.246-5.985C984.5,326.849,976.442,326.725,970.075,325.532Z" transform="translate(-962.357 -325.532)" fill="#b6675b"/>
        <path id="Trazado_61847" data-name="Trazado 61847" d="M1015.989,348.625a.333.333,0,0,0,.156-.628l-11.645-6.106a.333.333,0,1,0-.31.59l11.645,6.107A.332.332,0,0,0,1015.989,348.625Z" transform="translate(-974.808 -330.41)" fill="#b6675b" opacity="0.3" style="mix-blend-mode: multiply;isolation: isolate"/>
        <path id="Trazado_61848" data-name="Trazado 61848" d="M1012.515,351.051a.333.333,0,0,0,.145-.633c-3.375-1.628-8.91-4.512-9.4-5.323a.333.333,0,1,0-.571.342c.75,1.249,8.767,5.142,9.679,5.581A.335.335,0,0,0,1012.515,351.051Z" transform="translate(-974.399 -331.331)" fill="#b6675b" opacity="0.3" style="mix-blend-mode: multiply;isolation: isolate"/>
        <path id="Trazado_61849" data-name="Trazado 61849" d="M1002.32,353.595a.333.333,0,0,0,.1-.651c-1.177-.366-3.183-1.132-3.557-1.628a.334.334,0,1,0-.532.4c.625.827,3.559,1.758,3.891,1.862A.327.327,0,0,0,1002.32,353.595Z" transform="translate(-973.089 -333.199)" fill="#b6675b" opacity="0.3" style="mix-blend-mode: multiply;isolation: isolate"/>
      </g>
      <path id="Trazado_61850" data-name="Trazado 61850" d="M975.55,257.144c3.765,6.976,10.1,9.385,15.3,9.1,5.846-.326,9.574-6.655,5.575-13.493-2.5-4.277-10.314-11.553-15.652-9.278S968.391,243.882,975.55,257.144Z" transform="translate(-922.104 -203.75)" fill="#fff"/>
      <path id="Trazado_61851" data-name="Trazado 61851" d="M992.758,243.284c-3.247,5.105-12.627-7.341-12.627-7.341s2.259-3.388,0-9.034-3.56-23.011,3.592-27.528,16.516-1.459,18.775,1.552,3.845,9.55,5.787,13.176c1.93,3.6,5.219,3.541,4.842,5.046s-4.183,1.527-4.183,1.527-.121,1.885-.006,4.654a.713.713,0,0,1-.818.735l-5.623-.857c1.129,2.682,6.484,1.976,5.5,3.657-.873,1.5.979,6.084-1.27,8.445-3.013,3.162-12.14-1.181-12.14-1.181S993.44,242.211,992.758,243.284Z" transform="translate(-923.848 -190.016)" fill="#b6675b"/>
      <path id="Trazado_61852" data-name="Trazado 61852" d="M989.218,213.017s1.383,3.817-1.628,2.687-5.556-6.353-8.395-3.953c-4.319,3.652,3.247,12.566,3.247,14.612s-6.227-.213-8.76-2.095-8.1-6.974-7.05-19.2a15.2,15.2,0,0,1,15.434-14.3c7.906,0,13.929,1.636,15.811,1.383S1003.9,187,1003.9,187s-.376,6.721-1.882,8.066,3.388-1.345,3.388,0,.753,6.258-4.517,7.566-7.529-1.308-10.917,0S989.218,213.017,989.218,213.017Z" transform="translate(-920.307 -187)" fill="#292934"/>
      <path id="Trazado_61853" data-name="Trazado 61853" d="M997.755,253.758l.381-.547a24.371,24.371,0,0,1-5.079-5.279l-.541.391A24.539,24.539,0,0,0,997.755,253.758Z" transform="translate(-928.084 -205.213)" fill="#b6675b" opacity="0.3" style="mix-blend-mode: multiply;isolation: isolate"/>
      <path id="Trazado_61854" data-name="Trazado 61854" d="M990.229,227.634l.576-.337c-.075-.129-1.867-3.149-4.4-3.585l-.114.658C988.517,224.753,990.213,227.605,990.229,227.634Z" transform="translate(-926.223 -197.973)" fill="#b6675b" opacity="0.3" style="mix-blend-mode: multiply;isolation: isolate"/>
      <path id="Trazado_61855" data-name="Trazado 61855" d="M1013.373,220.622c.334,1.2.908,2.092,1.284,1.988s.41-1.163.076-2.365-.909-2.092-1.284-1.988S1013.039,219.42,1013.373,220.622Z" transform="translate(-934.249 -196.34)" fill="#292934"/>
      <path id="Trazado_61856" data-name="Trazado 61856" d="M1011.148,215.256c.979-1.474,2.99-.856,3.009-.848l.2-.635a3.354,3.354,0,0,0-3.767,1.115Z" transform="translate(-933.487 -194.952)" fill="#292934"/>
      <path id="Trazado_61857" data-name="Trazado 61857" d="M1012.615,241.322l-1.9.193a2.909,2.909,0,0,0-2.656,2.656c-.036.687-.313,1.248-1.131,1.211-2.045-.093-9.452-7.059-11.188-6.616a2.588,2.588,0,0,0-1.619,3.872c.843,1.691,4.306,5.717,8.654,8.824s12.266,1.325,9.588-8.824Z" transform="translate(-928.459 -202.467)" fill="#292934"/>
    </g>
    <g id="Grupo_32575" data-name="Grupo 32575" transform="translate(950.313 9618.744)">
      <path id="Trazado_61858" data-name="Trazado 61858" d="M734.585,270.221s11.826-29.677,8.487-33.482-7.447,7.948-8.314,12.645S734.585,270.221,734.585,270.221Z" transform="translate(-708.404 -233.312)" fill="#51782a"/>
      <path id="Trazado_61859" data-name="Trazado 61859" d="M728.965,260.431s.823-26.017-2.792-28.006-3.5,8.156-2.859,11.994S728.965,260.431,728.965,260.431Z" transform="translate(-705.01 -232.169)" fill="#51782a"/>
      <path id="Trazado_61860" data-name="Trazado 61860" d="M732.453,285.353s4.389-20.681,8.743-26.124,6.39-3.81,5.916,0S732.453,285.353,732.453,285.353Z" transform="translate(-707.845 -239.213)" fill="#326032"/>
      <path id="Trazado_61861" data-name="Trazado 61861" d="M723.309,285.782s-10.627-30.127-15.646-30.795-.376,10.886,2.063,14.992S723.309,285.782,723.309,285.782Z" transform="translate(-699.766 -238.981)" fill="#51782a"/>
      <path id="Trazado_61862" data-name="Trazado 61862" d="M730.562,277.935s6.867-29.07,3.257-32.132-5.8,8.373-5.954,12.836S730.562,277.935,730.562,277.935Z" transform="translate(-706.472 -236.091)" fill="#326032"/>
      <path id="Trazado_61863" data-name="Trazado 61863" d="M725.64,277.36s-2.837-31.82-7.533-33.709-3.06,10.453-1.714,15.036S725.64,277.36,725.64,277.36Z" transform="translate(-702.624 -235.543)" fill="#326032"/>
      <path id="Trazado_61864" data-name="Trazado 61864" d="M733.557,300.966s4.789-22.567,9.541-28.506,6.972-4.157,6.456,0S733.557,300.966,733.557,300.966Z" transform="translate(-708.175 -243.072)" fill="#326032"/>
      <path id="Trazado_61865" data-name="Trazado 61865" d="M723.58,301.433s-11.6-32.874-17.072-33.6-.411,11.878,2.25,16.359S723.58,301.433,723.58,301.433Z" transform="translate(-699.36 -242.82)" fill="#326032"/>
      <path id="Trazado_61866" data-name="Trazado 61866" d="M734.323,307.835s20.031-9.839,20.55-14.273-7.171-.161-9.917,2.053S734.323,307.835,734.323,307.835Z" transform="translate(-708.404 -249.942)" fill="#326032"/>
      <path id="Trazado_61867" data-name="Trazado 61867" d="M730.458,298.5s8.014-33.926,3.8-37.5-6.766,9.771-6.948,14.98S730.458,298.5,730.458,298.5Z" transform="translate(-706.306 -240.609)" fill="#51782a"/>
      <path id="Trazado_61868" data-name="Trazado 61868" d="M720.64,307.656S702.488,288.7,698.5,289.895s3.4,8.277,6.618,10.526S720.64,307.656,720.64,307.656Z" transform="translate(-697.354 -249.407)" fill="#51782a"/>
      <path id="Trazado_61869" data-name="Trazado 61869" d="M736.4,345.737H713.835l-4.751-31.992h31.992Z" transform="translate(-700.86 -256.553)" fill="#ffb9a1"/>
      <path id="Trazado_61870" data-name="Trazado 61870" d="M709.084,313.745l.063.426h26.8l-4.612,31.566h5.07l4.674-31.992Z" transform="translate(-700.86 -256.553)" fill="#fca692"/>
      <rect id="Rectángulo_6540" data-name="Rectángulo 6540" width="31.992" height="4.643" transform="translate(8.224 84.541)" fill="#ffb9a1"/>
    </g>
    <g id="Grupo_32576" data-name="Grupo 32576" transform="translate(567.491 9801.055)">
      <path id="Trazado_61871" data-name="Trazado 61871" d="M208.811,713.247h-19.93l-4.067-28.753h26.9Z" transform="translate(-161.331 -549.682)" fill="#8692ea"/>
      <path id="Trazado_61872" data-name="Trazado 61872" d="M177.206,571.954c4.039,8.167,3.675,16.588-.813,18.808s-11.4-2.6-15.441-10.77-12.881-30.454-8.392-32.674S173.167,563.787,177.206,571.954Z" transform="translate(-151.32 -508.626)" fill="#f9ca8c"/>
      <path id="Trazado_61873" data-name="Trazado 61873" d="M215.14,524.82c-.71,9.084-5.332,16.132-10.324,15.742s-8.464-8.07-7.754-17.154,9.286-31.586,14.279-31.2S215.85,515.736,215.14,524.82Z" transform="translate(-164.965 -492.207)" fill="#f9ca8c"/>
      <path id="Trazado_61874" data-name="Trazado 61874" d="M239.977,601.164c-4.556,7.891-11.765,12.259-16.1,9.754s-4.159-10.93.4-18.821,21.9-23.375,26.236-20.872S244.532,593.273,239.977,601.164Z" transform="translate(-172.068 -515.745)" fill="#f9ca8c"/>
      <path id="Trazado_61875" data-name="Trazado 61875" d="M185.7,546.176c1.984,3.436,2.061,7.1.173,8.2s-5.028-.811-7.012-4.247-2.061-7.106-.173-8.2S183.72,542.74,185.7,546.176Z" transform="translate(-159.093 -506.977)" fill="#f9ca8c"/>
      <path id="Trazado_61876" data-name="Trazado 61876" d="M195.392,655.691c-.026-.217-2.638-21.883-4.728-35.729-2.078-13.775-14.268-31.413-14.391-31.589L176.8,588c.124.178,12.4,17.938,14.5,31.863,2.091,13.855,4.7,35.53,4.73,35.748Z" transform="translate(-158.778 -520.841)" fill="#fff"/>
      <rect id="Rectángulo_6541" data-name="Rectángulo 6541" width="73.933" height="0.645" transform="translate(32.836 105.374) rotate(-83.83)" fill="#fff"/>
      <path id="Trazado_61877" data-name="Trazado 61877" d="M203.075,649.9l-.6-.228c.516-1.366,12.767-33.583,23.994-42.459l.4.506C215.779,616.489,203.2,649.57,203.075,649.9Z" transform="translate(-166.609 -526.583)" fill="#fff"/>
      <path id="Trazado_61878" data-name="Trazado 61878" d="M198.545,579.419H197.9c0-6.963-13.747-28.171-13.885-28.385l.541-.351C185.125,551.561,198.545,572.266,198.545,579.419Z" transform="translate(-161.092 -509.686)" fill="#fff"/>
      <path id="Trazado_61879" data-name="Trazado 61879" d="M218.316,569.257c-1.984,3.436-2.061,7.1-.173,8.2s5.028-.811,7.011-4.247,2.061-7.106.173-8.2S220.3,565.821,218.316,569.257Z" transform="translate(-170.885 -513.876)" fill="#f9ca8c"/>
      <path id="Trazado_61880" data-name="Trazado 61880" d="M201.864,601.957h-.645c0-7.164,14.97-27.362,15.608-28.218l.517.386C217.189,574.333,201.864,595.005,201.864,601.957Z" transform="translate(-166.235 -516.577)" fill="#fff"/>
      <path id="Trazado_61881" data-name="Trazado 61881" d="M198.489,559.83a1.312,1.312,0,1,1-1.312-1.312A1.311,1.311,0,0,1,198.489,559.83Z" transform="translate(-164.635 -512.027)" fill="#fff"/>
      <path id="Trazado_61882" data-name="Trazado 61882" d="M208.875,610.092a1.312,1.312,0,1,1-1.312-1.312A1.312,1.312,0,0,1,208.875,610.092Z" transform="translate(-167.739 -527.051)" fill="#fff"/>
    </g>
    <g id="Grupo_32578" data-name="Grupo 32578" transform="translate(498.749 9951.221)">
      <path id="Trazado_61891" data-name="Trazado 61891" d="M99.69,762.343s11.905,18.974,5.906,20.634S99.69,762.343,99.69,762.343Z" transform="translate(-67.146 -723.118)" fill="#dd711f"/>
      <path id="Trazado_61892" data-name="Trazado 61892" d="M96.043,757.519s22.268-2.442,21.145,3.681S96.043,757.519,96.043,757.519Z" transform="translate(-66.056 -721.532)" fill="#dd711f"/>
      <path id="Trazado_61893" data-name="Trazado 61893" d="M82.144,744s11.905,18.975,5.905,20.634S82.144,744,82.144,744Z" transform="translate(-61.901 -717.634)" fill="#dd711f"/>
      <path id="Trazado_61894" data-name="Trazado 61894" d="M77.906,738.384s22.267-2.442,21.145,3.681S77.906,738.384,77.906,738.384Z" transform="translate(-60.634 -715.812)" fill="#dd711f"/>
      <path id="Trazado_61895" data-name="Trazado 61895" d="M65.161,722.677s11.905,18.975,5.906,20.634S65.161,722.677,65.161,722.677Z" transform="translate(-56.825 -711.261)" fill="#dd711f"/>
      <path id="Trazado_61896" data-name="Trazado 61896" d="M60.749,716.6s22.267-2.442,21.144,3.681S60.749,716.6,60.749,716.6Z" transform="translate(-55.506 -709.302)" fill="#dd711f"/>
      <path id="Trazado_61897" data-name="Trazado 61897" d="M101.4,758.1a.458.458,0,0,1-.056.116.449.449,0,0,1-.623.117c-23.8-16.268-47.141-50.894-47.374-51.242a.448.448,0,0,1,.744-.5c.231.346,23.48,34.831,47.135,51A.447.447,0,0,1,101.4,758.1Z" transform="translate(-53.271 -706.394)" fill="#191919"/>
      <path id="Trazado_61898" data-name="Trazado 61898" d="M114.893,775.169c-.179-.1,20.011,9.891,15.838,14.485S114.893,775.169,114.893,775.169Z" transform="translate(-71.69 -726.951)" fill="#dd711f"/>
    </g>
    <g id="Grupo_32579" data-name="Grupo 32579" transform="translate(495 9574.117)">
      <path id="Trazado_61899" data-name="Trazado 61899" d="M70.347,203.375s9.252-17.5,23.293-25.3a81.813,81.813,0,0,1,32.494-9.558S107.6,191.94,98.205,198.028,70.347,203.375,70.347,203.375Z" transform="translate(-54.626 -168.517)" fill="#f98e00"/>
      <path id="Trazado_61900" data-name="Trazado 61900" d="M118.764,169.613,48.8,213.592a.572.572,0,0,1-.61-.969l70.03-44.02,1.211-.086A8.8,8.8,0,0,1,118.764,169.613Z" transform="translate(-47.924 -168.517)" fill="#cc3a3a"/>
      <path id="Trazado_61901" data-name="Trazado 61901" d="M109.83,196.138l-19.653,1.368L103.936,178.6l2.057-.881L92.546,196.195l18.681-1.3Z" transform="translate(-60.553 -171.267)" fill="#cc3a3a"/>
      <path id="Trazado_61902" data-name="Trazado 61902" d="M130.039,181.8l-11.921,1.617,7.61-11.51,1.649-.419-6.914,10.457,10.771-1.462Z" transform="translate(-68.905 -169.406)" fill="#cc3a3a"/>
    </g>
    <g id="Grupo_32580" data-name="Grupo 32580" transform="translate(708.79 9792.326)">
      <path id="Trazado_61903" data-name="Trazado 61903" d="M412.166,508.28s-19.734,1.554-33.838-6.13a81.805,81.805,0,0,1-25.468-22.328s29.7,3.114,39.877,7.791S412.166,508.28,412.166,508.28Z" transform="translate(-352.86 -479.776)" fill="#f98e00"/>
      <path id="Trazado_61904" data-name="Trazado 61904" d="M354.142,479.779l74.6,35.551a.572.572,0,0,1-.492,1.033L353.58,480.778l-.72-.977A8.723,8.723,0,0,1,354.142,479.779Z" transform="translate(-352.86 -479.757)" fill="#cc3a3a"/>
      <path id="Trazado_61905" data-name="Trazado 61905" d="M394.04,487.392l11.676,15.867-23.337-1.5-1.845-1.266,22.807,1.466-11.1-15.083Z" transform="translate(-361.132 -481.885)" fill="#cc3a3a"/>
      <path id="Trazado_61906" data-name="Trazado 61906" d="M372.609,482.723l7.748,9.2-13.8-.266-1.237-1.169,12.533.242-7-8.315Z" transform="translate(-356.586 -480.552)" fill="#cc3a3a"/>
    </g>
    <g id="Grupo_32581" data-name="Grupo 32581" transform="translate(1026.639 9475.98)">
      <path id="Trazado_61907" data-name="Trazado 61907" d="M846.089,49.979s-2.471,19.641-12.85,31.9A81.805,81.805,0,0,1,806.22,102.3s9.059-28.461,15.7-37.476S846.089,49.979,846.089,49.979Z" transform="translate(-806.22 -34.949)" fill="#f98e00"/>
      <path id="Trazado_61908" data-name="Trazado 61908" d="M806.457,94.633l49.908-65.866a.572.572,0,0,1,.913.691L807.322,95.386l-1.1.508A8.753,8.753,0,0,1,806.457,94.633Z" transform="translate(-806.22 -28.541)" fill="#cc3a3a"/>
      <path id="Trazado_61909" data-name="Trazado 61909" d="M822.976,76.711l17.9-8.225-6.189,22.551-1.613,1.551,6.05-22.039-17.016,7.818Z" transform="translate(-810.969 -40.481)" fill="#cc3a3a"/>
      <path id="Trazado_61910" data-name="Trazado 61910" d="M813.535,100.4l10.58-5.726-3.051,13.456-1.395.975,2.773-12.225-9.559,5.174Z" transform="translate(-808.211 -48.309)" fill="#cc3a3a"/>
    </g>
    <g id="Grupo_32582" data-name="Grupo 32582" transform="translate(673.035 9475)">
      <path id="Trazado_61911" data-name="Trazado 61911" d="M324.8,64.629s6.363,13.464,2.928,17.512c-3.09,3.643-5.589-2.886-5.589-2.886S325.594,92.612,320.583,96c-3.079,2.084-4.346-3.082-4.346-3.082s-.692,13.19-5.121,12.623c-5.027-.644-1.356-13.8-1.356-13.8s-2.86,4.911-6.448,1.119c-2.619-2.768,4.725-16.172,4.725-16.172s-3.608,3.9-5.666.091c-3.034-5.61,8.482-15.559,8.482-15.559S319.722,54.7,324.8,64.629Z" transform="translate(-301.862 -36.701)" fill="#cc3a3a"/>
      <path id="Trazado_61912" data-name="Trazado 61912" d="M314.548,95.935l9.763-68.48a.363.363,0,0,1,.412-.308c.2.03.337.213.229.356L315.19,95.981Z" transform="translate(-305.654 -27.143)" fill="#af2222"/>
    </g>
    <g id="Grupo_32583" data-name="Grupo 32583" transform="translate(716.961 9939.411)">
      <path id="Trazado_61913" data-name="Trazado 61913" d="M395.31,708.789s14.614,2.862,15.837,8.029c1.1,4.648-5.638,2.788-5.638,2.788s12.8,5.142,12.559,11.188c-.149,3.716-5.059,1.671-5.059,1.671s10.209,8.38,7.127,11.609c-3.5,3.665-11.916-7.094-11.916-7.094s2.258,5.215-2.924,5.856c-3.782.467-10.218-13.4-10.218-13.4s1,5.216-3.287,4.616c-6.317-.884-7.5-16.057-7.5-16.057S384.3,706.991,395.31,708.789Z" transform="translate(-370.427 -695.241)" fill="#cc3a3a"/>
      <path id="Trazado_61914" data-name="Trazado 61914" d="M413.969,738.643l-49.345-48.474a.364.364,0,0,1,0-.515c.141-.14.371-.144.423.027l49.345,48.474Z" transform="translate(-364.515 -689.549)" fill="#af2222"/>
    </g>
    <g id="Grupo_32584" data-name="Grupo 32584" transform="translate(956.736 9810.856)">
      <path id="Trazado_61915" data-name="Trazado 61915" d="M738.993,539.852s-.776,14.872-5.719,16.809c-4.448,1.744-3.555-5.189-3.555-5.189s-3.288,13.4-9.308,14.01c-3.7.376-2.367-4.774-2.367-4.774s-6.86,11.288-10.491,8.69c-4.122-2.948,5.345-12.8,5.345-12.8s-4.845,2.97-6.209-2.07c-.995-3.678,11.824-12,11.824-12s-5.023,1.722-5.032-2.605c-.015-6.378,14.841-9.682,14.841-9.682S739.223,528.7,738.993,539.852Z" transform="translate(-706.514 -513.356)" fill="#cc3a3a"/>
      <path id="Trazado_61916" data-name="Trazado 61916" d="M707.58,562.014l41.044-55.679a.364.364,0,0,1,.509-.076c.159.12.2.347.033.422L708.123,562.36Z" transform="translate(-706.833 -506.187)" fill="#af2222"/>
    </g>
    <g id="Grupo_32585" data-name="Grupo 32585" transform="translate(796.669 9580.233)">
      <path id="Trazado_61917" data-name="Trazado 61917" d="M538.894,177.332s-20.142-1.323-35.922,8.361c-13.793,8.464-2.537,29.28,11.221,22.574C525.375,202.816,538.894,177.332,538.894,177.332Z" transform="translate(-483.73 -177.249)" fill="#ffa466"/>
      <path id="Trazado_61918" data-name="Trazado 61918" d="M478.362,215.136a.278.278,0,0,1-.105-.091.281.281,0,0,1,.07-.391l53.689-37.38s1.1-.081.972.008l-54.339,37.834A.281.281,0,0,1,478.362,215.136Z" transform="translate(-478.206 -177.24)" fill="#e57f39"/>
      <path id="Trazado_61919" data-name="Trazado 61919" d="M511.607,200.227l6.142-17.837.671-.223-6.05,17.572,15.926,1.643-.449.518Z" transform="translate(-488.19 -178.713)" fill="#e57f39"/>
      <path id="Trazado_61920" data-name="Trazado 61920" d="M521.447,194.493l7.628-15.224.7-.133-7.429,14.828,13.556.507-.366.549Z" transform="translate(-491.131 -177.807)" fill="#e57f39"/>
      <path id="Trazado_61921" data-name="Trazado 61921" d="M532.927,188.481l5.907-10.564.684-.073-5.664,10.129,9.331.515-.407.624Z" transform="translate(-494.562 -177.42)" fill="#e57f39"/>
      <path id="Trazado_61922" data-name="Trazado 61922" d="M501.4,206.363l6.459-19.979.7-.345L502.139,205.9l17.251,2.493-.56.443Z" transform="translate(-485.139 -179.87)" fill="#e57f39"/>
    </g>
    <g id="Grupo_32586" data-name="Grupo 32586" transform="translate(1043.819 9776.421)">
      <path id="Trazado_61923" data-name="Trazado 61923" d="M892.137,496.118S885.864,476.933,871,465.894c-12.992-9.648-28.118,8.549-16.771,18.82C863.451,493.063,892.137,496.118,892.137,496.118Z" transform="translate(-836.556 -458.891)" fill="#ffa466"/>
      <path id="Trazado_61924" data-name="Trazado 61924" d="M830.726,457.329a.29.29,0,0,1,.046-.132.282.282,0,0,1,.389-.081l54.686,35.906s.484.991.355.905l-55.349-36.341A.28.28,0,0,1,830.726,457.329Z" transform="translate(-830.725 -457.071)" fill="#e57f39"/>
      <path id="Trazado_61925" data-name="Trazado 61925" d="M864.769,479.127l18.842-.943.456.54-18.561.93,4.406,15.392-.648-.223Z" transform="translate(-840.901 -463.382)" fill="#e57f39"/>
      <path id="Trazado_61926" data-name="Trazado 61926" d="M874.824,486.1l16.969,1.409.383.6-16.528-1.372,4.578,12.77-.646-.135Z" transform="translate(-843.906 -465.747)" fill="#e57f39"/>
      <path id="Trazado_61927" data-name="Trazado 61927" d="M886.547,493.762l12,1.548.322.608-11.509-1.484,3,8.852-.731-.146Z" transform="translate(-847.41 -468.038)" fill="#e57f39"/>
      <path id="Trazado_61928" data-name="Trazado 61928" d="M854.377,472.084l20.947-1.446.582.524L855.081,472.6l4.111,16.938-.619-.355Z" transform="translate(-837.794 -461.126)" fill="#e57f39"/>
    </g>
    <g id="Grupo_32588" data-name="Grupo 32588" transform="translate(999.548 9989.197)">
      <path id="Trazado_61935" data-name="Trazado 61935" d="M767.58,797.957s20.066,2.182,36.246-6.82c14.141-7.868,3.786-29.145-10.247-23.032C782.175,773.073,767.58,797.957,767.58,797.957Z" transform="translate(-767.58 -762.492)" fill="#ffa466"/>
      <path id="Trazado_61936" data-name="Trazado 61936" d="M824.311,760.6a.291.291,0,0,1,.1.1.281.281,0,0,1-.087.388l-55.237,35.053s-1.1.034-.971-.05l55.905-35.478A.282.282,0,0,1,824.311,760.6Z" transform="translate(-767.737 -760.562)" fill="#e57f39"/>
      <path id="Trazado_61937" data-name="Trazado 61937" d="M807.038,781.532l-6.9,17.559-.68.194,6.795-17.3-15.842-2.322.47-.5Z" transform="translate(-774.405 -766.123)" fill="#e57f39"/>
      <path id="Trazado_61938" data-name="Trazado 61938" d="M797.844,788.519,789.574,803.4l-.7.1,8.055-14.5-13.522-1.085.389-.533Z" transform="translate(-772.31 -768.582)" fill="#e57f39"/>
      <path id="Trazado_61939" data-name="Trazado 61939" d="M787.818,796.08l-6.353,10.3-.687.043,6.091-9.878-9.3-.913.434-.606Z" transform="translate(-770.566 -770.864)" fill="#e57f39"/>
      <path id="Trazado_61940" data-name="Trazado 61940" d="M817,774.511,809.695,794.2l-.717.315,7.264-19.569-17.129-3.228.578-.418Z" transform="translate(-777.005 -763.77)" fill="#e57f39"/>
    </g>
  </g>
</svg>
