<svg xmlns="http://www.w3.org/2000/svg" width="121.73" height="125.292" viewBox="0 0 121.73 125.292">
  <g id="Grupo_31300" data-name="Grupo 31300" transform="translate(-80.501 -74.672)">
    <g id="Grupo_31300-2" data-name="Grupo 31300" transform="translate(80.501 74.672)">
      <path id="Trazado_50790" data-name="Trazado 50790" d="M181.54,143.736a51.974,51.974,0,0,0,0-34.194,3.429,3.429,0,0,0-.166-.468,51.965,51.965,0,0,0-97.815,0,3.431,3.431,0,0,0-.166.468,51.974,51.974,0,0,0,0,34.194,3.809,3.809,0,0,0,.166.468,51.966,51.966,0,0,0,97.815,0,3.466,3.466,0,0,0,.166-.468Zm-49.073,27.421c-1.979,0-5.17-3.582-7.837-11.583a81.594,81.594,0,0,1-3.068-13.129h21.81a81.512,81.512,0,0,1-3.068,13.129c-2.667,8-5.858,11.583-7.837,11.583ZM120.658,139c-.359-3.972-.548-8.116-.548-12.357s.189-8.383.548-12.355h23.618c.357,3.972.546,8.113.546,12.355s-.189,8.385-.546,12.357ZM87.95,126.638A44.331,44.331,0,0,1,89.7,114.283h23.49c-.349,4.054-.526,8.208-.526,12.355s.177,8.3.526,12.357H89.7a44.351,44.351,0,0,1-1.746-12.357Zm44.516-44.516c1.979,0,5.17,3.582,7.837,11.583a81.445,81.445,0,0,1,3.068,13.128h-21.81a81.368,81.368,0,0,1,3.068-13.128c2.667-8,5.858-11.583,7.837-11.583Zm19.281,32.162h23.49a44.6,44.6,0,0,1,0,24.712h-23.49c.348-4.054.523-8.208.523-12.357s-.175-8.3-.523-12.355Zm20.58-7.45H150.894c-1.326-9.137-3.6-17.333-6.788-23.165a44.716,44.716,0,0,1,28.221,23.165Zm-51.5-23.165c-3.189,5.832-5.461,14.029-6.788,23.165H92.606a44.713,44.713,0,0,1,28.221-23.165ZM92.606,146.444h21.433c1.327,9.137,3.6,17.333,6.788,23.165a44.718,44.718,0,0,1-28.221-23.165Zm51.5,23.165c3.189-5.832,5.461-14.028,6.788-23.165h21.434a44.721,44.721,0,0,1-28.221,23.165Zm0,0" transform="translate(-80.501 -74.672)" fill="#5ebc77"/>
    </g>
    <path id="Trazado_50791" data-name="Trazado 50791" d="M165.337,121.5h-63.52a16.893,16.893,0,1,0,0,33.786h63.52a16.893,16.893,0,0,0,0-33.786Z" transform="translate(-1.11 -11.757)" fill="#fff" stroke="#5ebc77" stroke-miterlimit="10" stroke-width="6"/>
    <text id="www" transform="translate(101.865 134.39)" fill="#303038" font-size="22" font-family="Montserrat-SemiBold, Montserrat" font-weight="600"><tspan x="0" y="0">www</tspan></text>
    <path id="Trazado_50792" data-name="Trazado 50792" d="M226.022,196.8l-35.854-36.365-1.633,51.042,12.766-10.06,7.1,18.137,8.52-3.336-7.1-18.137Z" transform="translate(-27.121 -21.529)" fill="#303038" stroke="#fff" stroke-miterlimit="10" stroke-width="3"/>
  </g>
</svg>
