<svg xmlns="http://www.w3.org/2000/svg" xmlns:xlink="http://www.w3.org/1999/xlink" width="214.153" height="328.287" viewBox="0 0 214.153 328.287">
  <defs>
    <linearGradient id="linear-gradient" x1="16.846" y1="0.384" x2="16.842" y2="0.625" gradientUnits="objectBoundingBox">
      <stop offset="0" stop-color="#f47b54"/>
      <stop offset="0.165" stop-color="#f68a63"/>
      <stop offset="0.445" stop-color="#f99e77"/>
      <stop offset="0.724" stop-color="#fbaa83"/>
      <stop offset="1" stop-color="#fcae88"/>
    </linearGradient>
    <linearGradient id="linear-gradient-2" x1="0.884" y1="-0.003" x2="0.774" y2="0.147" gradientUnits="objectBoundingBox">
      <stop offset="0" stop-color="#fcac86"/>
      <stop offset="1" stop-color="#fdbd9e"/>
    </linearGradient>
    <linearGradient id="linear-gradient-3" x1="0.183" y1="0.87" x2="1.17" y2="0.183" xlink:href="#linear-gradient-2"/>
  </defs>
  <g id="Grupo_31573" data-name="Grupo 31573" transform="translate(-346.522 -1056.75)">
    <g id="man_fever" data-name="man fever" transform="translate(346.522 1056.75)">
      <path id="Trazado_57956" data-name="Trazado 57956" d="M776.336,1588.521l-32.022-11.98-1.558-32.45-.379-7.916s24.049-1.209,33.757-1.209c1.266,4.35,1.717,11.7,1.747,19.587C777.951,1570.452,776.336,1588.521,776.336,1588.521Z" transform="translate(-567.7 -1323.945)" fill="#fcae88"/>
      <path id="Trazado_57957" data-name="Trazado 57957" d="M388.76,1486.81s-14.542-4.953-6.712-26.207C384.126,1469.393,388.76,1486.81,388.76,1486.81Z" transform="translate(-365.078 -1282.397)" fill="#8697ab"/>
      <path id="Trazado_57958" data-name="Trazado 57958" d="M364.77,1455.523l-14.119,2.242s-6.932,19.322-2.833,23.421c6.271,6.271,22.385,1.643,22.385,1.643Z" transform="translate(-346.522 -1279.558)" fill="#fcac86"/>
      <g id="Grupo_31539" data-name="Grupo 31539" transform="translate(16.969 150.095)">
        <path id="Trazado_57959" data-name="Trazado 57959" d="M432.688,1443.269l-20.541,3.981-20.457,3.967-6.712-25.664,43.394-28.656,3.1,33.334Z" transform="translate(-384.977 -1396.896)" fill="#00a0b0"/>
        <path id="Trazado_57960" data-name="Trazado 57960" d="M467.089,1485.476l-20.541,3.981,19.328-17.02Z" transform="translate(-419.379 -1439.104)" fill="#007884" opacity="0.26"/>
      </g>
      <path id="Trazado_57961" data-name="Trazado 57961" d="M596.7,1373.761v.019l-1.045,47.865-.192,8.83v.02L593.11,1544.51s-47.557,9.358-80.071,7.085c-10.988-.767-27.531-4.954-27.531-4.954l-2.183-172.88,26.341-17.785,20.738,4.678,21.6-5.169Z" transform="translate(-422.959 -1223.664)" fill="#00a0b0"/>
      <g id="Grupo_31544" data-name="Grupo 31544" transform="translate(60.362 0)">
        <path id="Trazado_57962" data-name="Trazado 57962" d="M547.038,1328.73l36.915.237-5.888-30.527h-25.8Z" transform="translate(-518.919 -1191.79)" fill="#fcae88"/>
        <path id="Trazado_57963" data-name="Trazado 57963" d="M587.288,1076.029s-.571-14.357-13.34-14.316c2.5,1.048,10.849,4.6,8.237,14.383C585.313,1076.1,587.288,1076.029,587.288,1076.029Z" transform="translate(-533.955 -1059.523)" fill="#482b0e"/>
        <path id="Trazado_57964" data-name="Trazado 57964" d="M489.869,1125.288c-5.644,11.451,2.114,28.852,2.114,28.852l15.433-16.381-3.236-15.466S491.483,1122.009,489.869,1125.288Z" transform="translate(-485.827 -1093.368)" fill="#482b0e"/>
        <path id="Trazado_57965" data-name="Trazado 57965" d="M490.65,1154.394s.009.061.03.2c.273,2.22.642,4.48,1.118,6.751a81.371,81.371,0,0,0,4.105,13.59c.5,1.243,1.018,2.453,1.565,3.645v.02a69.753,69.753,0,0,0,3.911,7.28c8.491,13.723,20.533,21.613,31.906,19.231,11.586-2.424,19.515-14.843,21.634-31.223.233-1.814.406-3.678.488-5.58.03-.621.052-1.242.06-1.864h.01c.032-1.3.02-2.616-.026-3.96a82.533,82.533,0,0,0-1.694-14.1c-.477-2.261-1.039-4.458-1.67-6.6-7.146-24.19-24.106-40.447-39.814-37.16C496.605,1107.9,487.615,1129.471,490.65,1154.394Z" transform="translate(-487.086 -1083.267)" fill="url(#linear-gradient)"/>
        <path id="Trazado_57966" data-name="Trazado 57966" d="M506.843,1258.571v.02a69.753,69.753,0,0,0,3.911,7.28c8.491,13.723,20.533,21.613,31.907,19.231,11.586-2.424,19.515-14.843,21.634-31.223.233-1.814.406-3.678.488-5.58,0,0-8.543-1.487-11.251-.7C542.017,1250.933,523.93,1269.017,506.843,1258.571Z" transform="translate(-496.461 -1163.255)" fill="#482b0e"/>
        <path id="Trazado_57967" data-name="Trazado 57967" d="M603.82,1095.2l2.351,45.005-13.683-2.718-19.567-32.453s5.679-15.816,9.826-15.839C585.468,1089.174,603.82,1095.2,603.82,1095.2Z" transform="translate(-533.381 -1074.878)" fill="#482b0e"/>
        <g id="Grupo_31540" data-name="Grupo 31540" transform="translate(22.568 68.638)">
          <path id="Trazado_57968" data-name="Trazado 57968" d="M545.012,1234.383c-20.435,6.205-4.955-21.506-4.632-22.084C540.156,1212.84,530.368,1236.675,545.012,1234.383Z" transform="translate(-534.46 -1212.299)" fill="#b06d4d"/>
        </g>
        <g id="Grupo_31541" data-name="Grupo 31541" transform="translate(2.979 55.417)">
          <path id="Trazado_57969" data-name="Trazado 57969" d="M551.888,1182.689l.488,2.341-1.315.275-.537-2.582-4.268.114s-.03,5.728,1.393,6.655c3.912,2.557,18.3-3.828,18.3-3.828l-.7-3.329Z" transform="translate(-521.462 -1182.336)" fill="#482b0e"/>
          <path id="Trazado_57970" data-name="Trazado 57970" d="M502.448,1185.122l.49,2.341,1.317-.275-.54-2.581,3.953-1.607s2.322,5.233,1.392,6.655c-2.559,3.912-18.3,3.826-18.3,3.826l-.7-3.326Z" transform="translate(-490.067 -1182.707)" fill="#482b0e"/>
        </g>
        <path id="Trazado_57971" data-name="Trazado 57971" d="M559.725,1287.559s-11.354-.147-19.253,3.017C542.609,1286.309,549.795,1277.8,559.725,1287.559Z" transform="translate(-515.251 -1183.194)" fill="#fff"/>
        <g id="Grupo_31542" data-name="Grupo 31542" transform="translate(57.375 53.912)">
          <path id="Trazado_57972" data-name="Trazado 57972" d="M629.586,1194.387c-1.818,7.407-6.776,12.554-11.08,11.5s-6.317-7.915-4.5-15.321,6.776-12.559,11.082-11.5S631.405,1186.979,629.586,1194.387Z" transform="translate(-613.338 -1178.926)" fill="#fcae88"/>
          <path id="Trazado_57973" data-name="Trazado 57973" d="M626.9,1195.733s14.177-4.936,2.4,11.474C628.808,1204.775,634.382,1201.215,626.9,1195.733Z" transform="translate(-620.917 -1187.927)" fill="#b06d4d"/>
        </g>
        <g id="Grupo_31543" data-name="Grupo 31543">
          <path id="Trazado_57974" data-name="Trazado 57974" d="M483.315,1089.048c1.629-.8,25.074,2.79,39.359-.722a22.485,22.485,0,0,0,6.353-2.462c.241-.154.477-.308.7-.481a9.171,9.171,0,0,0,3.858-5.792c.03-.182.06-.356.08-.541.39-2.473-.021-5.537-1.455-9.3,0,0-18.659-24.068-35.487-6.7a33.192,33.192,0,0,0-2.852,3.358,54.885,54.885,0,0,0-5.485,9.407c-.256.551-.51,1.11-.753,1.681C486.542,1079.977,484.343,1086,483.315,1089.048Z" transform="translate(-483.315 -1056.75)" fill="#482b0e"/>
          <path id="Trazado_57975" data-name="Trazado 57975" d="M507.239,1073.746c8.164-1.577,21.3-1.2,37.21,11.158.826.641,1.659,1.313,2.5,2.026.03-.182.06-.356.08-.541-.711-.682-1.495-1.413-2.362-2.186-7.747-6.945-21.328-16.635-34.581-13.816A33.194,33.194,0,0,0,507.239,1073.746Z" transform="translate(-496.682 -1064.09)" fill="#36200b"/>
          <path id="Trazado_57976" data-name="Trazado 57976" d="M493.1,1096.823c6.217-2.271,20.706-5.915,39.488,7.014.631.428,1.264.884,1.906,1.355.241-.154.477-.308.7-.481-.622-.537-1.283-1.089-1.965-1.647-9.785-7.981-25.493-16.993-39.377-7.922C493.6,1095.693,493.345,1096.253,493.1,1096.823Z" transform="translate(-488.783 -1076.079)" fill="#36200b"/>
        </g>
        <path id="Trazado_57977" data-name="Trazado 57977" d="M572.511,1104.782a22.491,22.491,0,0,0,6.353-2.462c.241-.154.477-.308.7-.481a9.17,9.17,0,0,0,3.857-5.792c.031-.182.06-.356.08-.541.39-2.473-.021-5.537-1.455-9.3a21.16,21.16,0,0,1-.907,7.117c-.069.233-.142.467-.222.7a20.368,20.368,0,0,1-3.319,6.171c-.2.264-.417.52-.642.773A20.534,20.534,0,0,1,572.511,1104.782Z" transform="translate(-533.152 -1073.207)" fill="#36200b"/>
        <path id="Trazado_57978" data-name="Trazado 57978" d="M570.535,1205.685s-10.581-7.5-12.862,2.113C558.888,1206.874,560.565,1202.525,570.535,1205.685Z" transform="translate(-524.861 -1138.408)" fill="#482b0e"/>
        <path id="Trazado_57979" data-name="Trazado 57979" d="M502.2,1219s7.229-10.771,12.774-2.592C513.505,1215.977,510.395,1212.506,502.2,1219Z" transform="translate(-493.865 -1144.243)" fill="#482b0e"/>
      </g>
      <g id="Grupo_31545" data-name="Grupo 31545" transform="translate(83.448 122.268)">
        <path id="Trazado_57980" data-name="Trazado 57980" d="M588.513,1348.631s14.157,0,19.455,20.659c2.821-9.343,6.473-27.717-1.8-35.454C602.646,1342.7,595.22,1348.631,588.513,1348.631Z" transform="translate(-565.179 -1333.836)" fill="#33b3c0"/>
        <path id="Trazado_57981" data-name="Trazado 57981" d="M557.856,1348.631s-14.161,0-19.46,20.659c-2.821-9.343-5.479-27.717,2.794-35.454C544.716,1342.7,551.144,1348.631,557.856,1348.631Z" transform="translate(-535.633 -1333.836)" fill="#33b3c0"/>
      </g>
      <g id="Grupo_31546" data-name="Grupo 31546" transform="translate(102.748 175.368)">
        <path id="Trazado_57982" data-name="Trazado 57982" d="M584.448,1456.712a2.539,2.539,0,1,1-2.54-2.54A2.539,2.539,0,0,1,584.448,1456.712Z" transform="translate(-579.37 -1454.172)" fill="#33b3c0"/>
        <path id="Trazado_57983" data-name="Trazado 57983" d="M584.448,1528.73a2.539,2.539,0,1,1-2.54-2.539A2.539,2.539,0,0,1,584.448,1528.73Z" transform="translate(-579.37 -1494.411)" fill="#33b3c0"/>
        <path id="Trazado_57984" data-name="Trazado 57984" d="M584.448,1600.75a2.539,2.539,0,1,1-2.54-2.539A2.539,2.539,0,0,1,584.448,1600.75Z" transform="translate(-579.37 -1534.652)" fill="#33b3c0"/>
        <path id="Trazado_57985" data-name="Trazado 57985" d="M584.448,1672.768a2.539,2.539,0,1,1-2.54-2.54A2.539,2.539,0,0,1,584.448,1672.768Z" transform="translate(-579.37 -1574.89)" fill="#33b3c0"/>
        <path id="Trazado_57986" data-name="Trazado 57986" d="M584.448,1744.788a2.539,2.539,0,1,1-2.54-2.54A2.539,2.539,0,0,1,584.448,1744.788Z" transform="translate(-579.37 -1615.13)" fill="#33b3c0"/>
      </g>
      <g id="Grupo_31548" data-name="Grupo 31548" transform="translate(128.193 194.825)">
        <path id="Trazado_57987" data-name="Trazado 57987" d="M637.034,1498.266v21.6l10.067,2.885,10.068-2.885v-21.6Z" transform="translate(-637.034 -1498.266)" fill="#33b3c0"/>
        <g id="Grupo_31547" data-name="Grupo 31547" transform="translate(1.001 1.918)">
          <rect id="Rectángulo_6296" data-name="Rectángulo 6296" width="2.476" height="0.319" fill="#00a0b0"/>
          <rect id="Rectángulo_6297" data-name="Rectángulo 6297" width="2.477" height="0.319" transform="translate(3.915)" fill="#00a0b0"/>
          <rect id="Rectángulo_6298" data-name="Rectángulo 6298" width="2.476" height="0.319" transform="translate(7.83)" fill="#00a0b0"/>
          <rect id="Rectángulo_6299" data-name="Rectángulo 6299" width="2.478" height="0.319" transform="translate(11.743)" fill="#00a0b0"/>
          <rect id="Rectángulo_6300" data-name="Rectángulo 6300" width="2.476" height="0.319" transform="translate(15.659)" fill="#00a0b0"/>
        </g>
      </g>
      <g id="Grupo_31563" data-name="Grupo 31563" transform="translate(5.958 49.522)">
        <g id="Grupo_31555" data-name="Grupo 31555">
          <g id="Grupo_31550" data-name="Grupo 31550" transform="translate(0 4.257)">
            <g id="Grupo_31549" data-name="Grupo 31549">
              <path id="Trazado_57988" data-name="Trazado 57988" d="M371.479,1207.213c-2.879-4.466-5.687-8.787-7.137-13.491-1.415-4.59-1.57-9.879-4.317-14.14l1.484-.957c2.878,4.466,3.07,9.872,4.52,14.576,1.415,4.59,4.186,8.793,6.934,13.055Z" transform="translate(-360.024 -1178.625)" fill="#cc333f"/>
            </g>
          </g>
          <g id="Grupo_31552" data-name="Grupo 31552" transform="translate(5.137 2.129)">
            <g id="Grupo_31551" data-name="Grupo 31551">
              <path id="Trazado_57989" data-name="Trazado 57989" d="M383.119,1202.389c-2.879-4.466-5.687-8.788-7.137-13.492-1.415-4.59-1.57-9.878-4.317-14.139l1.483-.957c2.88,4.466,3.07,9.872,4.52,14.576,1.415,4.59,4.186,8.794,6.934,13.055Z" transform="translate(-371.665 -1173.801)" fill="#cc333f"/>
            </g>
          </g>
          <g id="Grupo_31554" data-name="Grupo 31554" transform="translate(10.273)">
            <g id="Grupo_31553" data-name="Grupo 31553">
              <path id="Trazado_57990" data-name="Trazado 57990" d="M394.758,1197.564c-2.879-4.466-5.687-8.787-7.137-13.491-1.415-4.59-1.57-9.878-4.317-14.14l1.483-.956c2.879,4.466,3.07,9.872,4.52,14.576,1.415,4.589,4.186,8.794,6.934,13.055Z" transform="translate(-383.304 -1168.977)" fill="#cc333f"/>
            </g>
          </g>
        </g>
        <g id="Grupo_31562" data-name="Grupo 31562" transform="translate(138.767 37.78)">
          <g id="Grupo_31557" data-name="Grupo 31557">
            <g id="Grupo_31556" data-name="Grupo 31556">
              <path id="Trazado_57991" data-name="Trazado 57991" d="M674.5,1282.411c1.038-5.211,2.029-10.269,4.26-14.657,2.176-4.281,5.744-8.187,6.736-13.16l1.732.345c-1.04,5.211-4.664,9.227-6.895,13.615-2.176,4.282-3.111,9.23-4.1,14.2Z" transform="translate(-674.499 -1254.594)" fill="#cc333f"/>
            </g>
          </g>
          <g id="Grupo_31559" data-name="Grupo 31559" transform="translate(5.17 2.044)">
            <g id="Grupo_31558" data-name="Grupo 31558">
              <path id="Trazado_57992" data-name="Trazado 57992" d="M686.216,1287.044c1.039-5.212,2.029-10.269,4.26-14.657,2.176-4.282,5.745-8.188,6.736-13.16l1.732.344c-1.04,5.211-4.664,9.228-6.895,13.615-2.176,4.282-3.109,9.229-4.1,14.2Z" transform="translate(-686.216 -1259.227)" fill="#cc333f"/>
            </g>
          </g>
          <g id="Grupo_31561" data-name="Grupo 31561" transform="translate(10.341 4.087)">
            <g id="Grupo_31560" data-name="Grupo 31560">
              <path id="Trazado_57993" data-name="Trazado 57993" d="M697.935,1291.674c1.038-5.211,2.029-10.269,4.259-14.656,2.177-4.281,5.745-8.188,6.737-13.161l1.731.346c-1.038,5.21-4.663,9.227-6.894,13.614-2.177,4.282-3.11,9.229-4.1,14.2Z" transform="translate(-697.935 -1263.857)" fill="#cc333f"/>
            </g>
          </g>
        </g>
      </g>
      <path id="Trazado_57994" data-name="Trazado 57994" d="M640.015,1516.869H637.2l-4.112-12.474-2.349,114.016s-47.557,9.358-80.071,7.085c77.415-7.46,80.147-137.746,80.147-137.746l.009.029,2.456,7.767Z" transform="translate(-460.583 -1297.565)" fill="#007884" opacity="0.26"/>
      <g id="Grupo_31567" data-name="Grupo 31567" transform="translate(48.629 20.943)">
        <g id="Grupo_31566" data-name="Grupo 31566">
          <g id="Grupo_31564" data-name="Grupo 31564" transform="translate(0 1.918)">
            <path id="Trazado_57995" data-name="Trazado 57995" d="M535.74,1129.031a18.156,18.156,0,0,1-.252,3.014,20.033,20.033,0,0,1-1.311,4.218c-3.676,8.45-12.854,13.728-22.182,13.071a207.632,207.632,0,0,0-31.528,0,22.573,22.573,0,0,1-4.227-.1c-9.2-1.09-17.443-7.761-19.261-17.187a17.523,17.523,0,0,1,2.109-11.774c3.592-6.252,10.811-10.444,18.343-11q11.107-.84,22.257-.684,7.678.1,15.343.688C525.7,1110.061,535.74,1118.127,535.74,1129.031Z" transform="translate(-456.727 -1108.558)" fill="#adadae"/>
          </g>
          <g id="Grupo_31565" data-name="Grupo 31565" transform="translate(0.958)">
            <path id="Trazado_57996" data-name="Trazado 57996" d="M537.914,1124.692a18.631,18.631,0,0,1-.252,3.009,20.1,20.1,0,0,1-2.273,6.133,22.8,22.8,0,0,1-21.225,11.151,208.847,208.847,0,0,0-31.524,0,22.647,22.647,0,0,1-4.708-.164c-9.015-1.257-17-7.859-18.785-17.121a17.511,17.511,0,0,1,1.152-9.859c3.124-7.306,11.023-12.3,19.3-12.92q11.59-.88,23.224-.67,7.2.125,14.381.67C527.871,1105.718,537.914,1113.784,537.914,1124.692Z" transform="translate(-458.897 -1104.212)" fill="#e6e7e8"/>
          </g>
        </g>
        <path id="Trazado_57997" data-name="Trazado 57997" d="M501.612,1104.253q-.966.959-1.924,1.9c-3.248,3.212-6.363,6.222-9.037,8.689-12.422,11.468,2.855,8.03-7.475,17.946-3.649,3.508-5.353,7.824-6.456,12.033-.172.666-.331,1.324-.481,1.981-9.2-1.09-17.443-7.761-19.261-17.187a17.524,17.524,0,0,1,2.109-11.774c3.124-7.306,11.023-12.3,19.3-12.92Q489.978,1104.043,501.612,1104.253Z" transform="translate(-456.727 -1104.212)" fill="#f5f5f6" opacity="0.69"/>
      </g>
      <g id="Grupo_31568" data-name="Grupo 31568" transform="translate(0.429 33.069)">
        <path id="Trazado_57998" data-name="Trazado 57998" d="M416.036,1247.579a56.653,56.653,0,0,0-11.321-2.36s-96.923,132.326-38.481,120.106C386.127,1361.165,413.786,1272.433,416.036,1247.579Z" transform="translate(-347.495 -1195.123)" fill="url(#linear-gradient-2)"/>
        <path id="Trazado_57999" data-name="Trazado 57999" d="M467,1181.787c-4.817-4.315-8.027-24.59-8.027-24.59s10-25.506,11.694-25.506c.8,0,1.239,2.076,1.013,2.84-4.193,14.218-2.94,22.208-2.94,22.208s3.381-17.5,5.365-17.5c.849,0,.9,2.407.993,3.252.454,3.874-.993,15.57-.993,15.57s2.739-12.279,4.216-12.279c1.388,0,1.141,4.013,1.345,5.386.57,3.828.787,15.46.787,15.46l-2.132,17.52S469.157,1183.716,467,1181.787Z" transform="translate(-409.783 -1131.691)" fill="url(#linear-gradient-3)"/>
      </g>
      <path id="Trazado_58000" data-name="Trazado 58000" d="M680.548,1617.764c-18.112-14.667-46.372-4.914-93.216,1.143v16.106S726.056,1654.616,680.548,1617.764Z" transform="translate(-481.071 -1365.914)" fill="#fcae88"/>
      <path id="Trazado_58001" data-name="Trazado 58001" d="M536.158,1604.23s-8.1-22.127-11.8-26.765c-4.358.607-3.294,7.092-3.363,9.561-.049,1.746.089,7.407.089,7.407l-26.559,2.612s-6.405-.078-7.462,1.613c-.659,1.054.548,3.98,1.547,4.722,1.4,1.037,6.962.62,8.765.455l.443,1.055-.467-.827s-7.372.122-8.642,1.857c-.79,1.081.51,3.99,1.635,4.7,1.562.991,7.641-.011,9.717-.391l.193.46c-1.674.088-6.934.468-8.006,1.8-.795.993.433,3.6,1.527,4.227,1.369.785,6.377.041,8.846-.39l.052.122c-2.353.193-7.082.724-8.165,1.937-.907,1.013.4,3.607,1.6,4.211,1.368.689,6.11.038,9.028-.455,1.351.259,20.449,3.776,28.255-3.069C541.507,1611.96,536.158,1604.23,536.158,1604.23Z" transform="translate(-424.941 -1347.692)" fill="#fcae88"/>
      <path id="Trazado_58002" data-name="Trazado 58002" d="M777.88,1554.552l-35.125-10.461-.379-7.916s24.049-1.209,33.757-1.209C777.4,1539.315,777.85,1546.667,777.88,1554.552Z" transform="translate(-567.7 -1323.945)" fill="#b06c4c" opacity="0.49"/>
      <path id="Trazado_58003" data-name="Trazado 58003" d="M771.373,1466.08l-31.937.029h-5.695l-1.237-12.474v-.02c-.077-.421-1.228-7.535-2.264-16.6-1.917-16.742-3.412-40.117,3.136-40.117.115,0,.239.01.365.019C762.028,1408.755,771.373,1466.08,771.373,1466.08Z" transform="translate(-560.004 -1246.805)" fill="#00a0b0"/>
      <path id="Trazado_58004" data-name="Trazado 58004" d="M695.288,1640.549c-.3,4.249-.539,6.963-.539,6.963l0,0c-.9,16.6-79.631,7.471-98.389,5.057,58.366,3.5,82.618-2.555,92.467-7.268a24.417,24.417,0,0,0,4.373-2.612,7.48,7.48,0,0,0,2.087-2.14Z" transform="translate(-486.113 -1382.937)" fill="#b06c4c" opacity="0.24"/>
    </g>
    <g id="Grupo_31572" data-name="Grupo 31572" transform="translate(530.913 1066.262)">
      <g id="Grupo_31569" data-name="Grupo 31569" transform="translate(0 0)">
        <path id="Trazado_58005" data-name="Trazado 58005" d="M794.151,1092.748a14.263,14.263,0,0,0-14.082-14.442h0a14.263,14.263,0,0,0-14.442,14.082l-1.235,97.966a25.285,25.285,0,0,0,3.872,13.768h0a24.581,24.581,0,0,1,3.764,13.385l-.148,11.773a6.27,6.27,0,0,0,6.19,6.349h0a6.27,6.27,0,0,0,6.348-6.223l.083-11.268a24.582,24.582,0,0,1,3.915-13.13l.471-.731a25.286,25.286,0,0,0,4.027-13.374Z" transform="translate(-764.39 -1078.305)" fill="#aeccdc"/>
        <rect id="Rectángulo_6301" data-name="Rectángulo 6301" width="141.748" height="8.234" rx="2.991" transform="translate(9.608 154.919) rotate(-89.278)" fill="#fff" opacity="0.38"/>
        <rect id="Rectángulo_6302" data-name="Rectángulo 6302" width="4.213" height="139.504" rx="2.106" transform="translate(13.768 11.633) rotate(0.722)" fill="#ad3851"/>
        <rect id="Rectángulo_6303" data-name="Rectángulo 6303" width="7.646" height="2.353" rx="1.176" transform="translate(1.452 31.585) rotate(0.722)" fill="#2e4661"/>
        <rect id="Rectángulo_6304" data-name="Rectángulo 6304" width="7.646" height="2.353" rx="1.176" transform="translate(1.094 59.962) rotate(0.722)" fill="#2e4661"/>
        <rect id="Rectángulo_6305" data-name="Rectángulo 6305" width="7.646" height="2.353" rx="1.176" transform="translate(0.736 88.339) rotate(0.722)" fill="#2e4661"/>
      </g>
      <g id="Grupo_31571" data-name="Grupo 31571" transform="translate(11.263 3.128)" opacity="0.66">
        <g id="Grupo_31570" data-name="Grupo 31570">
          <path id="Trazado_58006" data-name="Trazado 58006" d="M805.582,1099.173c.009-3.856-.942-7.932-3.876-10.641-2.809-2.593-6.641-3.378-10.362-3.077-1.87.151-1.926,3.093-.037,2.941,2.92-.236,6.042.136,8.293,2.189,2.386,2.177,3.049,5.449,3.042,8.551a1.471,1.471,0,0,0,2.941.037Z" transform="translate(-789.915 -1085.395)" fill="#fff"/>
        </g>
        <path id="Trazado_58007" data-name="Trazado 58007" d="M821.185,1125.542a1.618,1.618,0,1,1-1.6-1.638A1.618,1.618,0,0,1,821.185,1125.542Z" transform="translate(-805.579 -1106.911)" fill="#fff"/>
      </g>
    </g>
  </g>
</svg>
