<svg xmlns="http://www.w3.org/2000/svg" width="164" height="164" viewBox="0 0 164 164">
  <g id="Grupo_22397" data-name="Grupo 22397" transform="translate(-1297 -7064)">
    <circle id="Elipse_1246" data-name="Elipse 1246" cx="82" cy="82" r="82" transform="translate(1297 7064)" fill="#5ebc77"/>
    <g id="Grupo_18511" data-name="Grupo 18511" transform="translate(1315.719 4570.211)">
      <path id="Trazado_47906" data-name="Trazado 47906" d="M108.884,2603.275c5.391,1.911,11.6,4.573,18.223,16.039s11.876,28.188,7.508,33.444-11.6,3.958-12.695.888S108.884,2603.275,108.884,2603.275Z" transform="translate(-34.438 -34.105)" fill="#ee7d88"/>
      <path id="Trazado_47907" data-name="Trazado 47907" d="M54.567,2604.51A33.435,33.435,0,0,0,35.6,2622.847c-3.709,9.009-5.607,19.689-2.12,24.484,4.24,5.83,14.415,2.649,17.065-2.544S54.567,2604.51,54.567,2604.51Z" transform="translate(-8.141 -34.526)" fill="#ee7d88"/>
      <path id="Trazado_47908" data-name="Trazado 47908" d="M77.27,2600.5c-11.635.339-19.45.9-21.412,10.052-1.722,8.037-1.673,44.558-2.533,53.858-1.359,14.694-1.553,18.061-.409,18.551s13.158,3.188,31.71,2.452,23.455-1.634,24.109-3.759-.408-6.13-.735-8.582-8.185-50.49-9.971-59.415C96.231,2604.665,94.105,2600.006,77.27,2600.5Z" transform="translate(-15.13 -33.147)" fill="#f19493"/>
      <g id="Grupo_18504" data-name="Grupo 18504" transform="translate(88.809 2517.623)">
        <path id="Trazado_47909" data-name="Trazado 47909" d="M136.745,2542.518q.5-.881,1.079-1.695a6.246,6.246,0,0,1,1.355-1.4,5.988,5.988,0,0,1,1.859-.916,7.685,7.685,0,0,1,2.549-.271q.606.012,1.707.084a15.789,15.789,0,0,0,2.3-.025,8.741,8.741,0,0,0,2.247-.472,2.8,2.8,0,0,0,1.553-1.258,2.091,2.091,0,0,0,.119-1.964,3.292,3.292,0,0,0-1.44-1.574,3.126,3.126,0,0,0-1.47-.449,4.289,4.289,0,0,0-1.352.174,6.087,6.087,0,0,0-1.164.478,6.869,6.869,0,0,1-.945.435l-3.02-6.514a9.683,9.683,0,0,1,5.722-2.024,11.694,11.694,0,0,1,6.192,1.641,13.692,13.692,0,0,1,2.97,2.309,10.094,10.094,0,0,1,2.123,3.162,8.569,8.569,0,0,1,.631,3.868,10.184,10.184,0,0,1-1.459,4.458,10.344,10.344,0,0,1-2.833,3.256,8.013,8.013,0,0,1-4.291,1.42,16.551,16.551,0,0,1-2.514.013q-1.231-.089-2.312-.1a7.687,7.687,0,0,0-1.9.2,1.821,1.821,0,0,0-1.2.877Zm-6.085,10.952,3.933-6.889,6.51,3.717-3.933,6.888Z" transform="translate(-130.66 -2525.125)" fill="#fff"/>
      </g>
      <g id="Grupo_18505" data-name="Grupo 18505" transform="translate(7.721 2518.923)">
        <path id="Trazado_47910" data-name="Trazado 47910" d="M23.96,2539.517q.121,1.009.142,2a6.238,6.238,0,0,1-.257,1.931,5.969,5.969,0,0,1-.948,1.842,7.693,7.693,0,0,1-1.887,1.736q-.494.352-1.421.949a15.8,15.8,0,0,0-1.831,1.388,8.711,8.711,0,0,0-1.524,1.717,2.8,2.8,0,0,0-.5,1.935,2.094,2.094,0,0,0,1.074,1.65,3.293,3.293,0,0,0,2.094.407,3.133,3.133,0,0,0,1.449-.514,4.3,4.3,0,0,0,.982-.945,6.109,6.109,0,0,0,.651-1.077,6.852,6.852,0,0,1,.5-.913l6.3,3.436A9.683,9.683,0,0,1,25.4,2560.1a11.693,11.693,0,0,1-5.952,2.368,13.672,13.672,0,0,1-3.761-.086A10.092,10.092,0,0,1,12.1,2561.1a8.568,8.568,0,0,1-2.81-2.733,10.185,10.185,0,0,1-1.483-4.45,10.342,10.342,0,0,1,.338-4.3,8.019,8.019,0,0,1,2.6-3.7,16.567,16.567,0,0,1,2.012-1.508q1.043-.661,1.915-1.3a7.692,7.692,0,0,0,1.4-1.289,1.819,1.819,0,0,0,.439-1.417Zm-1.632-12.422.942,7.876-7.443.89-.943-7.875Z" transform="translate(-7.721 -2527.095)" fill="#fff"/>
      </g>
      <path id="Trazado_47911" data-name="Trazado 47911" d="M105.667,2657.138c4.533-.643,10.375,2.048,10.306,7.986s-6.484,10.238-14.81,9.214-25.049-4.3-31.533-5.8-12.9-2.866-14.743-4.709-.751-3.959.819-3.959,3,2.116,15.767,2.116S96.521,2658.435,105.667,2657.138Z" transform="translate(-15.728 -52.409)" fill="#fbca8e"/>
      <path id="Trazado_47912" data-name="Trazado 47912" d="M40.391,2644.734c-4.921-1.009-5.936-7.419-4.876-14.945.741-5.265,6.227-18.308,8.951-26.2,2.922-8.462,4.512-10.706,6-10.02,1.917.886-.342,3.924-.13,7.846s.8,18.763.88,26.4C51.32,2638.413,46.554,2646,40.391,2644.734Z" transform="translate(-9.332 -30.763)" fill="#fbca8e"/>
      <g id="Grupo_18509" data-name="Grupo 18509" transform="translate(36.762 2503.089)">
        <path id="Trazado_47913" data-name="Trazado 47913" d="M60.6,2518.467s-9.947-3.817-3.419-9.981,17.406-6.459,20.827-3.818,2.487,12.92,1.243,13.506S62.158,2519.936,60.6,2518.467Z" transform="translate(-52.844 -2503.089)" fill="#633d1e"/>
        <path id="Trazado_47914" data-name="Trazado 47914" d="M92.064,2591.448,90.4,2568.9l-8.852-.59-.373,22.208C82.069,2596.2,91.41,2594.51,92.064,2591.448Z" transform="translate(-61.766 -2525.292)" fill="#eda159"/>
        <path id="Trazado_47915" data-name="Trazado 47915" d="M99.742,2542.568c1.969,12.153-4.735,26.481-15.442,28.231-14.168,2.312-23.5-11.769-25.468-23.924s6.8-22.363,18.857-24.334S97.77,2530.415,99.742,2542.568Z" transform="translate(-54.066 -2509.625)" fill="#fbca8e"/>
        <g id="Grupo_18508" data-name="Grupo 18508" transform="translate(12.295 33.219)">
          <path id="Trazado_47916" data-name="Trazado 47916" d="M92.021,2569.844c3.669-1.1,5.86,1.521,1.657,3.1" transform="translate(-77.754 -2558.943)" fill="none" stroke="#a56052" stroke-miterlimit="10" stroke-width="0.546"/>
          <path id="Trazado_47917" data-name="Trazado 47917" d="M85.344,2580.793a19.919,19.919,0,0,0,5.893,2.576" transform="translate(-75.481 -2562.76)" fill="none" stroke="#a56052" stroke-miterlimit="10" stroke-width="0.955"/>
          <g id="Grupo_18506" data-name="Grupo 18506" transform="translate(18.851)">
            <path id="Trazado_47918" data-name="Trazado 47918" d="M101.862,2564.323a.734.734,0,1,0,.526-.9A.733.733,0,0,0,101.862,2564.323Z" transform="translate(-99.947 -2556.84)" fill="#643619"/>
            <path id="Trazado_47919" data-name="Trazado 47919" d="M99.886,2553.536c5.039.786,9.726,2.057,6.48,1.791S96.562,2553.018,99.886,2553.536Z" transform="translate(-98.971 -2553.453)" fill="#994d1d"/>
          </g>
          <g id="Grupo_18507" data-name="Grupo 18507" transform="translate(2.392)">
            <path id="Trazado_47920" data-name="Trazado 47920" d="M83.206,2564.323a.734.734,0,1,1-.526-.9A.733.733,0,0,1,83.206,2564.323Z" transform="translate(-76.653 -2556.84)" fill="#643619"/>
            <path id="Trazado_47921" data-name="Trazado 47921" d="M81.57,2553.536c-5.039.786-9.726,2.057-6.48,1.791S84.894,2553.018,81.57,2553.536Z" transform="translate(-74.017 -2553.453)" fill="#994d1d"/>
          </g>
          <path id="Trazado_47922" data-name="Trazado 47922" d="M75.188,2567.423c0,.414-1.074.75-2.4.75s-2.4-.336-2.4-.75,1.074-.75,2.4-.75S75.188,2567.01,75.188,2567.423Z" transform="translate(-70.39 -2557.953)" fill="#f4a29d"/>
          <path id="Trazado_47923" data-name="Trazado 47923" d="M113.532,2567.423c0,.414-1.074.75-2.4.75s-2.4-.336-2.4-.75,1.074-.75,2.4-.75S113.532,2567.01,113.532,2567.423Z" transform="translate(-83.443 -2557.953)" fill="#f4a29d"/>
        </g>
        <path id="Trazado_47924" data-name="Trazado 47924" d="M82.955,2519.822,81,2518.127c-2.969-2.215-7.811-2.929-15.978-.754-6.513,1.735-14.007,5.256-13.214,16.544.331,4.718,2.617,8.377,3.746,12.831,1.1.054,1.927-.124,2.83.53a10.237,10.237,0,0,1,1.9,2.528c-.485-5.264-.588-9.669,4.211-12.676,4.378-2.743,5.778-7.3,5.077-9.513,3.2-.859,8.761.308,11.131-1.931C83.453,2523.095,85.064,2521.715,82.955,2519.822Z" transform="translate(-51.75 -2507.504)" fill="#82512c"/>
        <path id="Trazado_47925" data-name="Trazado 47925" d="M84.684,2517.711c-3.182.382-8.983,4.227-10.569,7.009l-.228.207c-3.013,3.667,10.4,13.1,13.5,14.612,3.431,1.669,8.334,5.029,11.9,5.635.05-.567-1.392-5.043-1.441-5.314a11.52,11.52,0,0,0,2.138,3.281c3.6,4.286,4.785,7.2,5.25,10.175,2.975-8.975,3.691-22.988-3.661-30.266C97.51,2519.034,92.948,2516.719,84.684,2517.711Z" transform="translate(-59.137 -2507.989)" fill="#82512c"/>
        <path id="Trazado_47926" data-name="Trazado 47926" d="M62.712,2563.51c.883,2.469.853,4.3-.66,4.853s-4.775-.654-5.657-3.123-.367-4.913,1.147-5.464S61.832,2561.048,62.712,2563.51Z" transform="translate(-53.185 -2522.353)" fill="#fbca8e"/>
      </g>
      <g id="Grupo_18510" data-name="Grupo 18510" transform="translate(37.695 2549.516)">
        <path id="Trazado_47927" data-name="Trazado 47927" d="M60.145,2584.105c.571-2.62,2.165-7.465,2.572-9.218s1.641-1.61,2.217-.97-.07,2.811-.8,5.318c-.625,2.151-2.027,6.084-2.027,6.084Z" transform="translate(-55.542 -2573.478)" fill="#fac184"/>
        <path id="Trazado_47928" data-name="Trazado 47928" d="M53.24,2593.358a16.493,16.493,0,0,1,.789-7.129c1.243-2.662,3.938-2.455,5.554-1.723s1.628,4.183,1.086,5.3c-1.452,3-3.84,3.361-4.31,4.661C55.744,2595.158,53.245,2594.434,53.24,2593.358Z" transform="translate(-53.166 -2577.069)" fill="#fbca8e"/>
        <path id="Trazado_47929" data-name="Trazado 47929" d="M57.325,2582.621c2.758.555,2.7,1.831,2.645,3.855-.047,1.627-1.957,1.906-4.019,1.592a2.834,2.834,0,0,1-2.037-1.288S54.888,2582.131,57.325,2582.621Z" transform="translate(-53.42 -2576.578)" fill="#fbca8e"/>
        <path id="Trazado_47930" data-name="Trazado 47930" d="M55.972,2586.44c-.264,1.772.494,2.422,2.32,2.6a2.3,2.3,0,0,0,2.642-2.9,3.938,3.938,0,0,0-.726-1.622" transform="translate(-54.103 -2577.236)" fill="none" stroke="#d68e4f" stroke-miterlimit="10" stroke-width="0.405"/>
        <path id="Trazado_47931" data-name="Trazado 47931" d="M60.73,2591.249c.972,1.624,2.572.971,3.615-.185s1.474-2.157.948-2.9-4.2-.849-4.5.23.591,1.437,1.492,1.32c-1.647.642-1.555,1.537-1.555,1.537" transform="translate(-55.74 -2578.282)" fill="#fac184"/>
        <path id="Trazado_47932" data-name="Trazado 47932" d="M55.883,2586.338c-.059.324-.032.988.417.812" transform="translate(-54.083 -2577.855)" fill="none" stroke="#d68e4f" stroke-miterlimit="10" stroke-width="0.405"/>
        <path id="Trazado_47933" data-name="Trazado 47933" d="M61.05,2592.626c-.361-.688.145-2.077,2.495-2.3" transform="translate(-55.814 -2579.214)" fill="none" stroke="#d68e4f" stroke-miterlimit="10" stroke-width="0.279"/>
        <path id="Trazado_47934" data-name="Trazado 47934" d="M61.106,2588.3c-.52.493-.474,1.537.928,1.7" transform="translate(-55.765 -2578.524)" fill="none" stroke="#d68e4f" stroke-miterlimit="10" stroke-width="0.279"/>
      </g>
      <path id="Trazado_47935" data-name="Trazado 47935" d="M98.988,2643.39c.072,1.187-6.864,2.575-15.492,3.1s-15.681-.013-15.753-1.2,6.864-2.574,15.492-3.1S98.916,2642.2,98.988,2643.39Z" transform="translate(-20.432 -47.284)" fill="#ee7d88"/>
    </g>
  </g>
</svg>
