<svg xmlns="http://www.w3.org/2000/svg" width="526.051" height="369.473" viewBox="0 0 526.051 369.473">
  <g id="Grupo_31409" data-name="Grupo 31409" transform="translate(-1125.708 0)">
    <path id="Trazado_38710" data-name="Trazado 38710" d="M-232.27-3342.933q.672-2.4,1.454-4.787C-207.807-3418-116.5-3427.651-81.091-3489.313c40.347-70.255,138.593-99.614,213.851-57.607a145.744,145.744,0,0,1,65.222,76.5c11.448,31.219-4.951,77.377,21.911,101.167,19.35,17.136,42.054,27.024,56.655,49.171,10.574,16.038,15.925,35.569,11.767,53.913-10.075,44.458-55.171,42.473-93.9,37.54a1037.751,1037.751,0,0,0-189.634-6.607c-59.69,3.384-122.026,23.354-180.386,3.875C-226.8-3248.451-245.366-3296.213-232.27-3342.933Z" transform="translate(1362.032 3580.221)" fill="#fff" opacity="0.16"/>
    <g id="Grupo_31408" data-name="Grupo 31408" transform="translate(1169.52 -18.685)">
      <path id="Trazado_57408" data-name="Trazado 57408" d="M416.879,174.174l-.527-2.387-37.182,8.219a14.976,14.976,0,0,1-17.344-9.69,121.066,121.066,0,0,0-12.575-25.594,15.017,15.017,0,0,1,2.916-19.764l9.929-8.24-1.333-1.607-9.959,8.266a14.945,14.945,0,0,1-19.842-.669q-3.2-3.037-6.6-5.831a14.948,14.948,0,0,1-3.123-19.593l20.52-32.166L339.7,63.8,319.214,95.917a14.975,14.975,0,0,1-19.188,5.377,121.273,121.273,0,0,0-64.392-11.647A14.925,14.925,0,0,1,219.68,77.99l-8.149-36.868-2.386.527,8.1,36.667a14.978,14.978,0,0,1-9.834,17.394A121.111,121.111,0,0,0,181.448,108.2a15,15,0,0,1-19.651-2.987l-7.72-9.3L152.47,97.24l7.586,9.141a14.943,14.943,0,0,1-.744,19.92q-3.174,3.293-6.09,6.807a14.936,14.936,0,0,1-19.53,3.048l-31.215-19.915-1.314,2.06,31.023,19.791a14.972,14.972,0,0,1,5.348,19.247,121.281,121.281,0,0,0-11.886,65.3,14.917,14.917,0,0,1-11.655,15.98l-35.512,7.85.527,2.386,35.4-7.824a14.966,14.966,0,0,1,17.374,9.777A121.072,121.072,0,0,0,144.62,277.2a15,15,0,0,1-2.933,19.734l-8.423,6.991,1.333,1.606,8.436-7a14.932,14.932,0,0,1,19.829.658q3.408,3.244,7.05,6.211a14.938,14.938,0,0,1,3.15,19.615L153.6,355.526l2.06,1.314,19.5-30.562a14.964,14.964,0,0,1,19.115-5.413A121.249,121.249,0,0,0,259.8,332.171a14.924,14.924,0,0,1,16.14,11.639l7.894,35.712,2.386-.527-7.937-35.913a14.962,14.962,0,0,1,9.633-17.323,121.117,121.117,0,0,0,26.013-12.934,15.014,15.014,0,0,1,19.847,2.86l7.514,9.053,1.606-1.333-7.68-9.254a14.932,14.932,0,0,1,.583-19.749q3.106-3.313,5.953-6.842a14.949,14.949,0,0,1,19.677-3.227L392.883,304.4l1.314-2.06L362.545,282.15A14.969,14.969,0,0,1,357.1,263.1a121.25,121.25,0,0,0,11.068-64.615,14.931,14.931,0,0,1,11.64-16.115Z" transform="translate(-21.188 -22.437)" fill="#fff"/>
      <g id="Grupo_31407" data-name="Grupo 31407" transform="translate(137.965 32.581)">
        <path id="Trazado_57409" data-name="Trazado 57409" d="M302.99,231.516c-2.85-6.178-11.344-7.154-17.964-5.58-11.342,2.7-20.953,9.985-30.219,17.062s-18.941,14.306-30.319,16.847-24.981-.964-30.637-11.158c-5.349-9.642-2.193-21.549.648-32.2,6.9-25.862,11.195-52.879,7.606-79.4-.622-4.594-1.48-9.191-1.341-13.825s1.38-9.41,4.46-12.875c3.627-4.08,12.068-3.435,17.319-4.928,9.55-2.715,24.544-3.046,32.51,2.881,4.5,3.351,7.443,3.881,9.053,9.259,3.862,12.9-3.335,27.037-2.08,40.447s4.047,27.294,12.42,37.843c7.952,10.021,20.29,16.175,27.049,27.037Z" transform="translate(-154.41 -42.963)" fill="#69a5d8"/>
        <g id="Grupo_31365" data-name="Grupo 31365" transform="translate(16.54 158.877)">
          <g id="Grupo_31357" data-name="Grupo 31357" transform="translate(115.091 171.784)">
            <path id="Trazado_57410" data-name="Trazado 57410" d="M302.342,421.125a66.675,66.675,0,0,1,1.424,11.856c4.45-.441,8.926-.672,13.4-.692q-.32-5.74-.639-11.481a.952.952,0,0,0-.353-.834,1.283,1.283,0,0,0-.727-.095l-10.871.685Z" transform="translate(-302.329 -419.871)" fill="#415a99"/>
            <path id="Trazado_57411" data-name="Trazado 57411" d="M303.5,441.1c.139,1.108-.1,1.719.61,2.19a4.051,4.051,0,0,0,2.468.475,8.933,8.933,0,0,1,2.549.038,10.509,10.509,0,0,1,3.226,1.948,13.061,13.061,0,0,0,6.967,2.029,39.188,39.188,0,0,0,7.32-.689,3.776,3.776,0,0,0,2.6-1.15,3.655,3.655,0,0,0,.454-2.206q-13.22-1.187-26.331-3.32Z" transform="translate(-302.478 -422.875)" fill="#415a99"/>
            <path id="Trazado_57412" data-name="Trazado 57412" d="M329.644,441.868a2.949,2.949,0,0,0-.815-3.1,15.909,15.909,0,0,0-2.894-2.145,19.718,19.718,0,0,1-6.457-7.054,11.558,11.558,0,0,0-1.575-2.582,3.451,3.451,0,0,0-2.9-1.175,3.712,3.712,0,0,0-2.5,1.918,12.8,12.8,0,0,1-1.681,2.631,4.7,4.7,0,0,1-3.79,1.232,5.5,5.5,0,0,1-3.593-2.529c-2.216,1.072-.479,6.562-.166,9.506.077.729.8,1.328,1.473,1.76,1.037.668,2.476-.016,3.76.032,1.889.07,3.138,1.672,4.628,2.695,3.315,2.275,8.031,1.7,12.165,1.011C327.016,443.781,329.011,443.3,329.644,441.868Z" transform="translate(-302.326 -420.736)" fill="#02325a"/>
            <g id="Grupo_31355" data-name="Grupo 31355" transform="translate(11.453 14.151)">
              <path id="Trazado_57413" data-name="Trazado 57413" d="M316.168,439.385a.427.427,0,0,1-.178-.814,24.445,24.445,0,0,1,7.847-2.124.438.438,0,0,1,.466.384.427.427,0,0,1-.383.466,23.573,23.573,0,0,0-7.573,2.049A.427.427,0,0,1,316.168,439.385Z" transform="translate(-315.741 -436.446)" fill="#415a99"/>
            </g>
            <g id="Grupo_31356" data-name="Grupo 31356" transform="translate(13.717 12.648)">
              <path id="Trazado_57414" data-name="Trazado 57414" d="M318.819,436.4a.427.427,0,0,1-.114-.838l3.109-.857a.427.427,0,0,1,.227.824l-3.109.857A.474.474,0,0,1,318.819,436.4Z" transform="translate(-318.392 -434.685)" fill="#415a99"/>
            </g>
          </g>
          <g id="Grupo_31360" data-name="Grupo 31360" transform="translate(0 166.398)">
            <path id="Trazado_57415" data-name="Trazado 57415" d="M191.164,416.416q.142,6.082.283,12.165a56.834,56.834,0,0,1,12.539-.774q.685-7.105.68-14.244C200.832,413.921,195,416.057,191.164,416.416Z" transform="translate(-170.982 -413.562)" fill="#415a99"/>
            <path id="Trazado_57416" data-name="Trazado 57416" d="M193.943,444.8c1.411-.06,2.812.236,4.223.3a6.044,6.044,0,0,0,4.061-1.3c1.073-.919.7-1.823.47-3.541a34.1,34.1,0,0,1-6.023.6q-14.231.608-28.354,2.628a2.1,2.1,0,0,0,.569,2.622,8.338,8.338,0,0,0,3.316.65c5.23.484,10.6.957,15.658-.447C189.882,445.741,191.851,444.884,193.943,444.8Z" transform="translate(-167.61 -417.465)" fill="#415a99"/>
            <path id="Trazado_57417" data-name="Trazado 57417" d="M168,442.124c.974,1.226,2.976,1.366,4.7,1.387l7.733.089a18.735,18.735,0,0,0,6.972-.8c1.568-.61,2.949-1.661,4.654-1.87,2.839-.347,5.842,1.737,8.405.633,2-.86,2.413-3.128,2.4-5.048a32.047,32.047,0,0,0-1.957-11.612,6.03,6.03,0,0,1-3.413,2.476c-3.007.526-5.408-3.284-8.372-2.6a3.738,3.738,0,0,0-2.337,1.91c-.482.86-.733,1.8-1.171,2.677a11.025,11.025,0,0,1-4.972,4.575,31.445,31.445,0,0,1-6.865,2.324A12.882,12.882,0,0,0,169,438.073C167.687,439.071,167.007,440.877,168,442.124Z" transform="translate(-167.525 -415.19)" fill="#02325a"/>
            <g id="Grupo_31358" data-name="Grupo 31358" transform="translate(6.287 21.116)">
              <path id="Trazado_57418" data-name="Trazado 57418" d="M182.3,440.206a24.019,24.019,0,0,1-7.113-1.076.427.427,0,0,1,.253-.815,22.846,22.846,0,0,0,7.243,1.034h.007a.427.427,0,0,1,.008.854C182.567,440.2,182.435,440.206,182.3,440.206Z" transform="translate(-174.889 -438.295)" fill="#415a99"/>
            </g>
            <g id="Grupo_31359" data-name="Grupo 31359" transform="translate(10.977 20.048)">
              <path id="Trazado_57419" data-name="Trazado 57419" d="M183.7,438.317a.5.5,0,0,1-.061,0l-2.9-.421a.427.427,0,1,1,.123-.845l2.9.421a.427.427,0,0,1-.061.849Z" transform="translate(-180.382 -437.043)" fill="#415a99"/>
            </g>
          </g>
          <g id="Grupo_31362" data-name="Grupo 31362" transform="translate(18.085)">
            <path id="Trazado_57420" data-name="Trazado 57420" d="M210.622,218.667C198.478,254.381,193.141,292.1,190.843,329.7c-1.242,20.325-2.326,40.655-2.107,64.014l16.427-2.111c6.893-46.432,22.718-87,34.969-132.421,3.277-12.148,5.946-27.46,8.471-40.51Z" transform="translate(-188.708 -218.667)" fill="#02325a"/>
            <g id="Grupo_31361" data-name="Grupo 31361" transform="translate(12.603 39.816)">
              <path id="Trazado_57421" data-name="Trazado 57421" d="M203.9,398.377a.515.515,0,0,1-.062,0,.427.427,0,0,1-.36-.484,568,568,0,0,1,36.158-132.321.427.427,0,1,1,.79.324,567.181,567.181,0,0,0-36.1,132.12A.427.427,0,0,1,203.9,398.377Z" transform="translate(-203.47 -265.302)" fill="#415a99"/>
            </g>
          </g>
          <g id="Grupo_31363" data-name="Grupo 31363" transform="translate(56.548)">
            <path id="Trazado_57422" data-name="Trazado 57422" d="M272.905,218.667H233.757c4.147,11.361,8.491,27.308,12.855,38.9,17.406,46.239,35.4,90.113,45.008,137.605,3.915-.07,12.142-.752,16.059-.822A558.37,558.37,0,0,0,272.905,218.667Z" transform="translate(-233.757 -218.667)" fill="#02325a"/>
            <path id="Trazado_57423" data-name="Trazado 57423" d="M298.935,402.526a.426.426,0,0,1-.414-.325A802.989,802.989,0,0,0,251.5,264.874a.427.427,0,1,1,.78-.349A804.02,804.02,0,0,1,299.35,402a.427.427,0,0,1-.312.517A.474.474,0,0,1,298.935,402.526Z" transform="translate(-236.347 -225.335)" fill="#415a99"/>
          </g>
          <g id="Grupo_31364" data-name="Grupo 31364" transform="translate(40.619 1.352)">
            <path id="Trazado_57424" data-name="Trazado 57424" d="M270.245,225.462a127.443,127.443,0,0,1-55.144,0V220.25h55.144Z" transform="translate(-215.101 -220.25)" fill="#90a1b5"/>
            <rect id="Rectángulo_6215" data-name="Rectángulo 6215" width="10.014" height="6.447" transform="translate(24.691 2.469)" fill="#dbecfd"/>
            <rect id="Rectángulo_6216" data-name="Rectángulo 6216" width="2.332" height="7.545" transform="translate(14.403 2.195)" fill="#02325a"/>
            <rect id="Rectángulo_6217" data-name="Rectángulo 6217" width="2.332" height="7.545" transform="translate(41.564 2.195)" fill="#02325a"/>
          </g>
          <path id="Trazado_57425" data-name="Trazado 57425" d="M253.08,245.03l-.526-11.908a.4.4,0,0,0-.446-.408.427.427,0,0,0-.408.446l.527,11.908A8.558,8.558,0,0,1,252,248.14c-.65,1.955-2.655,3.14-4.693,4.174l-.138-20.889a.427.427,0,0,0-.427-.423h0a.427.427,0,0,0-.424.429l.172,26.013a.427.427,0,0,0,.427.424h0a.427.427,0,0,0,.423-.429l-.027-4.225,0,0a.418.418,0,0,0,.191-.046c2.26-1.135,4.53-2.438,5.3-4.76A9.368,9.368,0,0,0,253.08,245.03Z" transform="translate(-179.045 -220.471)" fill="#415a99"/>
        </g>
        <g id="Grupo_31368" data-name="Grupo 31368" transform="translate(46.613 56.615)">
          <path id="Trazado_57426" data-name="Trazado 57426" d="M213.844,206.026c-2.376-.028-9-4.426-10.612-6.124-1.532-1.616,1.052-3.97,1.117-6.13.769-25.555-1.07-51.156-.3-76.71.066-2.211.119-4.565,1.363-6.408,1.058-1.565,5.309-3.086,8.255-4.447,18.694-8.64,29.257-10.7,52.663-.285,7.321,12.633,2.978,50.943,7.659,73.281,1.159,5.529,3.3,12.285-.118,16.8-2.539,3.357.687,5.573-3.512,6.66C254.56,206.754,230.289,206.222,213.844,206.026Z" transform="translate(-202.747 -98.892)" fill="#90a1b5"/>
          <g id="Grupo_31367" data-name="Grupo 31367" transform="translate(0 1.183)">
            <g id="Grupo_31366" data-name="Grupo 31366" transform="translate(0 1.803)">
              <path id="Trazado_57427" data-name="Trazado 57427" d="M239.827,200.045c-4.288-6.861-12.006-10.291-16.294-15.436-8.575-11.149-9.433-26.584-6-40.305,3.231-13.732,8.742-27.465,6.5-41.914-3.244,1.152-6.643,2.607-10.367,4.328-2.946,1.361-7.2,2.882-8.255,4.447-1.245,1.842-1.3,4.2-1.363,6.408-.769,25.555,1.07,51.156.3,76.71-.065,2.16-2.648,4.514-1.117,6.13,1.465,1.545,7.074,5.315,9.865,6C219.208,198.989,228.225,195.319,239.827,200.045Z" transform="translate(-202.747 -102.39)" fill="#647d93"/>
            </g>
            <path id="Trazado_57428" data-name="Trazado 57428" d="M281.9,196.205c3.414-4.516,1.276-11.272.118-16.8-4.681-22.337-.338-60.648-7.659-73.281a90.676,90.676,0,0,0-16.688-5.846c18.589,27.04,1.387,58.068,3.906,87.453a43.541,43.541,0,0,0,4.82,17.275,91.509,91.509,0,0,0,11.99-2.14C282.59,201.778,279.363,199.562,281.9,196.205Z" transform="translate(-210.779 -100.278)" fill="#647d93"/>
            <path id="Trazado_57429" data-name="Trazado 57429" d="M264.431,136.906a94.786,94.786,0,0,0-40.751-3.415c-5.179.7-10.614,2-14.287,5.719-5.13,5.194-5.283,13.595-3.31,20.623s5.691,13.505,7.319,20.622c.925,4.048,1.212,8.388,3.434,11.9,5.234,8.26,17.316,8.813,25.548,15.5,5.135-3.641,9.739-6.408,15.794-8.128,2.1-.6,4.323-1.117,5.935-2.583,2.413-2.2,2.747-5.809,2.921-9.066q1.174-22.047,2.35-44.094a7.579,7.579,0,0,0-.682-4.481C267.794,138.058,266.057,137.411,264.431,136.906Z" transform="translate(-203.064 -105.01)" fill="#02325a"/>
          </g>
        </g>
        <g id="Grupo_31373" data-name="Grupo 31373" transform="translate(98.812 64.838)">
          <path id="Trazado_57430" data-name="Trazado 57430" d="M325.986,256.163a16.052,16.052,0,0,0,.257,10.49,3.719,3.719,0,0,1,1.821-1.118,18.362,18.362,0,0,1-1.2-6.373,6.9,6.9,0,0,1,1.79-4.411,13.616,13.616,0,0,1-.931-1.943A10.541,10.541,0,0,0,325.986,256.163Z" transform="translate(-272.856 -129.621)" fill="#02325a"/>
          <path id="Trazado_57431" data-name="Trazado 57431" d="M328.221,243.818c.192-1.237-.835-3.863-2.687-7.566,3.308-.733,6.434-2.279,9.568-3.6,1.074,4.136,1.088,4.61,2.161,8.745.248.958,2.331,7.367,2.282,8.359-.149,3.005-2.874,5.076-4.226,7.744a1.46,1.46,0,0,1-1.705.763,32.524,32.524,0,0,0-6.921-1.159,1.177,1.177,0,0,1-1.079-.924c-.387-1.638-1.538-3.356-1.451-4.437.111-1.38.411-1.088,1.058-1.991.248-.348.83-1.107,1.215-.92.421.2.854.346.786.813C327.686,247.856,326.29,245.518,328.221,243.818Z" transform="translate(-272.699 -126.673)" fill="#f9e0a7"/>
          <path id="Trazado_57432" data-name="Trazado 57432" d="M337.138,252.924a5.726,5.726,0,0,0-4.095-2.848,5.482,5.482,0,0,0-4.283,1.629,7.235,7.235,0,0,0-.615.7,13.619,13.619,0,0,0,.931,1.943,4.712,4.712,0,0,1,1.324-.967,3.073,3.073,0,0,1,2.74-.093,4.179,4.179,0,0,1,1.726,2.833A23.181,23.181,0,0,1,335.5,260a7.239,7.239,0,0,1,3.134-2.164A12.388,12.388,0,0,0,337.138,252.924Z" transform="translate(-273.282 -129.218)" fill="#02325a"/>
          <path id="Trazado_57433" data-name="Trazado 57433" d="M322.582,234.086c.564,1.97,1.108,3.945,1.613,5.932,3.43-1.028,9.021-2.9,12.452-3.925-.3-1.927-.642-3.847-1-5.761C331.271,231.66,326.923,232.962,322.582,234.086Z" transform="translate(-272.469 -126.334)" fill="#90a1b5"/>
          <g id="Grupo_31370" data-name="Grupo 31370">
            <path id="Trazado_57434" data-name="Trazado 57434" d="M281.461,111.97a8.961,8.961,0,0,0-4.073-2.894c-3.033-1.175-8.461-.481-10.379,2.146-4.21,5.765-3.787,13.881-.961,20.435s7.691,11.972,12.183,17.518A198.351,198.351,0,0,1,314,217c4.532-1.124,9.07-2.427,13.637-3.755A240.222,240.222,0,0,0,281.461,111.97Z" transform="translate(-263.886 -108.524)" fill="#415a99"/>
            <g id="Grupo_31369" data-name="Grupo 31369" transform="translate(12.91 33.95)">
              <path id="Trazado_57435" data-name="Trazado 57435" d="M318.3,222.405a.429.429,0,0,1-.414-.324A171.1,171.1,0,0,0,279.117,149a.427.427,0,0,1,.635-.571,171.959,171.959,0,0,1,38.959,73.446.428.428,0,0,1-.415.529Z" transform="translate(-279.008 -148.288)" fill="#02325a"/>
            </g>
          </g>
          <path id="Trazado_57436" data-name="Trazado 57436" d="M330.753,257.784a22.326,22.326,0,0,1,3.121-4.735c1.149-1.272,2.272-1.965,2.84-3.584a4.888,4.888,0,0,0-.7-4.85,3.447,3.447,0,0,0-2.347-1.13,3.287,3.287,0,0,0-3.03,1.781c-.662,1.337-.324,2.93-.472,4.415-.258,2.563-2.575,5.132-1.559,7.5.148.346.317.739.511,1.121a.838.838,0,0,0,1.147.176A1.623,1.623,0,0,0,330.753,257.784Z" transform="translate(-273.312 -128.257)" fill="#f9e0a7"/>
          <g id="Grupo_31372" data-name="Grupo 31372" transform="translate(49.187 124.966)">
            <path id="Trazado_57437" data-name="Trazado 57437" d="M341.065,254.9a5.336,5.336,0,0,0-1.955.519c-2.615,1.229-4.113,3.683-6.252,5.435-2.1,1.72-4.75,2.708-6.715,4.581-4.1,3.907-4.088,10.322-3.925,15.982q.476,16.545-.579,33.087c-.242,3.793-.445,7.949,1.814,11,2.82,3.813,8.374,4.345,13.024,3.418,3.986-.795,7.842-2.4,11.849-2.883a2.236,2.236,0,0,0,2-2.216q-.1-17.026-.2-34.053c-.058-9.793-.143-19.765-3.133-29.091C346.088,257.855,344.491,254.7,341.065,254.9Z" transform="translate(-321.497 -254.891)" fill="#02325a"/>
            <path id="Trazado_57438" data-name="Trazado 57438" d="M340.8,322.341c1.542,1.439,3.852,1.579,5.96,1.639a4.759,4.759,0,0,0,3.1-.628c1.074-.832,1.223-2.369,1.277-3.727q.763-19.2-.3-38.422c-.38-6.855-.956-13.8-3.317-20.248a4.223,4.223,0,0,0-1.488-2.261c-1.337-.838-3.214.035-3.994,1.407a8.554,8.554,0,0,0-.7,4.618c.331,7.952,1.288,15.869,1.572,23.823s-.123,16.028-2.452,23.639a24.158,24.158,0,0,0-1.283,5.213A6.121,6.121,0,0,0,340.8,322.341Z" transform="translate(-324.079 -255.399)" fill="#415a99"/>
            <g id="Grupo_31371" data-name="Grupo 31371" transform="translate(11.933 0.756)">
              <path id="Trazado_57439" data-name="Trazado 57439" d="M342.81,326.816c-2.88,0-5.957-2.8-6.682-4.872a15.961,15.961,0,0,1-.54-6.636,81.745,81.745,0,0,1,2.339-12.13,76.2,76.2,0,0,0,2.375-12.744,76.045,76.045,0,0,0-.962-15.044c-.365-2.784-.74-5.663-.934-8.51a16.24,16.24,0,0,1,.772-7.332,5.6,5.6,0,0,1,5.38-3.77h0a.427.427,0,0,1,0,.854,4.746,4.746,0,0,0-4.6,3.243,15.5,15.5,0,0,0-.709,6.947c.191,2.82.566,5.685.928,8.457a76.716,76.716,0,0,1,.968,15.216,76.879,76.879,0,0,1-2.4,12.888,81.055,81.055,0,0,0-2.318,12,15.186,15.186,0,0,0,.5,6.277c.674,1.92,3.871,4.649,6.385,4.263a.427.427,0,1,1,.13.844A4.2,4.2,0,0,1,342.81,326.816Z" transform="translate(-335.473 -255.777)" fill="#415a99"/>
            </g>
          </g>
        </g>
        <g id="Grupo_31376" data-name="Grupo 31376" transform="translate(90.973 54.055)">
          <path id="Trazado_57440" data-name="Trazado 57440" d="M282.177,173.74c-2.479-9.69-.778-19.883-.6-29.884.189-10.786,1.251-20.691-2.1-30.946-.695-2.127-1.43-5.6-3.144-7.039-4.341-3.642-16-6.686-21.626-9.978,4.115,4.938,12.59,17,14.609,24.143,3.566,12.62,1.646,23.8-.549,34.568-2.124,10.424-8.619,22.186-4.115,31.825,3.529,7.549,7.629,12.621,13.363,18.667s11.652,12.069,15.751,19.324,3.121,16.6,3.782,24.017c2.906-4.533,6.074-9.988,11.039-12.926,1.654-.978,3.521-1.879,4.408-3.583a7.767,7.767,0,0,0,.212-5.239C308.753,206.537,287.29,193.735,282.177,173.74Z" transform="translate(-254.705 -95.893)" fill="#415a99"/>
          <g id="Grupo_31374" data-name="Grupo 31374" transform="translate(4.098 2.651)">
            <path id="Trazado_57441" data-name="Trazado 57441" d="M299.407,245.62a.405.405,0,0,1-.119-.016.428.428,0,0,1-.291-.529c2.823-9.73-2.6-19.944-7.65-26.8-1.562-2.122-3.257-4.228-4.9-6.265-4.44-5.521-9.03-11.228-11.579-17.948-5.4-14.225-.65-30.678,2.936-42.819l-5.074-1.055a.427.427,0,0,1-.038-.826c3.471-1.067,5.3-4.768,5.572-7.963.3-3.479-.79-6.887-2.028-10.361-3.349-9.4-8.265-21.461-16.635-31.336a.427.427,0,0,1,.652-.552c8.458,9.981,13.415,22.132,16.787,31.6,1.27,3.567,2.385,7.07,2.074,10.72-.26,3.062-1.857,6.558-4.861,8.161l4.18.869a.433.433,0,0,1,.279.2.426.426,0,0,1,.044.341c-3.565,12.065-8.448,28.589-3.089,42.719,2.5,6.593,7.048,12.247,11.447,17.715,1.644,2.044,3.344,4.157,4.916,6.294,5.163,7.01,10.7,17.48,7.784,27.545A.427.427,0,0,1,299.407,245.62Z" transform="translate(-259.505 -98.998)" fill="#02325a"/>
          </g>
          <g id="Grupo_31375" data-name="Grupo 31375" transform="translate(35.921 103.071)">
            <path id="Trazado_57442" data-name="Trazado 57442" d="M297.2,227.67a.427.427,0,0,1-.271-.756,12.833,12.833,0,0,0,4.638-9.869.408.408,0,0,1,.427-.429.427.427,0,0,1,.427.425,13.694,13.694,0,0,1-4.949,10.531A.423.423,0,0,1,297.2,227.67Z" transform="translate(-296.777 -216.616)" fill="#02325a"/>
          </g>
        </g>
        <g id="Grupo_31377" data-name="Grupo 31377" transform="translate(69.709 35.536)">
          <path id="Trazado_57443" data-name="Trazado 57443" d="M251.109,93.282c-1.385-6.068-3.245-12.143-4.16-19.079-3.983,1.023-10.439,1.82-14.507,1.029-.663,7.059-2.223,15.261-2.378,20.939a8.024,8.024,0,0,0,.817,6.029c1.542,2.671,4.306,4.424,7.168,5.575,2.455.988,5.208,1.608,7.741.842a11.52,11.52,0,0,0,4.736-3.166,10.338,10.338,0,0,0,3.18-5.612A7.744,7.744,0,0,0,251.109,93.282Z" transform="translate(-229.799 -74.203)" fill="#f9e0a7"/>
          <path id="Trazado_57444" data-name="Trazado 57444" d="M242.067,106.355c-3.965,1.586-10.127-4.895-11.71-11.3-.15,1.488-.258,2.894-.293,4.169a8.024,8.024,0,0,0,.817,6.029c1.542,2.671,4.306,4.424,7.168,5.575,2.455.988,5.208,1.608,7.741.842a11.52,11.52,0,0,0,4.736-3.166,10.338,10.338,0,0,0,3.18-5.612,7.343,7.343,0,0,0-1.293-5.029C249.884,101.956,246.56,105.13,242.067,106.355Z" transform="translate(-229.799 -77.251)" fill="#02325a"/>
          <path id="Trazado_57445" data-name="Trazado 57445" d="M232.709,75.232c-.266,2.83-.675,5.844-1.082,8.805,4.347,6.835,13.093,10.852,18.945,5.9A139.326,139.326,0,0,1,247.215,74.2C243.232,75.226,236.776,76.023,232.709,75.232Z" transform="translate(-230.067 -74.203)" fill="#02325a"/>
        </g>
        <g id="Grupo_31378" data-name="Grupo 31378" transform="translate(0 66.569)">
          <path id="Trazado_57446" data-name="Trazado 57446" d="M194.939,140.527c2.544-1.752,5.222-3.467,6.992-6,2.432-3.478,2.792-8.076,1.92-12.23s-2.852-7.979-4.808-11.746c-10.184,1.179-35.9,28.112-48.117,47.193-1.435,2.24-3.147,6.295-2.7,8.918,1,5.894,3.018,9.191,11.386,9.877C170.583,167.622,180.561,150.429,194.939,140.527Z" transform="translate(-148.152 -110.551)" fill="#415a99"/>
          <path id="Trazado_57447" data-name="Trazado 57447" d="M204.727,123.9c-10.475,2.629-16.666,11.9-24.662,18.3-6,6-10.612,8.9-19.08,13.4-6.861,5.146-7.075,14.15-5.36,21.868.013.035.027.069.04.1a20.674,20.674,0,0,0,4.907.922c10.974-8.916,20.951-26.109,35.329-36.011,2.544-1.752,5.222-3.467,6.992-6,2.432-3.478,2.792-8.076,1.92-12.23C204.787,124.132,204.753,124.018,204.727,123.9Z" transform="translate(-149.113 -112.503)" fill="#02325a"/>
        </g>
        <g id="Grupo_31380" data-name="Grupo 31380" transform="translate(57.078 82.58)">
          <path id="Trazado_57448" data-name="Trazado 57448" d="M266.257,190.026l-22.063,15.35-22.231-15.354a16.12,16.12,0,0,1-6.958-13.263V132.991a116.515,116.515,0,0,1,58.165,0v43.8A16.119,16.119,0,0,1,266.257,190.026Z" transform="translate(-215.005 -129.304)" fill="#5ebc77"/>
          <g id="Grupo_31379" data-name="Grupo 31379" transform="translate(2.644 3.721)">
            <path id="Trazado_57449" data-name="Trazado 57449" d="M244.634,202.291a.855.855,0,0,1-.486-.151l-19.556-13.508a15.033,15.033,0,0,1-6.49-12.37v-38.5a.853.853,0,0,1,.646-.828,107.159,107.159,0,0,1,25.963-3.269,103.04,103.04,0,0,1,25.626,3.271.852.852,0,0,1,.641.826v38.535a15.039,15.039,0,0,1-6.448,12.341l-19.409,13.5A.851.851,0,0,1,244.634,202.291ZM219.81,138.429v37.834a13.327,13.327,0,0,0,5.753,10.965l19.07,13.171,18.923-13.166a13.334,13.334,0,0,0,5.715-10.939v-37.87a101.268,101.268,0,0,0-24.56-3.054A105.212,105.212,0,0,0,219.81,138.429Z" transform="translate(-218.102 -133.662)" fill="#fff"/>
          </g>
          <path id="Trazado_57450" data-name="Trazado 57450" d="M263.47,159.829H252.153V148.512H242v11.317H230.685V169.98H242V181.3h10.151V169.98H263.47Z" transform="translate(-217.298 -132.112)" fill="#fff"/>
        </g>
        <g id="Grupo_31382" data-name="Grupo 31382" transform="translate(15.375 57.347)">
          <path id="Trazado_57451" data-name="Trazado 57451" d="M216.861,99.749c-4.522,1.359-13.45,7.506-17.973,8.865-3.2,31.706,4.319,51.267-13.1,84.552-9.259,17.7-25.467,26.641-17.49,36.42,6.379,7.819,3.38,14.927,6.173,19.342,2.94,4.646,8.448,8.761,9.259,14.4,5.1-2.544,10.494-5.418,6.379-15.432-3.916-8.965-3.236-16.892.634-25.877S200.382,205,204.673,196.2c3.172-6.5,7.489-12.878,5.809-19.91-1.645-6.887-8.888-13.436-10.555-20.317-2.174-8.97,2.2-18.111,6.689-26.178S217.949,108.915,216.861,99.749Z" transform="translate(-166.16 -99.749)" fill="#415a99"/>
          <path id="Trazado_57452" data-name="Trazado 57452" d="M217.306,107.555c-5.6,2.921-9.027,8.825-11.071,14.8-8.066,23.57,3.317,36.8-3.393,61.872-1.955,7.3-15.844,6.173-17.078,33.539-.149,3.282-2.483,13.2-2.881,16.461s5.3,21.807,7.2,24.486c-1.646-22.634,8.222-45.3,16.034-59.109,2.84-5.022,5.872-10.268,5.994-16.036.134-6.408-3.33-12.242-5.744-18.18-2.542-6.25-3.987-13.158-2.665-19.774,1.343-6.728,5.381-12.542,8.753-18.517S218.673,114.278,217.306,107.555Z" transform="translate(-168.602 -100.89)" fill="#02325a"/>
          <g id="Grupo_31381" data-name="Grupo 31381" transform="translate(15.652 102.254)">
            <path id="Trazado_57453" data-name="Trazado 57453" d="M190.721,233.339a.426.426,0,0,1-.318-.142,23.709,23.709,0,0,1-5.909-13.21.427.427,0,0,1,.849-.091,22.858,22.858,0,0,0,5.695,12.73.427.427,0,0,1-.317.713Z" transform="translate(-184.492 -219.515)" fill="#02325a"/>
          </g>
        </g>
        <g id="Grupo_31397" data-name="Grupo 31397" transform="translate(62.059)">
          <g id="Grupo_31387" data-name="Grupo 31387">
            <g id="Grupo_31384" data-name="Grupo 31384">
              <g id="Grupo_31383" data-name="Grupo 31383">
                <path id="Trazado_57454" data-name="Trazado 57454" d="M256.193,42.122c-1.179-1.179-2.787-3.269-4.61-3.377A8.1,8.1,0,0,1,254,38.156s-.733-2.037-6.092-2.251a17.1,17.1,0,0,0,4-1.894,33.625,33.625,0,0,0-5.61-.715c-2.965-.108-4.943-.742-5.681-.715-2.92.108-7.178,1.674-9.88,2.787s-3.766,3.187-3.43,4.824a37.8,37.8,0,0,0-5.252,3.162c-.982.663-1.025,2.791-1.179,3.967a18.516,18.516,0,0,0,.75,5.949c1.645,3.588,1.064,3.718,2.71,7.307a163.649,163.649,0,0,1,30.258.282c1.473-3.472,1.727-6.675,2.461-10.376a10.329,10.329,0,0,0-.644-5.573A31.686,31.686,0,0,0,254,42.015S255.551,42.6,256.193,42.122Z" transform="translate(-220.84 -32.581)" fill="#02325a"/>
              </g>
              <path id="Trazado_57455" data-name="Trazado 57455" d="M237.644,43.035c-.883.024-4.75-1.624-5.527-1.211-1.5.795-1.954,2.665-2.258,4.317l-2.2-1.663a3.816,3.816,0,0,0,.552,1.9l-2.975-1.242c-.365,1.325-1.786,2.172-2.136,3.5a4.8,4.8,0,0,0,.02,1.906l1.365,9.4a4.933,4.933,0,0,1,2.39-.259q13.688.771,27.41.547.765-4.254,1.531-8.509a5.239,5.239,0,0,0,.11-1.831,5.343,5.343,0,0,0-1.994-2.789l.744-.333c-3.325-1.914-5.895-2.24-9.742-2.35,1.422-.813,1.568-1.138,3.206-1.261C243.486,41.7,242.214,42.91,237.644,43.035Z" transform="translate(-221.157 -33.923)" fill="#02325a"/>
            </g>
            <g id="Grupo_31385" data-name="Grupo 31385" transform="translate(0.992 23.67)">
              <path id="Trazado_57456" data-name="Trazado 57456" d="M226.062,61.726a4.032,4.032,0,0,0-2.632-1.416,1.7,1.7,0,0,0-1.387,1.285c-.243,1.1.639,2.1,1.083,3.135a9.69,9.69,0,0,1,.546,2.8,6.154,6.154,0,0,0,.778,2.73,2.389,2.389,0,0,0,2.426,1.155Z" transform="translate(-222.001 -60.304)" fill="#f9e0a7"/>
              <path id="Trazado_57457" data-name="Trazado 57457" d="M226.335,64.04a3.174,3.174,0,0,0-.814-1.131c-.345-.346-1.275-1.533-1.824-1.075-.156.131-.493.449-.434.683.372,1.489,1.831,1.206,1.982,2.733a4.717,4.717,0,0,1-.342,1.364,4.426,4.426,0,0,0,.128,2.55c.333.675,1.249.539,1.8.251.429-.225.415-.627.122-.981a5.706,5.706,0,0,0-.482-.459,2.759,2.759,0,0,1-.628-2.935c.121-.3.528-.487.523-.809A.752.752,0,0,0,226.335,64.04Z" transform="translate(-222.185 -60.513)" fill="#02325a"/>
            </g>
            <g id="Grupo_31386" data-name="Grupo 31386" transform="translate(31.778 23.67)">
              <path id="Trazado_57458" data-name="Trazado 57458" d="M262.893,61.6a1.7,1.7,0,0,0-1.387-1.285,4.03,4.03,0,0,0-2.631,1.416l-.815,9.69a2.39,2.39,0,0,0,2.426-1.155,6.155,6.155,0,0,0,.778-2.73,9.689,9.689,0,0,1,.545-2.8C262.254,63.692,263.137,62.7,262.893,61.6Z" transform="translate(-258.06 -60.304)" fill="#f9e0a7"/>
              <path id="Trazado_57459" data-name="Trazado 57459" d="M258.986,64.04a3.175,3.175,0,0,1,.815-1.131c.345-.346,1.275-1.533,1.824-1.075.156.131.493.449.435.683-.373,1.489-1.831,1.206-1.983,2.733a4.718,4.718,0,0,0,.342,1.364,4.426,4.426,0,0,1-.128,2.55c-.333.675-1.249.539-1.8.251-.43-.225-.416-.627-.123-.981a5.7,5.7,0,0,1,.482-.459,2.757,2.757,0,0,0,.628-2.935c-.121-.3-.528-.487-.523-.809A.753.753,0,0,1,258.986,64.04Z" transform="translate(-258.075 -60.513)" fill="#02325a"/>
            </g>
            <path id="Trazado_57460" data-name="Trazado 57460" d="M254.175,50.222c-1.772-2.046-4.7-3.068-7.313-3.442a27.385,27.385,0,0,0-6.416.019,27.378,27.378,0,0,0-6.415-.019c-2.613.374-5.541,1.4-7.313,3.442A68.336,68.336,0,0,0,227,67.806c.618,4.223,1.693,8.514,4.187,11.894,2.2,2.985,5.721,5.111,9.258,4.949,3.537.162,7.057-1.964,9.259-4.949,2.493-3.38,3.569-7.671,4.187-11.894A68.373,68.373,0,0,0,254.175,50.222Z" transform="translate(-221.636 -34.63)" fill="#f9e0a7"/>
          </g>
          <g id="Grupo_31396" data-name="Grupo 31396" transform="translate(6.767 18.455)">
            <g id="Grupo_31394" data-name="Grupo 31394">
              <g id="Grupo_31389" data-name="Grupo 31389">
                <g id="Grupo_31388" data-name="Grupo 31388">
                  <path id="Trazado_57461" data-name="Trazado 57461" d="M229.328,57.961a.561.561,0,0,1-.382-.972,10.538,10.538,0,0,1,7.013-2.793h0a.561.561,0,0,1,0,1.123,9.4,9.4,0,0,0-6.257,2.491A.557.557,0,0,1,229.328,57.961Z" transform="translate(-228.766 -54.197)" fill="#02325a"/>
                </g>
              </g>
              <g id="Grupo_31391" data-name="Grupo 31391" transform="translate(16.49)">
                <g id="Grupo_31390" data-name="Grupo 31390">
                  <path id="Trazado_57462" data-name="Trazado 57462" d="M255.277,57.961a.561.561,0,0,0,.382-.972,10.54,10.54,0,0,0-7.013-2.793h0a.561.561,0,0,0,0,1.123,9.4,9.4,0,0,1,6.256,2.491A.561.561,0,0,0,255.277,57.961Z" transform="translate(-248.081 -54.197)" fill="#02325a"/>
                </g>
              </g>
              <g id="Grupo_31392" data-name="Grupo 31392" transform="translate(3.432 4.487)">
                <path id="Trazado_57463" data-name="Trazado 57463" d="M232.792,61.512a1.13,1.13,0,0,0,.111.672.879.879,0,0,0,.736.392,1.077,1.077,0,0,0,.931-.622,2.462,2.462,0,0,0,.244-1.731.935.935,0,0,0-.836-.77.983.983,0,0,0-.77.308,1.263,1.263,0,0,0-.266.618A7.615,7.615,0,0,0,232.792,61.512Z" transform="translate(-232.786 -59.452)" fill="#02325a"/>
              </g>
              <g id="Grupo_31393" data-name="Grupo 31393" transform="translate(18.773 4.487)">
                <path id="Trazado_57464" data-name="Trazado 57464" d="M252.838,61.512a1.137,1.137,0,0,1-.112.672.879.879,0,0,1-.736.392,1.076,1.076,0,0,1-.93-.622,2.457,2.457,0,0,1-.244-1.731.934.934,0,0,1,.835-.77.984.984,0,0,1,.771.308,1.263,1.263,0,0,1,.266.618A7.729,7.729,0,0,1,252.838,61.512Z" transform="translate(-250.754 -59.452)" fill="#02325a"/>
              </g>
            </g>
            <g id="Grupo_31395" data-name="Grupo 31395" transform="translate(6.932 18.731)">
              <path id="Trazado_57465" data-name="Trazado 57465" d="M243.805,81.4a28.346,28.346,0,0,1-3.118,0,4.215,4.215,0,0,1-3.8-4.191v-.05a1.006,1.006,0,0,1,1.177-1.017,28.614,28.614,0,0,0,8.365,0,1.006,1.006,0,0,1,1.177,1.017v.05A4.215,4.215,0,0,1,243.805,81.4Z" transform="translate(-236.886 -76.136)" fill="#02325a"/>
            </g>
            <path id="Trazado_57466" data-name="Trazado 57466" d="M241.59,73.263h1.944c.041-.02.083-.041.123-.062l2.146-1.14a2.648,2.648,0,0,0-1.726-1.118,6.061,6.061,0,0,0-1.346.3c-.055.011-.113.011-.168.018s-.114-.007-.169-.018a6.05,6.05,0,0,0-1.346-.3,2.648,2.648,0,0,0-1.726,1.118l2.147,1.14C241.508,73.222,241.549,73.243,241.59,73.263Z" transform="translate(-230.31 -56.645)" fill="#02325a"/>
          </g>
        </g>
        <g id="Grupo_31400" data-name="Grupo 31400" transform="translate(66.761 50.651)">
          <path id="Trazado_57467" data-name="Trazado 57467" d="M245.191,115.165c.849,3.908,4.207,6.874,7.906,8.393s7.758,1.842,11.734,2.268c9.761,1.046,19.536,2.834,28.585,6.641,5.065,2.13,10.251,5.324,12.031,10.522a10.688,10.688,0,0,1,7.406,3.592c.486-3.349.913-7.014-.852-9.9A12.11,12.11,0,0,0,309,133.566c-7.173-5.591-16.276-8.129-25.289-9.34s-18.187-1.21-27.2-2.392a12.771,12.771,0,0,1-6.173-2.367C248.376,118.027,247.964,114.117,245.191,115.165Z" transform="translate(-229.102 -95.281)" fill="#02325a"/>
          <path id="Trazado_57468" data-name="Trazado 57468" d="M228.521,113.006a7.217,7.217,0,0,1,9.519-1.86,3.315,3.315,0,0,0,1.216.622.872.872,0,0,0,1.041-.646c.036-.436-.377-.761-.738-1.007-5.364-3.676-8.455-9.632-9.576-16.037-.314-.215-.923.19-2.731,1.972-.693.684-.908,3.123-.9,4.1.018,4.718.611,8.226.629,12.944a.9.9,0,0,0,.1.5.631.631,0,0,0,.833.1A2.222,2.222,0,0,0,228.521,113.006Z" transform="translate(-226.347 -92.216)" fill="#dbecfd"/>
          <path id="Trazado_57469" data-name="Trazado 57469" d="M248.841,105.724a18.2,18.2,0,0,0-2,2.07,3.27,3.27,0,0,0-.666,2.7,3.421,3.421,0,0,1,3.747-.925,10.84,10.84,0,0,1,3.454,2.2,8.728,8.728,0,0,0,3.54,2.028c-.993-1.728-.711-3.9-.139-5.81s1.412-3.783,1.456-5.776a9.918,9.918,0,0,0-1.888-5.676,29.183,29.183,0,0,0-3.858-4.627A14.361,14.361,0,0,1,248.841,105.724Z" transform="translate(-229.234 -91.906)" fill="#dbecfd"/>
          <path id="Trazado_57470" data-name="Trazado 57470" d="M245.651,119.793a1.821,1.821,0,0,0,1.661-.114,1.881,1.881,0,0,0,.473-.824q.784-2.157,1.568-4.312a2.1,2.1,0,0,0,.169-.722,1.479,1.479,0,0,0-1.411-1.282,5.4,5.4,0,0,0-2.039.383,14.1,14.1,0,0,1-7.149.232,3.718,3.718,0,0,0-1.49-.161,1.086,1.086,0,0,0-.949,1.006,1.508,1.508,0,0,0,.573.934A20.367,20.367,0,0,0,245.651,119.793Z" transform="translate(-227.829 -94.921)" fill="#02325a"/>
          <g id="Grupo_31398" data-name="Grupo 31398" transform="translate(19.343 24.407)">
            <path id="Trazado_57471" data-name="Trazado 57471" d="M306.835,142.723a.319.319,0,0,1-.3-.2,16.125,16.125,0,0,0-6.631-7.561c-8.813-5.6-19.54-7.264-29.771-8.484-1.2-.143-2.5-.246-3.872-.354a55.3,55.3,0,0,1-7.6-.938c-3.316-.758-6.769-1.783-9.55-4.122a.32.32,0,1,1,.412-.49c2.678,2.252,6.043,3.248,9.281,3.988a54.835,54.835,0,0,0,7.5.924c1.382.109,2.689.213,3.9.357,10.3,1.229,21.111,2.9,30.038,8.58a16.747,16.747,0,0,1,6.885,7.871.32.32,0,0,1-.183.413A.329.329,0,0,1,306.835,142.723Z" transform="translate(-249.002 -120.493)" fill="#69a5d8"/>
          </g>
          <g id="Grupo_31399" data-name="Grupo 31399" transform="translate(9.577 18.914)">
            <path id="Trazado_57472" data-name="Trazado 57472" d="M245.139,119.148a.319.319,0,0,1-.084-.012,15.711,15.711,0,0,1-7.408-4.543.32.32,0,0,1,.475-.429,15.07,15.07,0,0,0,7.1,4.355.32.32,0,0,1-.085.629Z" transform="translate(-237.564 -114.059)" fill="#69a5d8"/>
          </g>
        </g>
        <g id="Grupo_31404" data-name="Grupo 31404" transform="translate(27.939 53.746)">
          <g id="Grupo_31403" data-name="Grupo 31403">
            <g id="Grupo_31401" data-name="Grupo 31401" transform="translate(0.415)">
              <path id="Trazado_57473" data-name="Trazado 57473" d="M192.129,246.252c-2-9.79,2.317-19.323,6.245-28.533,3.054-7.16,7.744-13.523,11.326-20.443s6.072-14.866,4.243-22.419c-1.078-4.453-3.685-8.25-5.889-12.2a40.013,40.013,0,0,1-4.524-13.513c-.639-3.959-.308-7.579,1.971-10.9,2.176-3.171,5.016-5.83,7.118-9.053,2.339-3.587,5.543-7.716,6.6-11.936,1.966-7.838-.711-13.89,1.946-21.73-5.238,1.515-9.557,22.9-16.624,28.064s-14.2,10.98-16.187,19.406c-2.383,10.1,19.786,25.244,22.909,35.143,2.457,7.791-5.912,9.4-11.194,12.362-7.036,3.946-12.314,10.379-15.784,17.581-1.508,3.132-3.474,6.8-2.782,10.358.655,3.367,3.256,6.225,3.422,9.7C185.2,233.826,185.133,238.639,192.129,246.252Z" transform="translate(-181.362 -95.532)" fill="#5673af"/>
            </g>
            <path id="Trazado_57474" data-name="Trazado 57474" d="M199.671,155.164a4.116,4.116,0,0,1-2.234,1.781,12,12,0,0,1-2.838,1.034,4.03,4.03,0,0,1-2.919-.463,4.585,4.585,0,0,1-1.644-2.315,11.767,11.767,0,0,1,.049-7.664,22.107,22.107,0,0,1,3.846-6.75l7.593-.417c.755-.042,1.654-.015,2.072.614.517.778-.126,1.814-.861,2.391s-1.655,1.087-1.884,1.992c-.307,1.2.8,2.38.668,3.617-.12,1.1-1.165,1.866-1.495,2.917S200.117,154.157,199.671,155.164Z" transform="translate(-182.125 -102.086)" fill="#02325a"/>
            <g id="Grupo_31402" data-name="Grupo 31402" transform="translate(0 3.92)">
              <path id="Trazado_57475" data-name="Trazado 57475" d="M181.3,219.745a.471.471,0,0,1-.069-.005.426.426,0,0,1-.353-.49c2.216-13.575,10.247-24.684,21.485-29.717.428-.191.888-.386,1.363-.587,2.491-1.054,5.591-2.366,6.723-4.51,1.2-2.266,1-4.9-.578-7.819-3.164-5.852-8.533-11.027-12.848-15.187s-9.216-9.844-8.776-16.913c.26-4.2,2.065-7.975,5.68-11.867,1.741-1.874,3.685-3.588,5.565-5.244,1.5-1.325,3.058-2.7,4.49-4.132a47.479,47.479,0,0,0,12.539-22.819.427.427,0,1,1,.832.188,48.332,48.332,0,0,1-12.767,23.234c-1.451,1.457-3.016,2.836-4.53,4.17-1.864,1.643-3.792,3.342-5.5,5.184-3.472,3.74-5.205,7.343-5.453,11.338-.417,6.72,4.332,12.212,8.517,16.246,4.356,4.2,9.778,9.427,13.006,15.4,1.723,3.188,1.919,6.089.582,8.622-1.274,2.414-4.529,3.791-7.145,4.9-.47.2-.925.391-1.347.581-10.974,4.914-18.822,15.784-20.991,29.075A.427.427,0,0,1,181.3,219.745Z" transform="translate(-180.876 -100.123)" fill="#dbecfd"/>
            </g>
          </g>
          <path id="Trazado_57476" data-name="Trazado 57476" d="M219.388,128.819a29.02,29.02,0,0,0,4.09-23.08c-.774,7.188-1.614,14.589-5.094,20.926-3.13,5.7-8.262,10.262-10.507,16.365C210.952,137.755,215.954,133.868,219.388,128.819Z" transform="translate(-184.824 -97.024)" fill="#02325a"/>
          <path id="Trazado_57477" data-name="Trazado 57477" d="M218.466,196.257a102.393,102.393,0,0,1-10.305,24.793,70.838,70.838,0,0,0,7.633-11.461A23.745,23.745,0,0,0,218.466,196.257Z" transform="translate(-184.866 -110.26)" fill="#02325a"/>
        </g>
        <g id="Grupo_31406" data-name="Grupo 31406" transform="translate(0.734 90.209)">
          <g id="Grupo_31405" data-name="Grupo 31405" transform="translate(0 10.942)">
            <path id="Trazado_57478" data-name="Trazado 57478" d="M171.028,176.333c-4.409,3.436-9.4,7.027-14.575,5.892-4.348-.954-8.071-6.082-7.351-11.3a11.7,11.7,0,0,1,5-7.817,25.984,25.984,0,0,1,8-3.3c6.764-1.93,9.406-6.413,15.733-8.623,2.34-.817,7.507,2.513,7.978,5.375.482,2.93.838,6.133-.365,8.1a24.359,24.359,0,0,1-4.321,5.144C177.725,172.453,174.427,173.684,171.028,176.333Z" transform="translate(-149.012 -151.056)" fill="#5673af"/>
            <path id="Trazado_57479" data-name="Trazado 57479" d="M178.852,169.237a9.041,9.041,0,0,0,8.863-4.026,8.908,8.908,0,0,0-.323-9.71c-1.57-2.161-4.476-3.536-6.988-2.63-2.232.805-3.559,3.095-4.352,5.331a23.491,23.491,0,0,0-1.224,5.423,5.814,5.814,0,0,0,.459,3.506A4.872,4.872,0,0,0,178.852,169.237Z" transform="translate(-152.777 -151.28)" fill="#02325a"/>
            <path id="Trazado_57480" data-name="Trazado 57480" d="M187.883,163.986c1.239-1.959,1.088-4.529.812-6.873A12.249,12.249,0,0,0,188,153.9a4.109,4.109,0,0,0-2.1-2.323,3.782,3.782,0,0,0-2.251-.108,7.592,7.592,0,0,0-4.91,4.27,14.161,14.161,0,0,0-1.151,6.794,5.353,5.353,0,0,0,.915,3.145,4.381,4.381,0,0,0,3.866,1.21A7.036,7.036,0,0,0,187.883,163.986Z" transform="translate(-153.188 -151.099)" fill="#90a1b5"/>
            <path id="Trazado_57481" data-name="Trazado 57481" d="M188.193,156.6a4.256,4.256,0,0,0-2.8-1.591,4.588,4.588,0,0,0-3.215.752,5.477,5.477,0,0,0-2.012,4.458,3.95,3.95,0,0,0,6.317,3.851,5.6,5.6,0,0,0,2.441-4.061A4.617,4.617,0,0,0,188.193,156.6Z" transform="translate(-153.567 -151.628)" fill="#02325a"/>
          </g>
          <path id="Trazado_57482" data-name="Trazado 57482" d="M202.022,138.567a1.521,1.521,0,0,0-1.214-.324l-7.407.2c-.114,0-.227.007-.342.011a7.977,7.977,0,0,0-2.02.183,4.435,4.435,0,0,0-2.93,2.063,20.869,20.869,0,0,0-1.048,2.44c-.121.09-.244.177-.359.275a1.919,1.919,0,0,0-.846,1.939,1.139,1.139,0,0,0,.342.464c-.076.283-.143.551-.191.783-.4,1.921-.4,2.308-1.753,3.728A14.985,14.985,0,0,0,180.747,155a5.034,5.034,0,0,0,.756,5.263,3.736,3.736,0,0,0,1.463.958,3.1,3.1,0,0,0,2.68-.223c1.031-.584,1.859-1.459,3.069-1.667a5.951,5.951,0,0,0,1-.207,1.544,1.544,0,0,0,.947-1.053c.321-.81.589-1.643.869-2.467a10.211,10.211,0,0,1,4.562-2.36,2.7,2.7,0,0,0,.9-.359.923.923,0,0,0,.424-.828,1.064,1.064,0,0,0-.816-.956,6.513,6.513,0,0,0-4.842.536c-.037-.358-.007-1.375-.031-1.737a18.022,18.022,0,0,1,2.782-.032,21.375,21.375,0,0,0,3.448.25,1.513,1.513,0,0,0,.99-1.013c.085-.5-.393-.9-.83-1.163a13.531,13.531,0,0,0-6.321-1.86c.02-.19.042-.379.069-.568,2.2-.523,3.711-.087,5.562-.155.774-.027,1.725-.21,1.945-.953a1.287,1.287,0,0,0-.45-1.27,3.509,3.509,0,0,0-1.265-.629,21.63,21.63,0,0,0-2.842-.743c1.861-.41,3.764-.51,5.626-.92a3.315,3.315,0,0,0,1.411-.786A1.167,1.167,0,0,0,202.022,138.567Z" transform="translate(-153.593 -138.24)" fill="#f9e0a7"/>
        </g>
      </g>
    </g>
  </g>
</svg>
